CinzelDecorative-Bold-OTF.ufo
<glyph name="exclam" format="1">
  <advance width="269"/>
  <unicode hex="0021"/>
  <outline>
    <contour>
      <point x="193.064" y="378.671" type="line"/>
      <point x="211.411" y="701.602" type="line"/>
      <point x="57.483" y="701.602" type="line"/>
      <point x="75.7995" y="378.671" type="line"/>
      <point x="110.861" y="206.429" type="line"/>
      <point x="157.289" y="206.429" type="line"/>
    </contour>
    <contour>
      <point x="173.294" y="-10"/>
      <point x="205.673" y="22.3077"/>
      <point x="205.673" y="62.25" type="curve" smooth="yes"/>
      <point x="205.673" y="102.192"/>
      <point x="173.294" y="134.571"/>
      <point x="133.352" y="134.571" type="curve" smooth="yes"/>
      <point x="93.4088" y="134.571"/>
      <point x="61.0298" y="102.192"/>
      <point x="61.0298" y="62.25" type="curve" smooth="yes"/>
      <point x="61.0298" y="22.3077"/>
      <point x="93.4088" y="-10"/>
      <point x="133.352" y="-10" type="curve" smooth="yes"/>
    </contour>
  </outline>
</glyph>
<glyph name="dollar" format="1">
  <advance width="557"/>
  <unicode hex="0024"/>
  <outline>
    <contour>
      <point x="314.992" y="436.553" type="line"/>
      <point x="332.928" y="669.847" type="line"/>
      <point x="403.154" y="660.672"/>
      <point x="445.915" y="618.109"/>
      <point x="446.135" y="556.748" type="curve"/>
      <point x="455.764" y="556.748" type="line"/>
      <point x="468.86" y="703.741" type="line"/>
      <point x="406.375" y="703.741" type="line"/>
      <point x="384.707" y="706.509"/>
      <point x="360.01" y="708.975"/>
      <point x="336.077" y="710.796" type="curve"/>
      <point x="341.931" y="786.94" type="line"/>
      <point x="300.478" y="787.988" type="line"/>
      <point x="294.769" y="713.295" type="line"/>
      <point x="265.373" y="714" type="line" smooth="yes"/>
      <point x="148.762" y="714"/>
      <point x="67.9585" y="645.267"/>
      <point x="59.4585" y="539.195" type="curve" smooth="yes"/>
      <point x="52.1728" y="465.7"/>
      <point x="83.3091" y="400.23"/>
      <point x="155.074" y="359.475" type="curve"/>
      <point x="262.29" y="288.333" type="line"/>
      <point x="242.521" y="29.6691" type="line"/>
      <point x="137.809" y="40.8826"/>
      <point x="75.5522" y="120.075"/>
      <point x="82.4992" y="216.476" type="curve"/>
      <point x="73.7073" y="216.476" type="line"/>
      <point x="47.5455" y="172.853"/>
      <point x="33.4443" y="88.51"/>
      <point x="50.0042" y="46.7102" type="curve"/>
      <point x="82.7285" y="13.1403"/>
      <point x="153.664" y="-10"/>
      <point x="239.219" y="-14" type="curve"/>
      <point x="232.687" y="-99" type="line"/>
      <point x="273.586" y="-102" type="line"/>
      <point x="280.379" y="-14" type="line"/>
      <point x="427.349" y="-8"/>
      <point x="518.44" y="67.7746"/>
      <point x="524.274" y="193.322" type="curve" smooth="yes"/>
      <point x="528.524" y="268.738"/>
      <point x="494.897" y="324.071"/>
      <point x="434.611" y="358.847" type="curve"/>
    </contour>
    <contour>
      <point x="243.936" y="482.711" type="line"/>
      <point x="201.997" y="507.236"/>
      <point x="171.715" y="535.216"/>
      <point x="174.143" y="576.074" type="curve" smooth="yes"/>
      <point x="176.443" y="626.62"/>
      <point x="222.512" y="667.192"/>
      <point x="291.564" y="671.351" type="curve"/>
      <point x="275.576" y="462.158" type="line"/>
    </contour>
    <contour>
      <point x="301.591" y="262.255" type="line"/>
      <point x="329.322" y="243.854" type="line"/>
      <point x="386.593" y="212.313"/>
      <point x="409.305" y="179.543"/>
      <point x="409.242" y="140.143" type="curve" smooth="yes"/>
      <point x="409.302" y="82.0052"/>
      <point x="363.414" y="34.181"/>
      <point x="283.643" y="28.8093" type="curve"/>
    </contour>
  </outline>
</glyph>
<glyph name="ampersand" format="1">
  <advance width="878"/>
  <unicode hex="0026"/>
  <outline>
    <contour>
      <point x="1187.27" y="-96" type="line"/>
      <point x="995.54" y="-118"/>
      <point x="862.375" y="-14"/>
      <point x="732.923" y="96.1069" type="curve" smooth="yes"/>
      <point x="702.135" y="121.498" type="line"/>
      <point x="871.052" y="298.671"/>
      <point x="885.323" y="611.502"/>
      <point x="580.12" y="787.398" type="curve"/>
      <point x="573.988" y="781.398" type="line"/>
      <point x="866.157" y="587.158"/>
      <point x="816.857" y="307.014"/>
      <point x="665.543" y="152" type="curve"/>
      <point x="600.347" y="206.479"/>
      <point x="508.998" y="283.35"/>
      <point x="465.976" y="320" type="curve" smooth="yes"/>
      <point x="357.871" y="412.821"/>
      <point x="294.528" y="476.214"/>
      <point x="293.42" y="554.802" type="curve" smooth="yes"/>
      <point x="292.238" y="623.179"/>
      <point x="337.536" y="671.857"/>
      <point x="406.505" y="672.034" type="curve" smooth="yes"/>
      <point x="495.286" y="671.857"/>
      <point x="531.617" y="589.571"/>
      <point x="533.688" y="499.594" type="curve"/>
      <point x="543.162" y="499.594" type="line"/>
      <point x="577.115" y="643.151" type="line"/>
      <point x="543.05" y="689.679"/>
      <point x="460.567" y="713.607"/>
      <point x="378.061" y="713.979" type="curve" smooth="yes"/>
      <point x="251.682" y="714.393"/>
      <point x="137.425" y="657.607"/>
      <point x="138.911" y="533.169" type="curve" smooth="yes"/>
      <point x="139.464" y="485.547"/>
      <point x="156.708" y="440.254"/>
      <point x="185.164" y="396.558" type="curve"/>
      <point x="118.637" y="373.791"/>
      <point x="39.1529" y="317.781"/>
      <point x="40.2589" y="213.821" type="curve" smooth="yes"/>
      <point x="42.4259" y="33.9638"/>
      <point x="288.127" y="-18"/>
      <point x="414.804" y="-10" type="curve" smooth="yes"/>
      <point x="476.486" y="-7"/>
      <point x="533.786" y="8.5891"/>
      <point x="584.756" y="34.2609" type="curve"/>
      <point x="625.496" y="1.5923"/>
      <point x="662.576" y="-28"/>
      <point x="687.158" y="-47" type="curve" smooth="yes"/>
      <point x="831.104" y="-159"/>
      <point x="1026.39" y="-199"/>
      <point x="1189.4" y="-106" type="curve"/>
    </contour>
    <contour>
      <point x="316.559" y="32.3081"/>
      <point x="204.584" y="103.786"/>
      <point x="198.054" y="237.321" type="curve" smooth="yes"/>
      <point x="195.599" y="287.412"/>
      <point x="208.085" y="321.671"/>
      <point x="223.305" y="346.054" type="curve"/>
      <point x="259.006" y="304.287"/>
      <point x="303.446" y="263.785"/>
      <point x="351.447" y="223.857" type="curve" smooth="yes"/>
      <point x="369.649" y="208.265"/>
      <point x="459.108" y="135.379"/>
      <point x="545.046" y="66.1744" type="curve"/>
      <point x="508.716" y="49.6672"/>
      <point x="470.642" y="39.8232"/>
      <point x="432.607" y="38.2141" type="curve" smooth="yes"/>
    </contour>
  </outline>
</glyph>
<glyph name="parenleft" format="1">
  <advance width="423"/>
  <unicode hex="0028"/>
  <outline>
    <contour>
      <point x="387.521" y="732" type="line"/>
      <point x="192.249" y="699.887"/>
      <point x="89.298" y="536.36"/>
      <point x="90.0101" y="333.717" type="curve" smooth="yes"/>
      <point x="90.7305" y="139.892"/>
      <point x="193.169" y="-41"/>
      <point x="385.727" y="-100" type="curve"/>
      <point x="391.727" y="-91" type="line"/>
      <point x="302.902" y="-29"/>
      <point x="242.308" y="119.668"/>
      <point x="238.939" y="335.511" type="curve" smooth="yes"/>
      <point x="235.821" y="535.786"/>
      <point x="297.355" y="678.098"/>
      <point x="393.521" y="724" type="curve"/>
    </contour>
  </outline>
</glyph>
<glyph name="asterisk" format="1">
  <advance width="388"/>
  <unicode hex="002A"/>
  <outline>
    <contour>
      <point x="201.526" y="605.283" type="line"/>
      <point x="263.887" y="596.066" type="line"/>
      <point x="352.599" y="611.64" type="line"/>
      <point x="352.599" y="658.9" type="line"/>
      <point x="324.699" y="697.507" type="line"/>
      <point x="244.021" y="657.206" type="line"/>
      <point x="199.139" y="613.371" type="line"/>
      <point x="227.017" y="669.648" type="line"/>
      <point x="239.619" y="758.831" type="line"/>
      <point x="194.476" y="772.831" type="line"/>
      <point x="149.333" y="758.831" type="line"/>
      <point x="162.731" y="669.648" type="line"/>
      <point x="190.538" y="613.443" type="line"/>
      <point x="145.572" y="657.334" type="line"/>
      <point x="64.6478" y="696.878" type="line"/>
      <point x="37.3836" y="658.271" type="line"/>
      <point x="37.3836" y="611.011" type="line"/>
      <point x="125.707" y="596.194" type="line"/>
      <point x="187.845" y="605.285" type="line"/>
      <point x="132.141" y="576.127" type="line"/>
      <point x="69.525" y="511.384" type="line"/>
      <point x="97.8181" y="473.523" type="line"/>
      <point x="142.569" y="458.315" type="line"/>
      <point x="184.15" y="538.341" type="line"/>
      <point x="194.721" y="600.338" type="line"/>
      <point x="205.272" y="538.255" type="line"/>
      <point x="247.497" y="458.696" type="line"/>
      <point x="292.248" y="473.905" type="line"/>
      <point x="320.54" y="511.766" type="line"/>
      <point x="257.281" y="576.041" type="line"/>
    </contour>
  </outline>
</glyph>
<glyph name="zero" format="1">
  <advance width="688"/>
  <unicode hex="0030"/>
  <outline>
    <contour>
      <point x="158.643" y="614"/>
      <point x="43.929" y="493.847"/>
      <point x="43.929" y="300" type="curve" smooth="yes"/>
      <point x="43.929" y="106.153"/>
      <point x="158.643" y="-14"/>
      <point x="344.161" y="-14" type="curve" smooth="yes"/>
      <point x="529.68" y="-14"/>
      <point x="644.394" y="106.153"/>
      <point x="644.394" y="300" type="curve" smooth="yes"/>
      <point x="644.394" y="493.847"/>
      <point x="529.68" y="614"/>
      <point x="344.161" y="614" type="curve" smooth="yes"/>
    </contour>
    <contour>
      <point x="433.148" y="571.857"/>
      <point x="489.58" y="467.694"/>
      <point x="489.58" y="300" type="curve" smooth="yes"/>
      <point x="489.58" y="132.306"/>
      <point x="433.148" y="28.143"/>
      <point x="344.161" y="28.143" type="curve" smooth="yes"/>
      <point x="255.174" y="28.143"/>
      <point x="198.742" y="132.306"/>
      <point x="198.742" y="300" type="curve" smooth="yes"/>
      <point x="198.742" y="467.694"/>
      <point x="255.174" y="571.857"/>
      <point x="344.161" y="571.857" type="curve" smooth="yes"/>
    </contour>
  </outline>
</glyph>
<glyph name="one" format="1">
  <advance width="381"/>
  <unicode hex="0031"/>
  <outline>
    <contour>
      <point x="41.8311" y="9.979" type="line"/>
      <point x="41.6921" y="0" type="line"/>
      <point x="343.244" y="0" type="line"/>
      <point x="343.105" y="10" type="line"/>
      <point x="322.2" y="10" type="line" smooth="yes"/>
      <point x="292.275" y="9.949"/>
      <point x="267" y="33.75"/>
      <point x="267" y="63.45" type="curve" smooth="yes"/>
      <point x="267" y="536.871" type="line" smooth="yes"/>
      <point x="267.526" y="566.415"/>
      <point x="292.094" y="590.056"/>
      <point x="321.913" y="590.026" type="curve" smooth="yes"/>
      <point x="342.818" y="590.026" type="line"/>
      <point x="342.957" y="600.005" type="line"/>
      <point x="41.4051" y="600.005" type="line"/>
      <point x="41.5441" y="590.005" type="line"/>
      <point x="62.4491" y="590.005" type="line" smooth="yes"/>
      <point x="92.3741" y="590.056"/>
      <point x="117.649" y="566.255"/>
      <point x="117.649" y="536.555" type="curve" smooth="yes"/>
      <point x="117.649" y="64.102" type="line" smooth="yes"/>
      <point x="117.658" y="34.108"/>
      <point x="92.8801" y="9.949"/>
      <point x="62.7361" y="9.979" type="curve" smooth="yes"/>
    </contour>
  </outline>
</glyph>
<glyph name="two" format="1">
  <advance width="616"/>
  <unicode hex="0032"/>
  <outline>
    <contour>
      <point x="104.425" y="416.715" type="line"/>
      <point x="103.277" y="523.831"/>
      <point x="154.05" y="582.177"/>
      <point x="242.071" y="587" type="curve" smooth="yes"/>
      <point x="325.546" y="591.547"/>
      <point x="376.994" y="541.403"/>
      <point x="376.994" y="461.16" type="curve" smooth="yes"/>
      <point x="376.994" y="315.396"/>
      <point x="177.087" y="149.286"/>
      <point x="44.498" y="8.774" type="curve"/>
      <point x="44.498" y="0" type="line"/>
      <point x="523.571" y="0" type="line"/>
      <point x="583.62" y="216.798" type="line"/>
      <point x="573.57" y="216.798" type="line"/>
      <point x="538.215" y="155.073"/>
      <point x="503.499" y="129.133"/>
      <point x="443.772" y="129.133" type="curve" smooth="yes"/>
      <point x="236.68" y="129.133" type="line"/>
      <point x="336.122" y="191.158"/>
      <point x="537.044" y="301.984"/>
      <point x="537.044" y="448.068" type="curve" smooth="yes"/>
      <point x="537.044" y="559.927"/>
      <point x="427.514" y="626.451"/>
      <point x="276.457" y="626.451" type="curve" smooth="yes"/>
      <point x="192.249" y="626.451"/>
      <point x="97.4877" y="602.7"/>
      <point x="46.6987" y="560.527" type="curve"/>
      <point x="94.3757" y="416.715" type="line"/>
    </contour>
  </outline>
</glyph>
<glyph name="three" format="1">
  <advance width="563"/>
  <unicode hex="0033"/>
  <outline>
    <contour>
      <point x="83.8482" y="399.195" type="line"/>
      <point x="93.8482" y="399.195" type="line"/>
      <point x="90.0174" y="506.357"/>
      <point x="127.696" y="565.607"/>
      <point x="208.778" y="569.961" type="curve" smooth="yes"/>
      <point x="278.303" y="573.5"/>
      <point x="325.839" y="533.107"/>
      <point x="331.267" y="465" type="curve" smooth="yes"/>
      <point x="339.089" y="363.286"/>
      <point x="251.232" y="292.179"/>
      <point x="160.192" y="294.366" type="curve"/>
      <point x="158.369" y="284.366" type="line"/>
      <point x="257.375" y="283.393"/>
      <point x="351.267" y="235.643"/>
      <point x="351.408" y="117.022" type="curve" smooth="yes"/>
      <point x="351.267" y="-28"/>
      <point x="211.232" y="-126"/>
      <point x="49.196" y="-122" type="curve"/>
      <point x="47.196" y="-132" type="line"/>
      <point x="260.339" y="-206"/>
      <point x="511.267" y="-98"/>
      <point x="511.626" y="106.482" type="curve"/>
      <point x="511.32" y="226.838"/>
      <point x="425.65" y="281.812"/>
      <point x="349.23" y="295.634" type="curve"/>
      <point x="416.56" y="300.318"/>
      <point x="486.196" y="360.062"/>
      <point x="486.196" y="449.036" type="curve" smooth="yes"/>
      <point x="486.196" y="549.393"/>
      <point x="398.66" y="614.357"/>
      <point x="254.589" y="612" type="curve" smooth="yes"/>
      <point x="157.982" y="610.429"/>
      <point x="85.6602" y="580.643"/>
      <point x="42.2135" y="540.966" type="curve"/>
    </contour>
  </outline>
</glyph>
<glyph name="four" format="1">
  <advance width="619"/>
  <unicode hex="0034"/>
  <outline>
    <contour>
      <point x="560.476" y="112.334" type="line"/>
      <point x="587.547" y="229.834" type="line"/>
      <point x="577.547" y="229.834" type="line"/>
      <point x="565.547" y="209.021"/>
      <point x="553.671" y="197.692"/>
      <point x="516.833" y="197.692" type="curve" smooth="yes"/>
      <point x="473.325" y="197.692" type="line"/>
      <point x="473.325" y="614" type="line"/>
      <point x="463.96" y="614" type="line"/>
      <point x="6.60701" y="122.334" type="line"/>
      <point x="6.60701" y="112.334" type="line"/>
      <point x="323.325" y="112.334" type="line"/>
      <point x="323.325" y="-38" type="line"/>
      <point x="322.204" y="-68"/>
      <point x="297.596" y="-90"/>
      <point x="268.148" y="-90" type="curve" smooth="yes"/>
      <point x="257.243" y="-90" type="line"/>
      <point x="257.104" y="-100" type="line"/>
      <point x="539.565" y="-100" type="line"/>
      <point x="539.426" y="-90" type="line"/>
      <point x="528.521" y="-90" type="line" smooth="yes"/>
      <point x="498.809" y="-90"/>
      <point x="473.681" y="-66"/>
      <point x="473.325" y="-37" type="curve"/>
      <point x="473.325" y="112.334" type="line"/>
    </contour>
    <contour>
      <point x="138.622" y="197.692" type="line"/>
      <point x="323.325" y="394.965" type="line"/>
      <point x="323.325" y="197.692" type="line"/>
    </contour>
  </outline>
</glyph>
<glyph name="five" format="1">
  <advance width="555"/>
  <unicode hex="0035"/>
  <outline>
    <contour>
      <point x="481.815" y="635.071" type="line"/>
      <point x="471.815" y="635.071" type="line"/>
      <point x="456.48" y="605.172"/>
      <point x="434.121" y="585.071"/>
      <point x="392.419" y="585.071" type="curve"/>
      <point x="134.213" y="564" type="line"/>
      <point x="52.731" y="224.093" type="line"/>
      <point x="61.731" y="218.879" type="line"/>
      <point x="217.641" y="278.46"/>
      <point x="339.941" y="225.375"/>
      <point x="332.146" y="103.578" type="curve" smooth="yes"/>
      <point x="321.747" y="-59"/>
      <point x="112.464" y="-124"/>
      <point x="27.7143" y="-121" type="curve"/>
      <point x="25.7143" y="-131" type="line"/>
      <point x="170.716" y="-196"/>
      <point x="483.783" y="-128"/>
      <point x="494.575" y="117.473" type="curve" smooth="yes"/>
      <point x="502.102" y="289.078"/>
      <point x="356.288" y="388.299"/>
      <point x="134.809" y="334.538" type="curve"/>
      <point x="164.461" y="447.071" type="line"/>
      <point x="442.943" y="468.143" type="line"/>
    </contour>
  </outline>
</glyph>
<glyph name="six" format="1">
  <advance width="629"/>
  <unicode hex="0036"/>
  <outline>
    <contour>
      <point x="257.729" y="345.614" type="line"/>
      <point x="278.161" y="365.575"/>
      <point x="312.134" y="379.659"/>
      <point x="346.524" y="372.347" type="curve"/>
      <point x="397.932" y="365.302"/>
      <point x="429.36" y="320.31"/>
      <point x="429.958" y="211.535" type="curve" smooth="yes"/>
      <point x="430.531" y="118.929"/>
      <point x="405.486" y="33.2316"/>
      <point x="323.013" y="33.2316" type="curve" smooth="yes"/>
      <point x="237.692" y="33.2316"/>
      <point x="215.73" y="125.191"/>
      <point x="215.73" y="285.178" type="curve" smooth="yes"/>
      <point x="215.73" y="500.662"/>
      <point x="252.907" y="649.598"/>
      <point x="500.638" y="727.022" type="curve"/>
      <point x="496.99" y="734.431" type="line"/>
      <point x="195.424" y="748.946"/>
      <point x="50.86" y="552.27"/>
      <point x="49.8386" y="297.928" type="curve" smooth="yes"/>
      <point x="48.9365" y="87.5251"/>
      <point x="152.743" y="-18"/>
      <point x="324.667" y="-15" type="curve" smooth="yes"/>
      <point x="498.652" y="-12"/>
      <point x="584.371" y="97.0101"/>
      <point x="583.887" y="223.713" type="curve" smooth="yes"/>
      <point x="583.042" y="469.873"/>
      <point x="325.37" y="479.382"/>
      <point x="251.113" y="354.006" type="curve"/>
    </contour>
  </outline>
</glyph>
<glyph name="seven" format="1">
  <advance width="544"/>
  <unicode hex="0037"/>
  <outline>
    <contour>
      <point x="45.0039" y="598.125" type="line"/>
      <point x="523.294" y="598.125" type="line"/>
      <point x="403.536" y="306.231" type="line" smooth="yes"/>
      <point x="368.385" y="220.999"/>
      <point x="293.2" y="-3"/>
      <point x="267.441" y="-100" type="curve"/>
      <point x="136.727" y="-100" type="line"/>
      <point x="190.239" y="0.611992"/>
      <point x="298.771" y="216.032"/>
      <point x="340.94" y="314.053" type="curve" smooth="yes"/>
      <point x="407.102" y="472.143" type="line"/>
      <point x="101.754" y="472.143" type="line" smooth="yes"/>
      <point x="61.7705" y="472.143"/>
      <point x="41.5465" y="451.799"/>
      <point x="26.7856" y="412.143" type="curve"/>
      <point x="16.7857" y="412.143" type="line"/>
    </contour>
  </outline>
</glyph>
<glyph name="eight" format="1">
  <advance width="603"/>
  <unicode hex="0038"/>
  <outline>
    <contour>
      <point x="462.204" y="417.167"/>
      <point x="520.228" y="468.119"/>
      <point x="520.124" y="544.541" type="curve"/>
      <point x="520.249" y="648.51"/>
      <point x="419.374" y="714.786"/>
      <point x="299.071" y="714" type="curve" smooth="yes"/>
      <point x="170.535" y="713.214"/>
      <point x="79.0991" y="638.956"/>
      <point x="79.081" y="521.203" type="curve" smooth="yes"/>
      <point x="79.0929" y="435.704"/>
      <point x="127.066" y="379.143"/>
      <point x="183.384" y="338.386" type="curve"/>
      <point x="117.696" y="313.753"/>
      <point x="40.0423" y="266.757"/>
      <point x="38.8574" y="167.867" type="curve" smooth="yes"/>
      <point x="36.8931" y="36.1961"/>
      <point x="161.477" y="-14"/>
      <point x="289.545" y="-14" type="curve" smooth="yes"/>
      <point x="455.192" y="-14"/>
      <point x="564.143" y="60.844"/>
      <point x="564.156" y="190.373" type="curve"/>
      <point x="564.145" y="304.071"/>
      <point x="479.935" y="350.082"/>
      <point x="389.293" y="396.729" type="curve"/>
    </contour>
    <contour>
      <point x="356.194" y="669.429"/>
      <point x="388.601" y="622.679"/>
      <point x="389.982" y="557.878" type="curve" smooth="yes"/>
      <point x="391.169" y="514.738"/>
      <point x="379.424" y="456.122"/>
      <point x="345.935" y="419.273" type="curve"/>
      <point x="338.964" y="423.036" type="line" smooth="yes"/>
      <point x="243.703" y="474.77"/>
      <point x="208.349" y="511.388"/>
      <point x="208.331" y="571.303" type="curve"/>
      <point x="208.349" y="627.868"/>
      <point x="240.832" y="672.891"/>
      <point x="297.643" y="671.25" type="curve" smooth="yes"/>
    </contour>
    <contour>
      <point x="217.273" y="32.2527"/>
      <point x="170.378" y="88.0215"/>
      <point x="170.771" y="181.977" type="curve" smooth="yes"/>
      <point x="171.02" y="240.734"/>
      <point x="189.915" y="284.186"/>
      <point x="219.426" y="314.783" type="curve"/>
      <point x="236.545" y="304.547"/>
      <point x="253.67" y="295.446"/>
      <point x="269.786" y="287.143" type="curve" smooth="yes"/>
      <point x="368.691" y="236.3"/>
      <point x="422.779" y="203.112"/>
      <point x="422.793" y="136.548" type="curve" smooth="yes"/>
      <point x="422.779" y="75.1126"/>
      <point x="372.029" y="24.3297"/>
      <point x="294.607" y="28.1431" type="curve" smooth="yes"/>
    </contour>
  </outline>
</glyph>
<glyph name="nine" format="1">
  <advance width="629"/>
  <unicode hex="0039"/>
  <outline>
    <contour>
      <point x="372.148" y="250.779" type="line"/>
      <point x="351.595" y="230.607"/>
      <point x="317.679" y="216.926"/>
      <point x="283.607" y="223.929" type="curve"/>
      <point x="231.997" y="230.319"/>
      <point x="200.94" y="277.357"/>
      <point x="200.214" y="384.679" type="curve" smooth="yes"/>
      <point x="199.477" y="479.214"/>
      <point x="224.804" y="563.179"/>
      <point x="307.078" y="563.161" type="curve" smooth="yes"/>
      <point x="392.21" y="563.179"/>
      <point x="413.929" y="472.714"/>
      <point x="414.11" y="308.175" type="curve" smooth="yes"/>
      <point x="413.929" y="95.929"/>
      <point x="376.28" y="-56"/>
      <point x="129.341" y="-131" type="curve"/>
      <point x="132.987" y="-138" type="line"/>
      <point x="435.042" y="-155"/>
      <point x="580" y="46.679"/>
      <point x="580" y="297.893" type="curve" smooth="yes"/>
      <point x="580" y="509.607"/>
      <point x="478.665" y="613.987"/>
      <point x="305.464" y="611.393" type="curve" smooth="yes"/>
      <point x="136.519" y="608.773"/>
      <point x="47.1008" y="509.255"/>
      <point x="46.2857" y="372.5" type="curve" smooth="yes"/>
      <point x="43.977" y="129.755"/>
      <point x="305.749" y="116.25"/>
      <point x="378.762" y="242.386" type="curve"/>
    </contour>
  </outline>
</glyph>
<glyph name="colon" format="1">
  <advance width="222"/>
  <unicode hex="003A"/>
  <outline>
    <contour>
      <point x="151.192" y="372.51"/>
      <point x="183.571" y="404.818"/>
      <point x="183.571" y="444.76" type="curve" smooth="yes"/>
      <point x="183.571" y="484.702"/>
      <point x="151.192" y="517.081"/>
      <point x="111.25" y="517.081" type="curve" smooth="yes"/>
      <point x="71.3076" y="517.081"/>
      <point x="38.9286" y="484.702"/>
      <point x="38.9286" y="444.76" type="curve" smooth="yes"/>
      <point x="38.9286" y="404.818"/>
      <point x="71.3076" y="372.51"/>
      <point x="111.25" y="372.51" type="curve" smooth="yes"/>
    </contour>
    <contour>
      <point x="151.192" y="-10"/>
      <point x="183.571" y="22.3077"/>
      <point x="183.571" y="62.25" type="curve" smooth="yes"/>
      <point x="183.571" y="102.192"/>
      <point x="151.192" y="134.571"/>
      <point x="111.25" y="134.571" type="curve" smooth="yes"/>
      <point x="71.3076" y="134.571"/>
      <point x="38.9286" y="102.192"/>
      <point x="38.9286" y="62.25" type="curve" smooth="yes"/>
      <point x="38.9286" y="22.3077"/>
      <point x="71.3076" y="-10"/>
      <point x="111.25" y="-10" type="curve" smooth="yes"/>
    </contour>
  </outline>
</glyph>
<glyph name="greater" format="1">
  <advance width="481"/>
  <unicode hex="003E"/>
  <outline>
    <contour>
      <point x="40" y="525.074" type="line"/>
      <point x="40" y="463.11" type="line"/>
      <point x="362.006" y="309.973" type="line"/>
      <point x="40" y="156.397" type="line"/>
      <point x="40" y="94.4326" type="line"/>
      <point x="441.723" y="283.005" type="line"/>
      <point x="441.723" y="336.505" type="line"/>
    </contour>
  </outline>
</glyph>
<glyph name="question" format="1">
  <advance width="461"/>
  <unicode hex="003F"/>
  <outline>
    <contour>
      <point x="42.1429" y="518.087" type="line"/>
      <point x="52.1429" y="518.087" type="line"/>
      <point x="51.3571" y="620.652"/>
      <point x="93.0504" y="671.857"/>
      <point x="161.168" y="671.857" type="curve" smooth="yes"/>
      <point x="225.785" y="671.857"/>
      <point x="263.235" y="625.789"/>
      <point x="263.842" y="545.335" type="curve" smooth="yes"/>
      <point x="265.057" y="419.555"/>
      <point x="157.373" y="397.797"/>
      <point x="151.909" y="310.148" type="curve" smooth="yes"/>
      <point x="147.659" y="256.956"/>
      <point x="181.232" y="218.942"/>
      <point x="230.269" y="197.295" type="curve"/>
      <point x="238.101" y="202.885" type="line"/>
      <point x="210.104" y="250.862"/>
      <point x="236.674" y="278.652"/>
      <point x="265.102" y="309.603" type="curve" smooth="yes"/>
      <point x="336.53" y="390.938"/>
      <point x="423.842" y="436.776"/>
      <point x="423.842" y="539.87" type="curve" smooth="yes"/>
      <point x="423.842" y="649.489"/>
      <point x="343.018" y="714"/>
      <point x="200.025" y="714" type="curve" smooth="yes"/>
      <point x="108.029" y="714"/>
      <point x="37.9931" y="678.529"/>
      <point x="7.8571" y="624.954" type="curve"/>
    </contour>
    <contour>
      <point x="247.581" y="-10"/>
      <point x="279.781" y="22.1292"/>
      <point x="279.918" y="62.25" type="curve"/>
      <point x="279.781" y="102.371"/>
      <point x="247.581" y="134.571"/>
      <point x="208.067" y="134.571" type="curve" smooth="yes"/>
      <point x="167.946" y="134.571"/>
      <point x="135.138" y="102.371"/>
      <point x="135.275" y="62.25" type="curve" smooth="yes"/>
      <point x="135.138" y="22.1292"/>
      <point x="167.946" y="-10"/>
      <point x="208.067" y="-10" type="curve" smooth="yes"/>
    </contour>
  </outline>
</glyph>
<glyph name="at" format="1">
  <advance width="989"/>
  <unicode hex="0040"/>
  <outline>
    <contour>
      <point x="523.736" y="207.349" type="line"/>
      <point x="531.735" y="133.244" type="line" smooth="yes"/>
      <point x="534.704" y="105.742"/>
      <point x="506.019" y="90.121"/>
      <point x="490.113" y="90.121" type="curve" smooth="yes"/>
      <point x="483.153" y="90.121" type="line"/>
      <point x="481.85" y="82.726" type="line"/>
      <point x="688.893" y="82.726" type="line"/>
      <point x="690.208" y="90.188" type="line"/>
      <point x="685.096" y="90.188" type="line" smooth="yes"/>
      <point x="665.383" y="90.188"/>
      <point x="650.356" y="103.966"/>
      <point x="645.156" y="137.209" type="curve" smooth="yes"/>
      <point x="577.842" y="540.909" type="line"/>
      <point x="571.122" y="540.909" type="line"/>
      <point x="562.747" y="521.388"/>
      <point x="516.393" y="464.049"/>
      <point x="516.393" y="464.049" type="curve"/>
      <point x="389.349" y="291.002" type="line" smooth="yes"/>
      <point x="338.233" y="224.652"/>
      <point x="273.265" y="109.823"/>
      <point x="199.496" y="112.04" type="curve" smooth="yes"/>
      <point x="117.409" y="114.313"/>
      <point x="121.217" y="255.188"/>
      <point x="183.73" y="390.125" type="curve" smooth="yes"/>
      <point x="279.713" y="597.605"/>
      <point x="458.473" y="677.871"/>
      <point x="621.678" y="648.101" type="curve" smooth="yes"/>
      <point x="767.362" y="620.919"/>
      <point x="845.98" y="495.289"/>
      <point x="830.941" y="316.305" type="curve" smooth="yes"/>
      <point x="805.661" y="8.77267"/>
      <point x="541.035" y="-190"/>
      <point x="198.53" y="-53" type="curve"/>
      <point x="202.53" y="-63" type="line"/>
      <point x="648.249" y="-247"/>
      <point x="933.036" y="13.3377"/>
      <point x="950.584" y="312.055" type="curve" smooth="yes"/>
      <point x="962.207" y="502.804"/>
      <point x="848.992" y="657.484"/>
      <point x="625.321" y="687.816" type="curve" smooth="yes"/>
      <point x="374.987" y="721.329"/>
      <point x="148.489" y="597.536"/>
      <point x="64.0869" y="394.976" type="curve" smooth="yes"/>
      <point x="-11" y="214.218"/>
      <point x="72.9181" y="68.36"/>
      <point x="199.496" y="72.933" type="curve" smooth="yes"/>
      <point x="264.474" y="75.0858"/>
      <point x="310.665" y="118.105"/>
      <point x="377.279" y="207.349" type="curve"/>
    </contour>
    <contour>
      <point x="504.414" y="386.336" type="line"/>
      <point x="520.484" y="237.476" type="line"/>
      <point x="399.33" y="237.476" type="line"/>
    </contour>
  </outline>
</glyph>
<glyph name="A" format="1">
  <advance width="705"/>
  <unicode hex="0041"/>
  <outline>
    <contour>
      <point x="963.622" y="-173" type="line"/>
      <point x="781.801" y="-218"/>
      <point x="676.876" y="-6"/>
      <point x="611.882" y="155.212" type="curve" smooth="yes"/>
      <point x="466.572" y="513.397" type="line" smooth="yes"/>
      <point x="392.052" y="694.311"/>
      <point x="274.794" y="829.022"/>
      <point x="68.5376" y="721.692" type="curve"/>
      <point x="70.7898" y="711.588" type="line"/>
      <point x="181.835" y="752.071"/>
      <point x="244.141" y="669.607"/>
      <point x="287.417" y="572.804" type="curve"/>
      <point x="64.1224" y="64.487" type="line"/>
      <point x="42.8109" y="26.0951"/>
      <point x="8.97003" y="10"/>
      <point x="-19" y="10" type="curve" smooth="yes"/>
      <point x="-28" y="10" type="line"/>
      <point x="-28" y="0" type="line"/>
      <point x="186.421" y="0" type="line"/>
      <point x="186.421" y="9.9081" type="line"/>
      <point x="177.629" y="9.9081" type="line" smooth="yes"/>
      <point x="151.812" y="9.9081"/>
      <point x="122.966" y="32.6639"/>
      <point x="139.39" y="72.6813" type="curve" smooth="yes"/>
      <point x="191.609" y="199.393" type="line"/>
      <point x="428.399" y="199.393" type="line"/>
      <point x="460.376" y="114.099" type="line" smooth="yes"/>
      <point x="573.236" y="-182"/>
      <point x="790.438" y="-271"/>
      <point x="965.083" y="-183" type="curve"/>
    </contour>
    <contour>
      <point x="209.141" y="241.536" type="line"/>
      <point x="316.566" y="499.765" type="line"/>
      <point x="326.04" y="473.935"/>
      <point x="334.691" y="448.994"/>
      <point x="343.076" y="426.978" type="curve" smooth="yes"/>
      <point x="412.599" y="241.536" type="line"/>
    </contour>
    <contour>
      <point x="556.319" y="10" type="move" name="ogonek"/>
    </contour>
    <contour>
      <point x="343.682" y="780.071" type="move" name="top"/>
    </contour>
  </outline>
</glyph>
<glyph name="B" format="1">
  <advance width="691"/>
  <unicode hex="0042"/>
  <outline>
    <contour>
      <point x="52.3366" y="700.06" type="line"/>
      <point x="52.4982" y="690.103" type="line"/>
      <point x="65.1967" y="690.044" type="line" smooth="yes"/>
      <point x="98.6144" y="690.044"/>
      <point x="127.865" y="664.227"/>
      <point x="129.182" y="628.125" type="curve"/>
      <point x="129.182" y="78.7522" type="line"/>
      <point x="62.0999" y="121.479"/>
      <point x="11.2451" y="197.834"/>
      <point x="6.1238" y="325.144" type="curve"/>
      <point x="-4" y="323.762" type="line"/>
      <point x="-24" y="64.3567"/>
      <point x="148.125" y="-7"/>
      <point x="314.768" y="-14" type="curve" smooth="yes"/>
      <point x="516.554" y="-23"/>
      <point x="678.518" y="56.6067"/>
      <point x="676.697" y="206.643" type="curve" smooth="yes"/>
      <point x="675.482" y="316.321"/>
      <point x="590.661" y="387.393"/>
      <point x="481.402" y="392.821" type="curve"/>
      <point x="528.554" y="410.821"/>
      <point x="565.411" y="464.679"/>
      <point x="564.804" y="529.5" type="curve" smooth="yes"/>
      <point x="563.589" y="643.036"/>
      <point x="446.197" y="700"/>
      <point x="305.78" y="700" type="curve" smooth="yes"/>
    </contour>
    <contour>
      <point x="279.299" y="656.934" type="line"/>
      <point x="367.55" y="654.762"/>
      <point x="402.473" y="611.937"/>
      <point x="404.804" y="523.857" type="curve" smooth="yes"/>
      <point x="405.411" y="468"/>
      <point x="381.697" y="388.071"/>
      <point x="313" y="388.343" type="curve"/>
      <point x="313.229" y="378.972" type="line"/>
      <point x="396.232" y="379.071"/>
      <point x="501.518" y="343.786"/>
      <point x="504.554" y="216.5" type="curve" smooth="yes"/>
      <point x="507.589" y="104.429"/>
      <point x="432.339" y="31.7144"/>
      <point x="306.305" y="31.8988" type="curve" smooth="yes"/>
      <point x="297.392" y="31.8988"/>
      <point x="288.373" y="32.1843"/>
      <point x="279.299" y="32.7852" type="curve"/>
    </contour>
  </outline>
</glyph>
<glyph name="C" format="1">
  <advance width="826"/>
  <unicode hex="0043"/>
  <outline>
    <contour>
      <point x="798.819" y="391.243" type="line"/>
      <point x="804.089" y="157.349"/>
      <point x="668.024" y="28.1"/>
      <point x="478.435" y="28.1" type="curve" smooth="yes"/>
      <point x="293.5" y="31.7859"/>
      <point x="186.786" y="167.036"/>
      <point x="186.786" y="356.036" type="curve" smooth="yes"/>
      <point x="186.786" y="544.429"/>
      <point x="293.286" y="671.857"/>
      <point x="462.179" y="671.857" type="curve" smooth="yes"/>
      <point x="567.036" y="671.857"/>
      <point x="672.679" y="622"/>
      <point x="709.128" y="488.264" type="curve"/>
      <point x="717.451" y="488.232" type="line"/>
      <point x="715.489" y="659.825" type="line"/>
      <point x="657.607" y="690.036"/>
      <point x="563.107" y="714"/>
      <point x="458.75" y="714" type="curve" smooth="yes"/>
      <point x="197.464" y="714"/>
      <point x="23.75" y="565.893"/>
      <point x="23.75" y="347.964" type="curve" smooth="yes"/>
      <point x="23.75" y="137.321"/>
      <point x="186.321" y="-14"/>
      <point x="464.328" y="-14" type="curve" smooth="yes"/>
      <point x="682.978" y="-14"/>
      <point x="834.137" y="127.072"/>
      <point x="807.8" y="391.279" type="curve"/>
    </contour>
    <contour>
      <point x="448.146" y="764" type="move" name="top"/>
    </contour>
    <contour>
      <point x="457.792" y="-9.3879" type="move" name="bottom"/>
    </contour>
  </outline>
</glyph>
<glyph name="D" format="1">
  <advance width="862"/>
  <unicode hex="0044"/>
  <outline>
    <contour>
      <point x="-90" y="507.294" type="line"/>
      <point x="-56" y="579.764"/>
      <point x="-7" y="643.852"/>
      <point x="148.755" y="654.586" type="curve"/>
      <point x="148.755" y="69.6565" type="line"/>
      <point x="146.468" y="36.3339"/>
      <point x="118.756" y="10.0013"/>
      <point x="84.8421" y="10.0013" type="curve" smooth="yes"/>
      <point x="72.1921" y="10.022" type="line"/>
      <point x="72.0307" y="0.0219999" type="line"/>
      <point x="434.715" y="0.0343999" type="line" smooth="yes"/>
      <point x="670.694" y="0"/>
      <point x="818.338" y="133.881"/>
      <point x="818.142" y="349.922" type="curve"/>
      <point x="818.338" y="565.997"/>
      <point x="670.674" y="698.08"/>
      <point x="434.715" y="699.869" type="curve" smooth="yes"/>
      <point x="347.199" y="700.614"/>
      <point x="271.244" y="701.228"/>
      <point x="205.865" y="700.8" type="curve" smooth="yes"/>
      <point x="40.824" y="699.645"/>
      <point x="-67" y="648.417"/>
      <point x="-100" y="511.294" type="curve"/>
    </contour>
    <contour>
      <point x="298.876" y="656.443" type="line"/>
      <point x="422.572" y="657.557" type="line" smooth="yes"/>
      <point x="565.476" y="657.591"/>
      <point x="655.302" y="539.42"/>
      <point x="655.107" y="349.966" type="curve" smooth="yes"/>
      <point x="655.302" y="159.787"/>
      <point x="565.084" y="42.0716"/>
      <point x="422.572" y="42.3388" type="curve" smooth="yes"/>
      <point x="298.876" y="42.3454" type="line"/>
    </contour>
    <contour>
      <point x="369.31" y="350" type="move" name="center"/>
    </contour>
    <contour>
      <point x="442.704" y="764" type="move" name="top"/>
    </contour>
  </outline>
</glyph>
<glyph name="E" format="1">
  <advance width="670"/>
  <unicode hex="0045"/>
  <outline>
    <contour>
      <point x="659.631" y="204.043" type="line"/>
      <point x="628.626" y="104.806"/>
      <point x="563.783" y="42.735"/>
      <point x="463.891" y="42.735" type="curve" smooth="yes"/>
      <point x="268.687" y="42.735" type="line"/>
      <point x="268.687" y="324.147" type="line"/>
      <point x="428.962" y="324.147" type="line" smooth="yes"/>
      <point x="477.39" y="322.646"/>
      <point x="512.653" y="286.778"/>
      <point x="512.525" y="238.477" type="curve" smooth="yes"/>
      <point x="512.509" y="229.814" type="line"/>
      <point x="522.282" y="229.69" type="line"/>
      <point x="522.282" y="460.804" type="line"/>
      <point x="512.509" y="460.679" type="line"/>
      <point x="512.526" y="452.016" type="line" smooth="yes"/>
      <point x="512.663" y="403.309"/>
      <point x="476.834" y="367.245"/>
      <point x="427.725" y="366.319" type="curve" smooth="yes"/>
      <point x="268.687" y="366.289" type="line"/>
      <point x="268.687" y="657.266" type="line"/>
      <point x="334.78" y="657.266" type="line"/>
      <point x="394.76" y="654.763"/>
      <point x="432.595" y="615.437"/>
      <point x="432.479" y="555.248" type="curve" smooth="yes"/>
      <point x="432.46" y="543.496" type="line"/>
      <point x="442.56" y="543.346" type="line"/>
      <point x="442.56" y="660.075" type="line"/>
      <point x="442.511" y="688.91" type="line"/>
      <point x="442.525" y="718.187" type="line"/>
      <point x="423.966" y="710.365"/>
      <point x="366.394" y="700.407"/>
      <point x="323.295" y="700" type="curve" smooth="yes"/>
      <point x="41.9276" y="700.06" type="line"/>
      <point x="42.0896" y="690.06" type="line"/>
      <point x="54.7396" y="690.08" type="line" smooth="yes"/>
      <point x="88.6631" y="690.08"/>
      <point x="116.383" y="663.73"/>
      <point x="118.655" y="630.393" type="curve"/>
      <point x="118.655" y="72.8639" type="line" smooth="yes"/>
      <point x="117.996" y="38.0289"/>
      <point x="89.5985" y="9.97886"/>
      <point x="54.5965" y="9.97886" type="curve" smooth="yes"/>
      <point x="41.9465" y="9.99986" type="line"/>
      <point x="41.7855" y="0" type="line"/>
      <point x="623.486" y="0" type="line"/>
      <point x="669.631" y="204.043" type="line"/>
    </contour>
    <contour>
      <point x="574.104" y="3.99473" type="move" name="ogonek"/>
    </contour>
    <contour>
      <point x="343.194" y="0" type="move" name="bottom"/>
    </contour>
    <contour>
      <point x="266.968" y="764" type="move" name="top"/>
    </contour>
  </outline>
</glyph>
<glyph name="F" format="1">
  <advance width="657"/>
  <unicode hex="0046"/>
  <outline>
    <contour>
      <point x="642.116" y="460.679" type="line"/>
      <point x="642.133" y="452.016" type="line" smooth="yes"/>
      <point x="642.27" y="403.309"/>
      <point x="606.441" y="367.245"/>
      <point x="557.333" y="366.319" type="curve" smooth="yes"/>
      <point x="268.687" y="366.289" type="line"/>
      <point x="268.687" y="657.266" type="line"/>
      <point x="439.646" y="657.266" type="line" smooth="yes"/>
      <point x="498.155" y="655.328"/>
      <point x="534.763" y="617.664"/>
      <point x="534.647" y="559.265" type="curve" smooth="yes"/>
      <point x="534.629" y="548.727" type="line"/>
      <point x="544.689" y="548.587" type="line"/>
      <point x="544.689" y="659.842" type="line"/>
      <point x="544.654" y="688.91" type="line"/>
      <point x="544.668" y="718.187" type="line"/>
      <point x="526.11" y="710.366"/>
      <point x="468.538" y="700.407"/>
      <point x="425.438" y="700" type="curve" smooth="yes"/>
      <point x="41.9283" y="700.064" type="line"/>
      <point x="42.0903" y="690.064" type="line"/>
      <point x="54.7403" y="690.084" type="line" smooth="yes"/>
      <point x="88.6639" y="690.084"/>
      <point x="116.383" y="663.735"/>
      <point x="118.655" y="630.398" type="curve"/>
      <point x="118.655" y="72.8639" type="line" smooth="yes"/>
      <point x="117.996" y="38.0289"/>
      <point x="89.5988" y="9.97895"/>
      <point x="54.5968" y="9.97895" type="curve" smooth="yes"/>
      <point x="41.9468" y="9.99995" type="line"/>
      <point x="41.7858" y="0" type="line"/>
      <point x="345.581" y="0" type="line"/>
      <point x="345.42" y="9.99995" type="line"/>
      <point x="332.77" y="9.97895" type="line" smooth="yes"/>
      <point x="297.768" y="9.97895"/>
      <point x="269.371" y="38.0289"/>
      <point x="268.716" y="72.8639" type="curve" smooth="yes"/>
      <point x="268.687" y="324.147" type="line"/>
      <point x="558.57" y="324.147" type="line" smooth="yes"/>
      <point x="606.999" y="322.646"/>
      <point x="642.26" y="286.778"/>
      <point x="642.132" y="238.477" type="curve" smooth="yes"/>
      <point x="642.116" y="229.814" type="line"/>
      <point x="651.889" y="229.69" type="line"/>
      <point x="651.889" y="460.804" type="line"/>
    </contour>
  </outline>
</glyph>
<glyph name="H" format="1">
  <advance width="861"/>
  <unicode hex="0048"/>
  <outline>
    <contour>
      <point x="737.42" y="610" type="line"/>
      <point x="738.467" y="711.786"/>
      <point x="749.279" y="803.75"/>
      <point x="850.948" y="840.214" type="curve"/>
      <point x="848.984" y="849.821" type="line"/>
      <point x="690.789" y="871.321"/>
      <point x="588.502" y="762"/>
      <point x="588.253" y="610" type="curve" smooth="yes"/>
      <point x="588.253" y="369.523" type="line"/>
      <point x="273.243" y="369.523" type="line"/>
      <point x="273.243" y="628.333" type="line"/>
      <point x="274.735" y="663.788"/>
      <point x="303.253" y="690.031"/>
      <point x="337.258" y="690.08" type="curve" smooth="yes"/>
      <point x="349.908" y="690.06" type="line"/>
      <point x="350.07" y="700.06" type="line"/>
      <point x="46.3149" y="700.06" type="line"/>
      <point x="46.4769" y="690.06" type="line"/>
      <point x="59.2317" y="690.031" type="line" smooth="yes"/>
      <point x="93.9082" y="690.08"/>
      <point x="122.166" y="662.382"/>
      <point x="123.165" y="627.854" type="curve" smooth="yes"/>
      <point x="123.165" y="69.9999" type="line" smooth="yes"/>
      <point x="123.165" y="-38"/>
      <point x="110.668" y="-117"/>
      <point x="8.99986" y="-160" type="curve"/>
      <point x="10.9642" y="-170" type="line"/>
      <point x="195.872" y="-208"/>
      <point x="273.243" y="-82"/>
      <point x="273.243" y="69.9999" type="curve" smooth="yes"/>
      <point x="273.243" y="327.38" type="line"/>
      <point x="587.79" y="327.38" type="line"/>
      <point x="587.79" y="71.822" type="line"/>
      <point x="586.175" y="37.4717"/>
      <point x="557.997" y="9.97925"/>
      <point x="523.345" y="9.97925" type="curve" smooth="yes"/>
      <point x="510.695" y="9.99995" type="line"/>
      <point x="510.533" y="0" type="line"/>
      <point x="814.33" y="0" type="line"/>
      <point x="814.169" y="9.99995" type="line"/>
      <point x="801.519" y="9.97925" type="line" smooth="yes"/>
      <point x="765.512" y="9.99205"/>
      <point x="737.963" y="39.2261"/>
      <point x="737.465" y="72.864" type="curve" smooth="yes"/>
    </contour>
    <contour>
      <point x="437.955" y="350" type="move" name="center"/>
    </contour>
    <contour>
      <point x="437.955" y="738.857" type="move" name="top"/>
    </contour>
  </outline>
</glyph>
<glyph name="I" format="1">
  <advance width="456"/>
  <unicode hex="0049"/>
  <outline>
    <contour>
      <point x="338.963" y="616.146" type="line" smooth="yes"/>
      <point x="339.994" y="670.702"/>
      <point x="358.452" y="700.703"/>
      <point x="417.618" y="710.06" type="curve"/>
      <point x="415.78" y="720.06" type="line"/>
      <point x="321.041" y="702"/>
      <point x="162.288" y="700.37"/>
      <point x="97.2912" y="696" type="curve" smooth="yes"/>
      <point x="-6" y="689.036"/>
      <point x="-42" y="644.279"/>
      <point x="-44" y="594.929" type="curve" smooth="yes"/>
      <point x="-47" y="529.871"/>
      <point x="17.5174" y="489.214"/>
      <point x="76.1426" y="515.327" type="curve"/>
      <point x="76.11" y="521.134" type="line"/>
      <point x="24.113" y="518.679"/>
      <point x="-3" y="550.593"/>
      <point x="0" y="591.286" type="curve" smooth="yes"/>
      <point x="3.44601" y="634.071"/>
      <point x="36.613" y="652.154"/>
      <point x="94.0831" y="654.722" type="curve" smooth="yes"/>
      <point x="188.914" y="658.642" type="line"/>
      <point x="188.914" y="72.864" type="line" smooth="yes"/>
      <point x="188.251" y="38.029"/>
      <point x="159.854" y="9.97903"/>
      <point x="124.852" y="9.97903" type="curve" smooth="yes"/>
      <point x="112.202" y="10" type="line"/>
      <point x="112.041" y="0" type="line"/>
      <point x="415.828" y="0" type="line"/>
      <point x="415.667" y="10" type="line"/>
      <point x="403.017" y="9.97903" type="line" smooth="yes"/>
      <point x="368.015" y="9.97903"/>
      <point x="339.618" y="38.029"/>
      <point x="338.963" y="72.864" type="curve"/>
    </contour>
    <contour>
      <point x="252.018" y="3" type="move" name="ogonek"/>
    </contour>
    <contour>
      <point x="263.24" y="764" type="move" name="top"/>
    </contour>
  </outline>
</glyph>
<glyph name="J" format="1">
  <advance width="390"/>
  <unicode hex="004A"/>
  <outline>
    <contour>
      <point x="44.9064" y="700.06" type="line"/>
      <point x="45.0684" y="690.06" type="line"/>
      <point x="57.7184" y="690.08" type="line" smooth="yes"/>
      <point x="92.7194" y="690.08"/>
      <point x="121.116" y="662.03"/>
      <point x="121.772" y="627.196" type="curve" smooth="yes"/>
      <point x="121.782" y="82.923" type="line" smooth="yes"/>
      <point x="121.782" y="-64"/>
      <point x="54.993" y="-176"/>
      <point x="-76" y="-151" type="curve"/>
      <point x="-79" y="-161" type="line"/>
      <point x="110.528" y="-263"/>
      <point x="271.984" y="-142"/>
      <point x="271.984" y="80.099" type="curve" smooth="yes"/>
      <point x="271.984" y="627.424" type="line" smooth="yes"/>
      <point x="272.759" y="662.152"/>
      <point x="301.108" y="690.08"/>
      <point x="336.033" y="690.08" type="curve" smooth="yes"/>
      <point x="348.683" y="690.06" type="line"/>
      <point x="348.845" y="700.06" type="line"/>
    </contour>
    <contour>
      <point x="194.071" y="738.857" type="move" name="top"/>
    </contour>
  </outline>
</glyph>
<glyph name="K" format="1">
  <advance width="761"/>
  <unicode hex="004B"/>
  <outline>
    <contour>
      <point x="268.708" y="627.818" type="line" smooth="yes"/>
      <point x="269.686" y="662.363"/>
      <point x="297.953" y="690.08"/>
      <point x="332.745" y="690.08" type="curve" smooth="yes"/>
      <point x="345.395" y="690.06" type="line"/>
      <point x="345.557" y="700.06" type="line"/>
      <point x="41.8017" y="700.06" type="line"/>
      <point x="41.9637" y="690.06" type="line"/>
      <point x="54.7181" y="690.031" type="line" smooth="yes"/>
      <point x="89.4778" y="690.08"/>
      <point x="117.789" y="662.25"/>
      <point x="118.659" y="627.606" type="curve" smooth="yes"/>
      <point x="118.659" y="72.8641" type="line" smooth="yes"/>
      <point x="117.996" y="38.0291"/>
      <point x="89.5986" y="9.9791"/>
      <point x="54.5966" y="9.9791" type="curve" smooth="yes"/>
      <point x="41.9466" y="10" type="line"/>
      <point x="41.7856" y="0" type="line"/>
      <point x="345.573" y="0" type="line"/>
      <point x="345.412" y="10" type="line"/>
      <point x="332.776" y="9.9919" type="line" smooth="yes"/>
      <point x="297.76" y="9.9791"/>
      <point x="269.363" y="38.0291"/>
      <point x="268.708" y="72.8641" type="curve"/>
    </contour>
    <contour>
      <point x="1046.6" y="-160" type="line"/>
      <point x="915.404" y="-153"/>
      <point x="818.228" y="-85"/>
      <point x="697.946" y="73.2891" type="curve" smooth="yes"/>
      <point x="425.946" y="411.262" type="line"/>
      <point x="620.803" y="642.639" type="line" smooth="yes"/>
      <point x="646.6" y="671.892"/>
      <point x="686.221" y="690.882"/>
      <point x="729.868" y="690.98" type="curve" smooth="yes"/>
      <point x="734.248" y="690.98" type="line"/>
      <point x="734.248" y="700" type="line"/>
      <point x="504.884" y="700" type="line"/>
      <point x="504.884" y="691.157" type="line"/>
      <point x="514.548" y="691.164" type="line" smooth="yes"/>
      <point x="542.175" y="691.164"/>
      <point x="555.178" y="665.949"/>
      <point x="538.342" y="643.547" type="curve" smooth="yes"/>
      <point x="300.863" y="329.968" type="line"/>
      <point x="564.49" y="6.0492" type="line" smooth="yes"/>
      <point x="729.508" y="-200"/>
      <point x="884.808" y="-254"/>
      <point x="1047.81" y="-170" type="curve"/>
    </contour>
    <contour>
      <point x="424.263" y="719.643" type="move" name="top"/>
    </contour>
    <contour>
      <point x="439.085" y="-25.1429" type="move" name="bottom"/>
    </contour>
  </outline>
</glyph>
<glyph name="L" format="1">
  <advance width="427"/>
  <unicode hex="004C"/>
  <outline>
    <contour>
      <point x="1022.06" y="-98" type="line"/>
      <point x="888.044" y="-184"/>
      <point x="628.989" y="-120"/>
      <point x="310.714" y="-16" type="curve" smooth="yes"/>
      <point x="278.59" y="-5"/>
      <point x="268.786" y="14.1071"/>
      <point x="268.692" y="46.7847" type="curve"/>
      <point x="268.692" y="627.149" type="line" smooth="yes"/>
      <point x="269.617" y="662.572"/>
      <point x="297.773" y="689.985"/>
      <point x="335.202" y="689.985" type="curve" smooth="yes"/>
      <point x="345.418" y="690.013" type="line"/>
      <point x="345.58" y="700.013" type="line"/>
      <point x="41.7857" y="700.013" type="line"/>
      <point x="41.9481" y="690.013" type="line"/>
      <point x="54.7119" y="689.985" type="line" smooth="yes"/>
      <point x="89.1051" y="689.985"/>
      <point x="117.868" y="662.572"/>
      <point x="118.652" y="627.149" type="curve" smooth="yes"/>
      <point x="118.652" y="72.8637" type="line" smooth="yes"/>
      <point x="117.786" y="36.9999"/>
      <point x="88.7857" y="9.99994"/>
      <point x="54.7857" y="9.99994" type="curve" smooth="yes"/>
      <point x="41.9527" y="9.99974" type="line"/>
      <point x="41.7917" y="0" type="line"/>
      <point x="140.196" y="0"/>
      <point x="214.789" y="-33"/>
      <point x="279.229" y="-64" type="curve" smooth="yes"/>
      <point x="477.476" y="-160"/>
      <point x="826.735" y="-386"/>
      <point x="1028.88" y="-106" type="curve"/>
    </contour>
    <contour>
      <point x="194.114" y="764" type="move" name="top"/>
    </contour>
    <contour>
      <point x="259.47" y="-112.429" type="move" name="bottom"/>
    </contour>
  </outline>
</glyph>
<glyph name="M" format="1">
  <advance width="968"/>
  <unicode hex="004D"/>
  <outline>
    <contour>
      <point x="798.737" y="713.696" type="line"/>
      <point x="789.596" y="713.696" type="line"/>
      <point x="499.739" y="214.8" type="line"/>
      <point x="300.123" y="589.931" type="line"/>
      <point x="225.301" y="718.791"/>
      <point x="86.6195" y="843.631"/>
      <point x="-96" y="766.38" type="curve"/>
      <point x="-94" y="756.38" type="line"/>
      <point x="15.563" y="766.547"/>
      <point x="107.443" y="635.071"/>
      <point x="158.026" y="544.723" type="curve"/>
      <point x="90.0965" y="68.444" type="line"/>
      <point x="82.7868" y="31.4402"/>
      <point x="52.364" y="9.99366"/>
      <point x="17.7716" y="9.99026" type="curve" smooth="yes"/>
      <point x="1.8054" y="9.99926" type="line"/>
      <point x="1.8054" y="0" type="line"/>
      <point x="210.904" y="0" type="line"/>
      <point x="210.904" y="9.44426" type="line"/>
      <point x="195.323" y="9.44426" type="line" smooth="yes"/>
      <point x="174.975" y="9.29676"/>
      <point x="153.573" y="29.6187"/>
      <point x="156.334" y="52.1441" type="curve" smooth="yes"/>
      <point x="205.414" y="452.518" type="line"/>
      <point x="453.7" y="-20" type="line"/>
      <point x="463.134" y="-20" type="line"/>
      <point x="464.491" y="28.601"/>
      <point x="501.701" y="90.5383"/>
      <point x="501.701" y="90.5383" type="curve"/>
      <point x="689.651" y="417.312" type="line"/>
      <point x="739.161" y="125.957" type="line" smooth="yes"/>
      <point x="790.263" y="-136"/>
      <point x="974.587" y="-237"/>
      <point x="1161.42" y="-181" type="curve"/>
      <point x="1161.42" y="-171" type="line"/>
      <point x="1007.53" y="-179"/>
      <point x="933.964" y="-47"/>
      <point x="903.412" y="126.08" type="curve" smooth="yes"/>
    </contour>
  </outline>
</glyph>
<glyph name="N" format="1">
  <advance width="865"/>
  <unicode hex="004E"/>
  <outline>
    <contour>
      <point x="1102.57" y="-132" type="line"/>
      <point x="943.024" y="-171"/>
      <point x="827.891" y="-16"/>
      <point x="770.719" y="45.1558" type="curve" smooth="yes"/>
      <point x="755.447" y="61.3792" type="line"/>
      <point x="755.447" y="630.256" type="line" smooth="yes"/>
      <point x="756.506" y="663.448"/>
      <point x="783.701" y="690.041"/>
      <point x="817.16" y="690.039" type="curve" smooth="yes"/>
      <point x="835.616" y="690.02" type="line"/>
      <point x="835.77" y="700.019" type="line"/>
      <point x="532.554" y="700.019" type="line"/>
      <point x="532.708" y="690.019" type="line"/>
      <point x="551.162" y="690.038" type="line" smooth="yes"/>
      <point x="584.9" y="690.042"/>
      <point x="612.265" y="663.005"/>
      <point x="612.896" y="629.431" type="curve" smooth="yes"/>
      <point x="612.923" y="212.752" type="line"/>
      <point x="165.576" y="688.012" type="line" smooth="yes"/>
      <point x="76.9993" y="782.348"/>
      <point x="-64" y="893.358"/>
      <point x="-214" y="805.686" type="curve"/>
      <point x="-210" y="795.852" type="line"/>
      <point x="-80" y="841.283"/>
      <point x="41.2462" y="711.592"/>
      <point x="110.166" y="632.295" type="curve"/>
      <point x="110.166" y="70.5444" type="line" smooth="yes"/>
      <point x="109.512" y="36.9924"/>
      <point x="82.1536" y="9.98061"/>
      <point x="48.4348" y="9.98061" type="curve" smooth="yes"/>
      <point x="29.9768" y="9.99961" type="line"/>
      <point x="29.8218" y="0" type="line"/>
      <point x="332.951" y="0" type="line"/>
      <point x="332.797" y="9.99961" type="line"/>
      <point x="314.336" y="9.98061" type="line" smooth="yes"/>
      <point x="280.693" y="9.98061"/>
      <point x="253.382" y="36.8746"/>
      <point x="252.607" y="70.3249" type="curve"/>
      <point x="252.607" y="478.916" type="line"/>
      <point x="726.551" y="-24" type="line" smooth="yes"/>
      <point x="818.501" y="-122"/>
      <point x="949.069" y="-219"/>
      <point x="1106.91" y="-142" type="curve"/>
    </contour>
    <contour>
      <point x="411.269" y="764" type="move" name="top"/>
    </contour>
    <contour>
      <point x="479.861" y="-64" type="move" name="bottom"/>
    </contour>
  </outline>
</glyph>
<glyph name="P" format="1">
  <advance width="705"/>
  <unicode hex="0050"/>
  <outline>
    <contour>
      <point x="45.6312" y="660.565" type="line"/>
      <point x="48.592" y="660.929"/>
      <point x="54.6432" y="661.929"/>
      <point x="61.4646" y="661.929" type="curve" smooth="yes"/>
      <point x="102.534" y="663.092"/>
      <point x="121.322" y="639.146"/>
      <point x="121.769" y="605.582" type="curve" smooth="yes"/>
      <point x="121.769" y="72.8641" type="line" smooth="yes"/>
      <point x="120.949" y="37.232"/>
      <point x="91.9222" y="9.98732"/>
      <point x="57.7067" y="9.98732" type="curve" smooth="yes"/>
      <point x="44.9824" y="10" type="line"/>
      <point x="44.8214" y="0" type="line"/>
      <point x="348.718" y="0" type="line"/>
      <point x="348.557" y="10" type="line"/>
      <point x="335.821" y="10" type="line" smooth="yes"/>
      <point x="301.658" y="9.98732"/>
      <point x="272.631" y="37.232"/>
      <point x="271.853" y="72.8641" type="curve"/>
      <point x="271.853" y="659.759" type="line"/>
      <point x="338.893" y="669.857" type="line" smooth="yes"/>
      <point x="437.574" y="682.758"/>
      <point x="505.447" y="628.683"/>
      <point x="509.107" y="514.25" type="curve" smooth="yes"/>
      <point x="512.269" y="415.383"/>
      <point x="465.821" y="357.429"/>
      <point x="415.929" y="344.036" type="curve" smooth="yes"/>
      <point x="378.679" y="333.821"/>
      <point x="332.929" y="344.143"/>
      <point x="318.099" y="380.221" type="curve"/>
      <point x="308.593" y="375.512" type="line"/>
      <point x="319.143" y="321.536"/>
      <point x="362.214" y="294.536"/>
      <point x="413.214" y="287" type="curve"/>
      <point x="529.643" y="263.036"/>
      <point x="674.306" y="344.714"/>
      <point x="669.107" y="510" type="curve" smooth="yes"/>
      <point x="663.595" y="678.432"/>
      <point x="512.607" y="734.821"/>
      <point x="340.464" y="713" type="curve" smooth="yes"/>
      <point x="271.429" y="704.571"/>
      <point x="165.393" y="679.321"/>
      <point x="44.2521" y="670.471" type="curve"/>
    </contour>
  </outline>
</glyph>
<glyph name="Q" format="1">
  <advance width="925"/>
  <unicode hex="0051"/>
  <outline>
    <contour>
      <point x="1564.29" y="-84" type="line"/>
      <point x="1445.84" y="-191"/>
      <point x="1176.45" y="-148"/>
      <point x="946" y="-98" type="curve" smooth="yes"/>
      <point x="824.93" y="-73"/>
      <point x="672.542" y="-37"/>
      <point x="549.057" y="-18" type="curve"/>
      <point x="719.29" y="7.2567"/>
      <point x="890.256" y="137.961"/>
      <point x="891.179" y="351.107" type="curve" smooth="yes"/>
      <point x="892.291" y="563.112"/>
      <point x="715.995" y="715.229"/>
      <point x="463.429" y="719" type="curve" smooth="yes"/>
      <point x="195.699" y="722.854"/>
      <point x="22.6789" y="562.808"/>
      <point x="22.6789" y="359.321" type="curve" smooth="yes"/>
      <point x="22.6789" y="196.536"/>
      <point x="138.821" y="77.2496"/>
      <point x="301.429" y="49.9996" type="curve" smooth="yes"/>
      <point x="411.821" y="31.9996"/>
      <point x="528.5" y="61.1782"/>
      <point x="529.595" y="205.147" type="curve"/>
      <point x="519.366" y="205.719" type="line"/>
      <point x="501.75" y="103.464"/>
      <point x="414.107" y="77.3571"/>
      <point x="347.679" y="87.4643" type="curve" smooth="yes"/>
      <point x="240.036" y="102.571"/>
      <point x="183.464" y="213.393"/>
      <point x="183.464" y="351" type="curve" smooth="yes"/>
      <point x="183.464" y="563.648"/>
      <point x="308.643" y="684.307"/>
      <point x="465.429" y="676.857" type="curve" smooth="yes"/>
      <point x="637.974" y="668.575"/>
      <point x="737.826" y="501.376"/>
      <point x="730.393" y="319.107" type="curve" smooth="yes"/>
      <point x="720.366" y="91.5936"/>
      <point x="563.556" y="-5"/>
      <point x="413.046" y="-4" type="curve" smooth="yes"/>
      <point x="411.017" y="-4" type="line"/>
      <point x="411.017" y="-14" type="line"/>
      <point x="517.649" y="-48"/>
      <point x="750.027" y="-159"/>
      <point x="876.679" y="-207" type="curve" smooth="yes"/>
      <point x="1192.59" y="-327"/>
      <point x="1507.95" y="-276"/>
      <point x="1569.93" y="-88" type="curve"/>
    </contour>
  </outline>
</glyph>
<glyph name="R" format="1">
  <advance width="731"/>
  <unicode hex="0052"/>
  <outline>
    <contour>
      <point x="45.402" y="700.133" type="line"/>
      <point x="45.4656" y="690.06" type="line"/>
      <point x="57.7476" y="690.031" type="line" smooth="yes"/>
      <point x="92.6342" y="689.917"/>
      <point x="121.031" y="662.03"/>
      <point x="121.687" y="627.196" type="curve" smooth="yes"/>
      <point x="121.716" y="72.4178" type="line" smooth="yes"/>
      <point x="120.731" y="37.0047"/>
      <point x="91.8042" y="9.98721"/>
      <point x="57.7317" y="9.98721" type="curve" smooth="yes"/>
      <point x="44.9747" y="9.99991" type="line"/>
      <point x="44.9114" y="0" type="line"/>
      <point x="348.927" y="0" type="line"/>
      <point x="348.766" y="9.99991" type="line"/>
      <point x="336.429" y="9.99991" type="line" smooth="yes"/>
      <point x="300.452" y="9.98721"/>
      <point x="272.603" y="38.8033"/>
      <point x="272.062" y="72.864" type="curve" smooth="yes"/>
      <point x="272.041" y="655.997" type="line"/>
      <point x="347.857" y="655.997" type="line" smooth="yes"/>
      <point x="420.143" y="655.857"/>
      <point x="480.393" y="605.857"/>
      <point x="484" y="516" type="curve" smooth="yes"/>
      <point x="485" y="492.679"/>
      <point x="482.214" y="477.321"/>
      <point x="480.429" y="467.536" type="curve" smooth="yes"/>
      <point x="462.714" y="375.536"/>
      <point x="383.786" y="353.344"/>
      <point x="335.964" y="352" type="curve"/>
      <point x="323.676" y="351.214"/>
      <point x="309.195" y="351.841"/>
      <point x="305.329" y="351.717" type="curve"/>
      <point x="305.329" y="342.34" type="line"/>
      <point x="323.643" y="337.571"/>
      <point x="341.245" y="313.297"/>
      <point x="360.571" y="282.464" type="curve"/>
      <point x="399.607" y="226.906"/>
      <point x="489.876" y="88.77"/>
      <point x="541.536" y="13.8211" type="curve" smooth="yes"/>
      <point x="714.107" y="-247"/>
      <point x="955.393" y="-234"/>
      <point x="1085.03" y="-170" type="curve"/>
      <point x="1085.03" y="-160" type="line"/>
      <point x="905.393" y="-158"/>
      <point x="792.25" y="-62"/>
      <point x="682.571" y="79.7141" type="curve" smooth="yes"/>
      <point x="595.071" y="188.393"/>
      <point x="542.393" y="274.321"/>
      <point x="451.583" y="322.606" type="curve"/>
      <point x="554.607" y="315.536"/>
      <point x="644" y="396.214"/>
      <point x="644" y="513.536" type="curve" smooth="yes"/>
      <point x="644" y="655.929"/>
      <point x="507.5" y="700.096"/>
      <point x="388.118" y="700.096" type="curve" smooth="yes"/>
    </contour>
    <contour>
      <point x="364.514" y="764" type="move" name="top"/>
    </contour>
    <contour>
      <point x="439.764" y="-58.5" type="move" name="bottom"/>
    </contour>
  </outline>
</glyph>
<glyph name="S" format="1">
  <advance width="623"/>
  <unicode hex="0053"/>
  <outline>
    <contour>
      <point x="281.241" y="482.735" type="line" smooth="yes"/>
      <point x="240.017" y="509.071"/>
      <point x="207.767" y="533.571"/>
      <point x="210.195" y="574.893" type="curve" smooth="yes"/>
      <point x="212.624" y="630.571"/>
      <point x="262.231" y="671.857"/>
      <point x="340.303" y="671.857" type="curve" smooth="yes"/>
      <point x="424.374" y="671.857"/>
      <point x="482.017" y="627.357"/>
      <point x="482.725" y="556.772" type="curve"/>
      <point x="492.354" y="556.772" type="line"/>
      <point x="504.609" y="703.765" type="line"/>
      <point x="442.886" y="703.765" type="line"/>
      <point x="396.486" y="709.664"/>
      <point x="336.926" y="714"/>
      <point x="305.124" y="714" type="curve" smooth="yes"/>
      <point x="176.945" y="714"/>
      <point x="103.195" y="639.929"/>
      <point x="95.3024" y="539.714" type="curve" smooth="yes"/>
      <point x="88.6238" y="468.5"/>
      <point x="119.445" y="406.393"/>
      <point x="192.761" y="359.499" type="curve" smooth="yes"/>
      <point x="362.672" y="245.879" type="line" smooth="yes"/>
      <point x="526.91" y="138.821"/>
      <point x="461.803" y="-52"/>
      <point x="277.232" y="-52" type="curve" smooth="yes"/>
      <point x="100.588" y="-52"/>
      <point x="-9" y="120.786"/>
      <point x="93.6411" y="283.774" type="curve"/>
      <point x="84.6411" y="290.774" type="line"/>
      <point x="-46" y="125.393"/>
      <point x="49.3381" y="-100"/>
      <point x="298.035" y="-100" type="curve" smooth="yes"/>
      <point x="589.838" y="-100"/>
      <point x="703.553" y="209.429"/>
      <point x="467.606" y="360.872" type="curve" smooth="yes"/>
    </contour>
    <contour>
      <point x="317.171" y="764" type="move" name="top"/>
    </contour>
    <contour>
      <point x="310.468" y="-98.6339" type="move" name="bottom"/>
    </contour>
  </outline>
</glyph>
<glyph name="T" format="1">
  <advance width="698"/>
  <unicode hex="0054"/>
  <outline>
    <contour>
      <point x="94.778" y="701" type="line" smooth="yes"/>
      <point x="-56" y="701"/>
      <point x="-130" y="567.741"/>
      <point x="-26" y="466.512" type="curve"/>
      <point x="-16" y="471.512" type="line"/>
      <point x="-78" y="575.273"/>
      <point x="-14" y="658.877"/>
      <point x="94.778" y="658.877" type="curve" smooth="yes"/>
      <point x="290.139" y="658.877" type="line"/>
      <point x="290.139" y="71.3144" type="line"/>
      <point x="288.618" y="37.1846"/>
      <point x="260.778" y="9.99148"/>
      <point x="226.136" y="9.97888" type="curve" smooth="yes"/>
      <point x="213.486" y="9.99988" type="line"/>
      <point x="213.325" y="0" type="line"/>
      <point x="517.243" y="0" type="line"/>
      <point x="517.082" y="9.99988" type="line"/>
      <point x="504.417" y="9.99168" type="line" smooth="yes"/>
      <point x="469.698" y="9.97898"/>
      <point x="441.469" y="37.6001"/>
      <point x="440.398" y="72.0633" type="curve"/>
      <point x="440.398" y="658.877" type="line"/>
      <point x="574.748" y="658.877" type="line" smooth="yes"/>
      <point x="636.092" y="657.315"/>
      <point x="674.919" y="617.752"/>
      <point x="674.802" y="556.78" type="curve" smooth="yes"/>
      <point x="674.783" y="545.027" type="line"/>
      <point x="684.87" y="544.877" type="line"/>
      <point x="684.87" y="719.179" type="line"/>
      <point x="666.419" y="711.403"/>
      <point x="609.403" y="701.514"/>
      <point x="566.389" y="701" type="curve" smooth="yes"/>
    </contour>
    <contour>
      <point x="359.443" y="350" type="move" name="center"/>
    </contour>
    <contour>
      <point x="365.515" y="0" type="move" name="bottom"/>
    </contour>
    <contour>
      <point x="365.515" y="738.857" type="move" name="top"/>
    </contour>
  </outline>
</glyph>
<glyph name="V" format="1">
  <advance width="719"/>
  <unicode hex="0056"/>
  <outline>
    <contour>
      <point x="412.621" y="213.955" type="line"/>
      <point x="243.23" y="627.461" type="line"/>
      <point x="229.073" y="667.479"/>
      <point x="255.852" y="690.115"/>
      <point x="281.668" y="690.115" type="curve" smooth="yes"/>
      <point x="290.46" y="690.115" type="line"/>
      <point x="290.46" y="700.06" type="line"/>
      <point x="-28" y="700.06" type="line"/>
      <point x="-28" y="690.023" type="line"/>
      <point x="-20" y="690.023" type="line" smooth="yes"/>
      <point x="9.47429" y="690.023"/>
      <point x="43.607" y="673.211"/>
      <point x="65.2652" y="632.692" type="curve"/>
      <point x="368.297" y="-20" type="line"/>
      <point x="377.303" y="-20" type="line"/>
      <point x="379.731" y="9.03727"/>
      <point x="419.35" y="95.7258"/>
      <point x="426.484" y="110.938" type="curve" smooth="yes"/>
      <point x="694.342" y="696.942" type="line" smooth="yes"/>
      <point x="730.623" y="776.302"/>
      <point x="802.235" y="926.381"/>
      <point x="966.608" y="936.346" type="curve"/>
      <point x="966.608" y="946.346" type="line"/>
      <point x="756.778" y="966.403"/>
      <point x="659.17" y="789.776"/>
      <point x="619.585" y="696.942" type="curve" smooth="yes"/>
    </contour>
  </outline>
</glyph>
<glyph name="W" format="1">
  <advance width="960"/>
  <unicode hex="0057"/>
  <outline>
    <contour>
      <point x="736.461" y="275.816" type="line"/>
      <point x="537.37" y="715.32" type="line"/>
      <point x="528.056" y="715.642" type="line"/>
      <point x="346.559" y="280.636" type="line"/>
      <point x="223.585" y="627.51" type="line" smooth="yes"/>
      <point x="210.508" y="667.528"/>
      <point x="236.443" y="690.086"/>
      <point x="262.259" y="690.086" type="curve" smooth="yes"/>
      <point x="271.051" y="690.086" type="line"/>
      <point x="271.051" y="700" type="line"/>
      <point x="-34" y="700" type="line"/>
      <point x="-34" y="690" type="line"/>
      <point x="-26" y="690" type="line" smooth="yes"/>
      <point x="3.57507" y="690"/>
      <point x="41.5703" y="673.362"/>
      <point x="59.9046" y="632.348" type="curve"/>
      <point x="263.103" y="79.909" type="line"/>
      <point x="227.488" y="-5"/>
      <point x="142.631" y="-157"/>
      <point x="15.1564" y="-163" type="curve"/>
      <point x="14.3707" y="-173" type="line"/>
      <point x="164.457" y="-210"/>
      <point x="275.081" y="-57"/>
      <point x="313.546" y="41.4051" type="curve" smooth="yes"/>
      <point x="491.516" y="464.199" type="line"/>
      <point x="709.391" y="-18" type="line"/>
      <point x="718.827" y="-18" type="line"/>
      <point x="716.108" y="30.767"/>
      <point x="736.438" y="93.0847"/>
      <point x="736.438" y="93.0847" type="curve"/>
      <point x="924.421" y="679.38" type="line" smooth="yes"/>
      <point x="960.059" y="790.502"/>
      <point x="1036.1" y="924.532"/>
      <point x="1200.47" y="934.498" type="curve"/>
      <point x="1200.47" y="944.498" type="line"/>
      <point x="990.642" y="964.554"/>
      <point x="887.373" y="805.168"/>
      <point x="851.485" y="679.38" type="curve" smooth="yes"/>
    </contour>
    <contour>
      <point x="533.244" y="764" type="move" name="top"/>
    </contour>
  </outline>
</glyph>
<glyph name="X" format="1">
  <advance width="729"/>
  <unicode hex="0058"/>
  <outline>
    <contour>
      <point x="654.302" y="686.916" type="line" smooth="yes"/>
      <point x="701.89" y="754.71"/>
      <point x="764" y="850.149"/>
      <point x="856.438" y="851.991" type="curve"/>
      <point x="856.438" y="861.991" type="line"/>
      <point x="733.979" y="874.796"/>
      <point x="641.185" y="793.792"/>
      <point x="574.527" y="696.119" type="curve" smooth="yes"/>
      <point x="400.643" y="439.734" type="line"/>
      <point x="278.444" y="628.543" type="line"/>
      <point x="262.096" y="656.804"/>
      <point x="286.049" y="690.034"/>
      <point x="313.134" y="690.034" type="curve" smooth="yes"/>
      <point x="325.732" y="690.034" type="line"/>
      <point x="325.626" y="700" type="line"/>
      <point x="-14" y="700" type="line"/>
      <point x="-14" y="690.034" type="line"/>
      <point x="0.281779" y="690.034" type="line" smooth="yes"/>
      <point x="42.0754" y="690.034"/>
      <point x="80.3805" y="662.076"/>
      <point x="101.377" y="631.204" type="curve" smooth="yes"/>
      <point x="284.066" y="347.696" type="line"/>
      <point x="49.8571" y="24.299" type="line" smooth="yes"/>
      <point x="-9" y="-57"/>
      <point x="-63" y="-130"/>
      <point x="-173" y="-140" type="curve"/>
      <point x="-173" y="-150" type="line"/>
      <point x="-63" y="-168"/>
      <point x="34.3525" y="-121"/>
      <point x="128.693" y="12.1405" type="curve" smooth="yes"/>
      <point x="322.728" y="287.693" type="line"/>
      <point x="462.108" y="71.3815" type="line"/>
      <point x="478.911" y="43.0392"/>
      <point x="454.855" y="10"/>
      <point x="427.645" y="10" type="curve" smooth="yes"/>
      <point x="415.046" y="10" type="line"/>
      <point x="415.152" y="0" type="line"/>
      <point x="756.171" y="0" type="line"/>
      <point x="756.066" y="10" type="line"/>
      <point x="742.434" y="10" type="line" smooth="yes"/>
      <point x="700.446" y="10"/>
      <point x="662.036" y="37.442"/>
      <point x="641.036" y="68.3054" type="curve" smooth="yes"/>
      <point x="440.581" y="378.027" type="line"/>
    </contour>
  </outline>
</glyph>
<glyph name="Y" format="1">
  <advance width="667"/>
  <unicode hex="0059"/>
  <outline>
    <contour>
      <point x="-67" y="748.269" type="line"/>
      <point x="111.283" y="738.814"/>
      <point x="242.791" y="440.337"/>
      <point x="261.006" y="282.609" type="curve"/>
      <point x="261.006" y="72.5376" type="line" smooth="yes"/>
      <point x="260.22" y="37.8254"/>
      <point x="231.295" y="9.9999"/>
      <point x="197.401" y="9.9999" type="curve" smooth="yes"/>
      <point x="184.287" y="9.9999" type="line"/>
      <point x="184.126" y="0" type="line"/>
      <point x="487.873" y="0" type="line"/>
      <point x="487.712" y="9.9999" type="line"/>
      <point x="475.401" y="9.9999" type="line" smooth="yes"/>
      <point x="438.401" y="9.9999"/>
      <point x="411.401" y="39.9999"/>
      <point x="411.008" y="72.8639" type="curve" smooth="yes"/>
      <point x="410.995" y="281.923" type="line"/>
      <point x="423.137" y="435.181"/>
      <point x="567.086" y="744.778"/>
      <point x="708.093" y="748.269" type="curve"/>
      <point x="708.093" y="758.269" type="line"/>
      <point x="545.349" y="764.696"/>
      <point x="436.695" y="579.612"/>
      <point x="382.8" y="427.373" type="curve"/>
      <point x="319.282" y="601.766"/>
      <point x="177.278" y="774.696"/>
      <point x="-67" y="758.269" type="curve"/>
    </contour>
    <contour>
      <point x="351.601" y="764" type="move" name="top"/>
    </contour>
  </outline>
</glyph>
<glyph name="Z" format="1">
  <advance width="649"/>
  <unicode hex="005A"/>
  <outline>
    <contour>
      <point x="1049.28" y="-105" type="line"/>
      <point x="866.5" y="-177"/>
      <point x="618.264" y="-98"/>
      <point x="244.442" y="0.723396" type="curve" smooth="yes"/>
      <point x="214.472" y="8.4607" type="line"/>
      <point x="604.487" y="705.328" type="line"/>
      <point x="604.487" y="714" type="line"/>
      <point x="592.684" y="707.817"/>
      <point x="538.736" y="701.098"/>
      <point x="498.52" y="701.098" type="curve" smooth="yes"/>
      <point x="180.436" y="701.098" type="line" smooth="yes"/>
      <point x="137.718" y="700.895"/>
      <point x="78.096" y="711.109"/>
      <point x="59.1467" y="719.095" type="curve"/>
      <point x="59.1467" y="689.817" type="line"/>
      <point x="59.169" y="661.426" type="line"/>
      <point x="59.147" y="544.697" type="line"/>
      <point x="69.2333" y="544.847" type="line"/>
      <point x="69.2143" y="556.599" type="line" smooth="yes"/>
      <point x="69.0968" y="617.743"/>
      <point x="108.142" y="657.961"/>
      <point x="169.783" y="658.713" type="curve" smooth="yes"/>
      <point x="411.64" y="658.713" type="line"/>
      <point x="45.005" y="9.32208" type="line"/>
      <point x="44.8216" y="0.0315849" type="line"/>
      <point x="52.1064" y="0" type="line" smooth="yes"/>
      <point x="301.021" y="-4"/>
      <point x="788.013" y="-433"/>
      <point x="1056.1" y="-112" type="curve"/>
    </contour>
    <contour>
      <point x="330.679" y="764" type="move" name="top"/>
    </contour>
  </outline>
</glyph>
<glyph name="asciicircum" format="1">
  <advance width="552"/>
  <unicode hex="005E"/>
  <outline>
    <contour>
      <point x="245.126" y="376.707" type="line"/>
      <point x="310.013" y="376.707" type="line"/>
      <point x="518.17" y="175.811" type="line"/>
      <point x="439.539" y="175.811" type="line"/>
      <point x="277.538" y="329.348" type="line"/>
      <point x="113.713" y="175.811" type="line"/>
      <point x="35" y="175.811" type="line"/>
    </contour>
  </outline>
</glyph>
<glyph name="grave" format="1">
  <advance width="536"/>
  <unicode hex="0060"/>
  <outline>
    <contour>
      <point x="272.406" y="751.15" type="line"/>
      <point x="238.626" y="809.471"/>
      <point x="172.061" y="876.328"/>
      <point x="128.567" y="915.291" type="curve"/>
      <point x="93.0511" y="897.295"/>
      <point x="73.1075" y="870.227"/>
      <point x="60.8062" y="834.087" type="curve"/>
      <point x="120.303" y="796.251"/>
      <point x="199.837" y="759.593"/>
      <point x="265.406" y="744.15" type="curve"/>
    </contour>
    <contour>
      <point x="253.32" y="744.207" type="move" name="_top"/>
    </contour>
  </outline>
</glyph>
<glyph name="a" format="1">
  <advance width="716"/>
  <unicode hex="0061"/>
  <outline>
    <contour>
      <point x="354.557" y="720.071" type="line"/>
      <point x="345.551" y="720.071" type="line"/>
      <point x="343.122" y="690.963"/>
      <point x="303.504" y="604.274"/>
      <point x="296.369" y="589.062" type="curve" smooth="yes"/>
      <point x="65.1316" y="66.3396" type="line"/>
      <point x="43.8909" y="26.6121"/>
      <point x="9.41561" y="9.99997"/>
      <point x="-19" y="9.99997" type="curve" smooth="yes"/>
      <point x="-28" y="9.99997" type="line"/>
      <point x="-28" y="0" type="line"/>
      <point x="186.421" y="0" type="line"/>
      <point x="186.421" y="9.90797" type="line"/>
      <point x="177.629" y="9.90797" type="line" smooth="yes"/>
      <point x="151.812" y="9.90797"/>
      <point x="122.966" y="32.664"/>
      <point x="139.39" y="72.681" type="curve" smooth="yes"/>
      <point x="190.551" y="196.25" type="line"/>
      <point x="425.214" y="196.25" type="line"/>
      <point x="474.44" y="72.6821" type="line" smooth="yes"/>
      <point x="489.697" y="32.664"/>
      <point x="461.61" y="9.91097"/>
      <point x="435.794" y="9.91097" type="curve" smooth="yes"/>
      <point x="427.002" y="9.91097" type="line"/>
      <point x="427.002" y="0" type="line"/>
      <point x="745.607" y="0" type="line"/>
      <point x="745.607" y="9.99997" type="line"/>
      <point x="737.244" y="9.99997" type="line" smooth="yes"/>
      <point x="707.774" y="9.99997"/>
      <point x="673.545" y="27.0725"/>
      <point x="651.907" y="67.993" type="curve"/>
    </contour>
    <contour>
      <point x="208.137" y="238.393" type="line"/>
      <point x="310.605" y="483.943" type="line"/>
      <point x="408.425" y="238.393" type="line"/>
    </contour>
    <contour>
      <point x="532.001" y="10.1141" type="move" name="ogonek"/>
    </contour>
    <contour>
      <point x="352.488" y="764" type="move" name="top"/>
    </contour>
  </outline>
</glyph>
<glyph name="b" format="1">
  <advance width="673"/>
  <unicode hex="0062"/>
  <outline>
    <contour>
      <point x="41.9254" y="700.06" type="line"/>
      <point x="42.0874" y="690.06" type="line"/>
      <point x="54.7857" y="690" type="line" smooth="yes"/>
      <point x="89.4708" y="690.079"/>
      <point x="117.7" y="662.458"/>
      <point x="118.771" y="627.994" type="curve" smooth="yes"/>
      <point x="118.771" y="72.2059" type="line" smooth="yes"/>
      <point x="117.773" y="37.6765"/>
      <point x="89.5147" y="9.97911"/>
      <point x="54.7344" y="9.97911" type="curve" smooth="yes"/>
      <point x="42.0844" y="10" type="line"/>
      <point x="41.9224" y="0" type="line"/>
      <point x="358.426" y="0" type="line" smooth="yes"/>
      <point x="527.679" y="0"/>
      <point x="640.214" y="66.5001"/>
      <point x="639.91" y="195.182" type="curve"/>
      <point x="640.214" y="301.571"/>
      <point x="563.679" y="371.679"/>
      <point x="462.481" y="380.853" type="curve"/>
      <point x="525.214" y="388.5"/>
      <point x="585.286" y="437.071"/>
      <point x="585.458" y="528.731" type="curve"/>
      <point x="585.286" y="651.214"/>
      <point x="476.714" y="700"/>
      <point x="331.441" y="700" type="curve" smooth="yes"/>
    </contour>
    <contour>
      <point x="268.888" y="45.5772" type="line"/>
      <point x="268.888" y="656.918" type="line"/>
      <point x="297.465" y="656.918" type="line" smooth="yes"/>
      <point x="374.286" y="657.071"/>
      <point x="425.286" y="616.607"/>
      <point x="425.458" y="516.174" type="curve" smooth="yes"/>
      <point x="425.286" y="415.214"/>
      <point x="365.607" y="379"/>
      <point x="302.59" y="379.222" type="curve"/>
      <point x="302.818" y="369.81" type="line"/>
      <point x="391.893" y="370"/>
      <point x="468.071" y="324.357"/>
      <point x="467.767" y="207.427" type="curve" smooth="yes"/>
      <point x="468.071" y="94"/>
      <point x="404.214" y="45.1072"/>
      <point x="315.221" y="45.5772" type="curve" smooth="yes"/>
    </contour>
  </outline>
</glyph>
<glyph name="c" format="1">
  <advance width="780"/>
  <unicode hex="0063"/>
  <outline>
    <contour>
      <point x="713.542" y="291.85" type="line"/>
      <point x="682.403" y="95.225"/>
      <point x="604.389" y="28.2385"/>
      <point x="450.521" y="28.0716" type="curve" smooth="yes"/>
      <point x="301.608" y="32.0612"/>
      <point x="207.857" y="155.253"/>
      <point x="207.857" y="353.213" type="curve" smooth="yes"/>
      <point x="207.857" y="549.686"/>
      <point x="304.776" y="671.861"/>
      <point x="463.402" y="671.93" type="curve" smooth="yes"/>
      <point x="573.357" y="671.856"/>
      <point x="659.214" y="619.57"/>
      <point x="695.664" y="488.263" type="curve"/>
      <point x="703.987" y="488.231" type="line"/>
      <point x="702.025" y="659.824" type="line"/>
      <point x="645.321" y="689.249"/>
      <point x="559.857" y="713.999"/>
      <point x="453.357" y="713.999" type="curve" smooth="yes"/>
      <point x="199.357" y="713.999"/>
      <point x="44.821" y="574.678"/>
      <point x="44.821" y="350.999" type="curve" smooth="yes"/>
      <point x="44.821" y="122.713"/>
      <point x="204.964" y="-13"/>
      <point x="450.521" y="-14" type="curve" smooth="yes"/>
      <point x="601.528" y="-14"/>
      <point x="686.727" y="45.7635"/>
      <point x="731.532" y="119.758" type="curve"/>
      <point x="721.864" y="291.886" type="line"/>
    </contour>
    <contour>
      <point x="431.336" y="764" type="move" name="top"/>
    </contour>
    <contour>
      <point x="434.637" y="-10.8069" type="move" name="bottom"/>
    </contour>
  </outline>
</glyph>
<glyph name="d" format="1">
  <advance width="828"/>
  <unicode hex="0064"/>
  <outline>
    <contour>
      <point x="42.1367" y="700.06" type="line"/>
      <point x="42.2987" y="690.06" type="line"/>
      <point x="54.9487" y="690.08" type="line" smooth="yes"/>
      <point x="88.0296" y="690.08"/>
      <point x="115.211" y="665.023"/>
      <point x="118.648" y="632.864" type="curve"/>
      <point x="118.648" y="72.7277" type="line" smooth="yes"/>
      <point x="117.922" y="37.956"/>
      <point x="89.553" y="9.9792"/>
      <point x="54.5967" y="9.9792" type="curve" smooth="yes"/>
      <point x="41.9467" y="10" type="line"/>
      <point x="41.7857" y="0" type="line"/>
      <point x="404.607" y="0.0571978" type="line" smooth="yes"/>
      <point x="640.844" y="0.0571978"/>
      <point x="788.035" y="133.866"/>
      <point x="788.035" y="349.709" type="curve" smooth="yes"/>
      <point x="788.035" y="565.951"/>
      <point x="640.844" y="699.975"/>
      <point x="404.607" y="699.975" type="curve" smooth="yes"/>
    </contour>
    <contour>
      <point x="268.769" y="657.792" type="line"/>
      <point x="392.465" y="657.801" type="line" smooth="yes"/>
      <point x="535.408" y="657.801"/>
      <point x="624.999" y="539.772"/>
      <point x="624.999" y="349.709" type="curve" smooth="yes"/>
      <point x="624.999" y="160.242"/>
      <point x="535.801" y="42.5831"/>
      <point x="392.465" y="42.5831" type="curve" smooth="yes"/>
      <point x="268.769" y="42.592" type="line"/>
    </contour>
    <contour>
      <point x="348.992" y="295.981" type="move" name="center"/>
    </contour>
    <contour>
      <point x="413.498" y="764" type="move" name="top"/>
    </contour>
  </outline>
</glyph>
<glyph name="e" format="1">
  <advance width="631"/>
  <unicode hex="0065"/>
  <outline>
    <contour>
      <point x="595.702" y="204.043" type="line"/>
      <point x="564.698" y="104.806"/>
      <point x="499.854" y="42.7349"/>
      <point x="399.963" y="42.7349" type="curve" smooth="yes"/>
      <point x="268.687" y="42.7349" type="line"/>
      <point x="268.687" y="324.147" type="line"/>
      <point x="402.498" y="324.147" type="line" smooth="yes"/>
      <point x="450.927" y="322.646"/>
      <point x="486.188" y="286.778"/>
      <point x="486.061" y="238.477" type="curve" smooth="yes"/>
      <point x="486.045" y="229.814" type="line"/>
      <point x="495.818" y="229.69" type="line"/>
      <point x="495.818" y="460.804" type="line"/>
      <point x="486.045" y="460.679" type="line"/>
      <point x="486.062" y="452.016" type="line" smooth="yes"/>
      <point x="486.198" y="403.309"/>
      <point x="450.369" y="367.245"/>
      <point x="401.261" y="366.319" type="curve" smooth="yes"/>
      <point x="268.687" y="366.289" type="line"/>
      <point x="268.687" y="657.266" type="line"/>
      <point x="436.924" y="657.266" type="line"/>
      <point x="496.904" y="654.764"/>
      <point x="534.738" y="615.437"/>
      <point x="534.622" y="555.248" type="curve" smooth="yes"/>
      <point x="534.603" y="543.496" type="line"/>
      <point x="544.703" y="543.346" type="line"/>
      <point x="544.668" y="718.187" type="line"/>
      <point x="526.11" y="710.365"/>
      <point x="468.538" y="700.407"/>
      <point x="425.439" y="700" type="curve" smooth="yes"/>
      <point x="41.9281" y="700.06" type="line"/>
      <point x="42.0901" y="690.06" type="line"/>
      <point x="54.7401" y="690.08" type="line" smooth="yes"/>
      <point x="88.6635" y="690.08"/>
      <point x="116.383" y="663.73"/>
      <point x="118.655" y="630.393" type="curve"/>
      <point x="118.655" y="72.8639" type="line" smooth="yes"/>
      <point x="117.996" y="38.0289"/>
      <point x="89.5989" y="9.97888"/>
      <point x="54.5969" y="9.97888" type="curve" smooth="yes"/>
      <point x="41.9469" y="9.99988" type="line"/>
      <point x="41.7859" y="0" type="line"/>
      <point x="559.557" y="0" type="line"/>
      <point x="605.702" y="204.043" type="line"/>
    </contour>
    <contour>
      <point x="511.531" y="3.99789" type="move" name="ogonek"/>
    </contour>
    <contour>
      <point x="342.314" y="0" type="move" name="bottom"/>
    </contour>
    <contour>
      <point x="322.517" y="764" type="move" name="top"/>
    </contour>
  </outline>
</glyph>
<glyph name="i" format="1">
  <advance width="386"/>
  <unicode hex="0069"/>
  <outline>
    <contour>
      <point x="345.412" y="10" type="line"/>
      <point x="332.762" y="9.979" type="line" smooth="yes"/>
      <point x="297.76" y="9.979"/>
      <point x="269.363" y="38.029"/>
      <point x="268.708" y="72.864" type="curve"/>
      <point x="268.708" y="627.818" type="line" smooth="yes"/>
      <point x="269.686" y="662.363"/>
      <point x="297.953" y="690.08"/>
      <point x="332.745" y="690.08" type="curve" smooth="yes"/>
      <point x="345.395" y="690.06" type="line"/>
      <point x="345.557" y="700.06" type="line"/>
      <point x="41.8017" y="700.06" type="line"/>
      <point x="41.9637" y="690.06" type="line"/>
      <point x="54.6137" y="690.08" type="line" smooth="yes"/>
      <point x="89.4774" y="690.08"/>
      <point x="117.789" y="662.25"/>
      <point x="118.659" y="627.606" type="curve" smooth="yes"/>
      <point x="118.659" y="72.8641" type="line" smooth="yes"/>
      <point x="117.996" y="38.0291"/>
      <point x="89.5986" y="9.97908"/>
      <point x="54.5966" y="9.97908" type="curve" smooth="yes"/>
      <point x="41.9466" y="10" type="line"/>
      <point x="41.7856" y="0" type="line"/>
      <point x="345.573" y="0" type="line"/>
    </contour>
    <contour>
      <point x="127.529" y="1.82143" type="move" name="ogonek"/>
    </contour>
    <contour>
      <point x="126.472" y="463.857" type="move" name="top"/>
    </contour>
  </outline>
</glyph>
<glyph name="j" format="1">
  <advance width="384"/>
  <unicode hex="006A"/>
  <outline>
    <contour>
      <point x="44.9068" y="700.06" type="line"/>
      <point x="45.0688" y="690.06" type="line"/>
      <point x="57.7188" y="690.08" type="line" smooth="yes"/>
      <point x="92.7198" y="690.08"/>
      <point x="121.116" y="662.03"/>
      <point x="121.772" y="627.196" type="curve" smooth="yes"/>
      <point x="121.772" y="33.28" type="line" smooth="yes"/>
      <point x="121.782" y="-59"/>
      <point x="89.7243" y="-155"/>
      <point x="4.8214" y="-191" type="curve"/>
      <point x="4.8214" y="-200" type="line"/>
      <point x="143.593" y="-213"/>
      <point x="271.984" y="-117"/>
      <point x="271.984" y="30.4559" type="curve" smooth="yes"/>
      <point x="271.984" y="627.408" type="line" smooth="yes"/>
      <point x="272.751" y="662.143"/>
      <point x="301.103" y="690.08"/>
      <point x="336.033" y="690.08" type="curve" smooth="yes"/>
      <point x="348.683" y="690.06" type="line"/>
      <point x="348.845" y="700.06" type="line"/>
    </contour>
  </outline>
</glyph>
<glyph name="k" format="1">
  <advance width="756"/>
  <unicode hex="006B"/>
  <outline>
    <contour>
      <point x="268.708" y="627.818" type="line" smooth="yes"/>
      <point x="269.686" y="662.364"/>
      <point x="297.953" y="690.08"/>
      <point x="332.745" y="690.08" type="curve" smooth="yes"/>
      <point x="345.395" y="690.06" type="line"/>
      <point x="345.557" y="700.06" type="line"/>
      <point x="41.8017" y="700.06" type="line"/>
      <point x="41.9637" y="690.06" type="line"/>
      <point x="54.7181" y="690.031" type="line" smooth="yes"/>
      <point x="89.4778" y="690.08"/>
      <point x="117.789" y="662.25"/>
      <point x="118.659" y="627.606" type="curve" smooth="yes"/>
      <point x="118.659" y="72.8644" type="line" smooth="yes"/>
      <point x="117.996" y="38.0294"/>
      <point x="89.5986" y="9.97944"/>
      <point x="54.5966" y="9.97944" type="curve" smooth="yes"/>
      <point x="41.9466" y="10" type="line"/>
      <point x="41.7856" y="0" type="line"/>
      <point x="345.573" y="0" type="line"/>
      <point x="345.412" y="10" type="line"/>
      <point x="332.776" y="9.99214" type="line" smooth="yes"/>
      <point x="297.76" y="9.97944"/>
      <point x="269.363" y="38.0294"/>
      <point x="268.708" y="72.8644" type="curve"/>
    </contour>
    <contour>
      <point x="426.359" y="411.753" type="line"/>
      <point x="620.803" y="642.639" type="line" smooth="yes"/>
      <point x="646.6" y="671.892"/>
      <point x="686.221" y="690.883"/>
      <point x="729.868" y="690.98" type="curve" smooth="yes"/>
      <point x="734.248" y="690.98" type="line"/>
      <point x="734.248" y="700" type="line"/>
      <point x="504.884" y="700" type="line"/>
      <point x="504.884" y="691.157" type="line"/>
      <point x="514.548" y="691.164" type="line" smooth="yes"/>
      <point x="542.175" y="691.164"/>
      <point x="555.178" y="665.949"/>
      <point x="538.342" y="643.547" type="curve" smooth="yes"/>
      <point x="300.863" y="329.968" type="line"/>
      <point x="300.816" y="328.642"/>
      <point x="460.804" y="108.79"/>
      <point x="479.767" y="83.0204" type="curve" smooth="yes"/>
      <point x="545.168" y="-2"/>
      <point x="666.335" y="0.186934"/>
      <point x="694.714" y="0.131134" type="curve" smooth="yes"/>
      <point x="777.011" y="0.131134" type="line"/>
      <point x="777.011" y="10.0751" type="line"/>
      <point x="736.364" y="11.1101"/>
      <point x="705.475" y="31.6359"/>
      <point x="675.069" y="72.0244" type="curve" smooth="yes"/>
    </contour>
    <contour>
      <point x="282.321" y="425" type="move" name="top"/>
    </contour>
    <contour>
      <point x="440.188" y="-25.1429" type="move" name="bottom"/>
    </contour>
  </outline>
</glyph>
<glyph name="l" format="1">
  <advance width="616"/>
  <unicode hex="006C"/>
  <outline>
    <contour>
      <point x="595.708" y="204.042" type="line"/>
      <point x="564.704" y="104.805"/>
      <point x="499.86" y="42.7339"/>
      <point x="399.969" y="42.7339" type="curve" smooth="yes"/>
      <point x="268.692" y="42.7339" type="line"/>
      <point x="268.692" y="627.148" type="line" smooth="yes"/>
      <point x="269.37" y="661.982"/>
      <point x="297.767" y="690.032"/>
      <point x="332.768" y="690.032" type="curve" smooth="yes"/>
      <point x="345.418" y="690.012" type="line"/>
      <point x="345.58" y="700.012" type="line"/>
      <point x="41.7857" y="700.012" type="line"/>
      <point x="41.9483" y="690.012" type="line"/>
      <point x="54.5983" y="690.032" type="line" smooth="yes"/>
      <point x="89.5993" y="690.032"/>
      <point x="117.996" y="661.982"/>
      <point x="118.652" y="627.148" type="curve" smooth="yes"/>
      <point x="118.652" y="72.8631" type="line" smooth="yes"/>
      <point x="118.002" y="38.0281"/>
      <point x="89.6046" y="9.97806"/>
      <point x="54.6026" y="9.97806" type="curve" smooth="yes"/>
      <point x="41.9526" y="9.99906" type="line"/>
      <point x="41.7916" y="0" type="line"/>
      <point x="559.563" y="0" type="line"/>
      <point x="605.708" y="204.042" type="line"/>
    </contour>
    <contour>
      <point x="194.393" y="764" type="move" name="top"/>
    </contour>
    <contour>
      <point x="333.824" y="-64" type="move" name="bottom"/>
    </contour>
    <contour>
      <point x="431.56" y="500" type="move" name="topright"/>
    </contour>
  </outline>
</glyph>
<glyph name="m" format="1">
  <advance width="953"/>
  <unicode hex="006D"/>
  <outline>
    <contour>
      <point x="789.024" y="713.696" type="line"/>
      <point x="779.882" y="713.696" type="line"/>
      <point x="482.413" y="203.831" type="line"/>
      <point x="172.133" y="713.999" type="line"/>
      <point x="162.856" y="713.999" type="line"/>
      <point x="80.005" y="72.6443" type="line" smooth="yes"/>
      <point x="74.7963" y="33.1123"/>
      <point x="42.7923" y="9.99033"/>
      <point x="6.8431" y="9.99033" type="curve" smooth="yes"/>
      <point x="-9" y="9.99933" type="line"/>
      <point x="-9" y="0" type="line"/>
      <point x="200.285" y="0" type="line"/>
      <point x="200.285" y="9.44433" type="line"/>
      <point x="184.704" y="9.44433" type="line" smooth="yes"/>
      <point x="163.16" y="9.48933"/>
      <point x="143.358" y="30.6091"/>
      <point x="145.715" y="52.1443" type="curve" smooth="yes"/>
      <point x="185.103" y="412.005" type="line"/>
      <point x="442.421" y="-20" type="line"/>
      <point x="451.849" y="-20" type="line"/>
      <point x="453.205" y="28.6013"/>
      <point x="490.416" y="90.5386"/>
      <point x="490.416" y="90.5386" type="curve"/>
      <point x="677.729" y="414.484" type="line"/>
      <point x="717.289" y="52.1446" type="line" smooth="yes"/>
      <point x="719.64" y="30.609"/>
      <point x="699.844" y="9.48955"/>
      <point x="678.301" y="9.44455" type="curve" smooth="yes"/>
      <point x="662.719" y="9.44455" type="line"/>
      <point x="662.719" y="0" type="line"/>
      <point x="963.177" y="0" type="line"/>
      <point x="963.177" y="9.99955" type="line"/>
      <point x="947.26" y="9.99055" type="line" smooth="yes"/>
      <point x="911.51" y="9.99055"/>
      <point x="880.72" y="33.1126"/>
      <point x="874.377" y="72.6446" type="curve" smooth="yes"/>
    </contour>
  </outline>
</glyph>
<glyph name="n" format="1">
  <advance width="865"/>
  <unicode hex="006E"/>
  <outline>
    <contour>
      <point x="532.554" y="700.019" type="line"/>
      <point x="532.708" y="690.019" type="line"/>
      <point x="551.162" y="690.038" type="line" smooth="yes"/>
      <point x="584.9" y="690.042"/>
      <point x="612.265" y="663.005"/>
      <point x="612.896" y="629.431" type="curve" smooth="yes"/>
      <point x="612.923" y="234.053" type="line"/>
      <point x="108.39" y="715" type="line"/>
      <point x="98.529" y="714.991" type="line" smooth="yes"/>
      <point x="98.529" y="714.991"/>
      <point x="110.166" y="664.406"/>
      <point x="110.166" y="590.069" type="curve" smooth="yes"/>
      <point x="110.166" y="70.5442" type="line" smooth="yes"/>
      <point x="109.511" y="36.9925"/>
      <point x="82.1531" y="9.9811"/>
      <point x="48.4345" y="9.9811" type="curve" smooth="yes"/>
      <point x="29.9765" y="10" type="line"/>
      <point x="29.8215" y="0" type="line"/>
      <point x="332.951" y="0" type="line"/>
      <point x="332.797" y="10" type="line"/>
      <point x="314.336" y="9.9811" type="line" smooth="yes"/>
      <point x="280.693" y="9.9811"/>
      <point x="253.381" y="36.8751"/>
      <point x="252.607" y="70.3254" type="curve"/>
      <point x="252.607" y="467.138" type="line"/>
      <point x="757.915" y="-14" type="line"/>
      <point x="766.997" y="-14" type="line"/>
      <point x="766.997" y="-14"/>
      <point x="755.447" y="38.231"/>
      <point x="755.447" y="113.582" type="curve" smooth="yes"/>
      <point x="755.447" y="630.256" type="line" smooth="yes"/>
      <point x="756.506" y="663.448"/>
      <point x="783.701" y="690.043"/>
      <point x="817.16" y="690.039" type="curve" smooth="yes"/>
      <point x="835.616" y="690.02" type="line"/>
      <point x="835.77" y="700.019" type="line"/>
    </contour>
    <contour>
      <point x="417.341" y="764" type="move" name="top"/>
    </contour>
    <contour>
      <point x="475.611" y="-64" type="move" name="bottom"/>
    </contour>
  </outline>
</glyph>
<glyph name="o" format="1">
  <advance width="879"/>
  <unicode hex="006F"/>
  <outline>
    <contour>
      <point x="194.395" y="714"/>
      <point x="36.964" y="574.711"/>
      <point x="36.964" y="349.992" type="curve" smooth="yes"/>
      <point x="36.964" y="125.283"/>
      <point x="194.395" y="-14"/>
      <point x="440.218" y="-14" type="curve" smooth="yes"/>
      <point x="686.041" y="-14"/>
      <point x="843.472" y="125.283"/>
      <point x="843.472" y="349.992" type="curve" smooth="yes"/>
      <point x="843.472" y="574.711"/>
      <point x="686.041" y="714"/>
      <point x="440.218" y="714" type="curve" smooth="yes"/>
    </contour>
    <contour>
      <point x="293.594" y="28.068"/>
      <point x="201.349" y="151.389"/>
      <point x="201.349" y="349.992" type="curve" smooth="yes"/>
      <point x="201.349" y="548.605"/>
      <point x="293.594" y="671.932"/>
      <point x="440.218" y="671.932" type="curve" smooth="yes"/>
      <point x="586.842" y="671.932"/>
      <point x="679.087" y="548.605"/>
      <point x="679.087" y="349.992" type="curve" smooth="yes"/>
      <point x="679.087" y="151.389"/>
      <point x="586.842" y="28.068"/>
      <point x="440.218" y="28.068" type="curve" smooth="yes"/>
    </contour>
    <contour>
      <point x="440.611" y="772.5" type="move" name="top"/>
    </contour>
  </outline>
</glyph>
<glyph name="p" format="1">
  <advance width="655"/>
  <unicode hex="0070"/>
  <outline>
    <contour>
      <point x="45.1724" y="700.06" type="line"/>
      <point x="45.3344" y="690.06" type="line"/>
      <point x="57.8855" y="690.031" type="line" smooth="yes"/>
      <point x="91.2023" y="690.078"/>
      <point x="118.48" y="664.807"/>
      <point x="121.726" y="632.45" type="curve"/>
      <point x="121.726" y="72.864" type="line" smooth="yes"/>
      <point x="121.031" y="38.029"/>
      <point x="92.6345" y="9.97899"/>
      <point x="57.6325" y="9.97899" type="curve" smooth="yes"/>
      <point x="44.9825" y="10" type="line"/>
      <point x="44.8215" y="0" type="line"/>
      <point x="348.718" y="0" type="line"/>
      <point x="348.557" y="10" type="line"/>
      <point x="335.855" y="9.99179" type="line" smooth="yes"/>
      <point x="300.905" y="9.97899"/>
      <point x="272.508" y="38.029"/>
      <point x="271.853" y="72.864" type="curve"/>
      <point x="271.853" y="657.857" type="line"/>
      <point x="338.559" y="657.857" type="line" smooth="yes"/>
      <point x="418.579" y="657.857"/>
      <point x="464.468" y="602.231"/>
      <point x="467.272" y="516.969" type="curve" smooth="yes"/>
      <point x="468.115" y="497.962"/>
      <point x="465.897" y="474.52"/>
      <point x="461.118" y="456.845" type="curve" smooth="yes"/>
      <point x="426.39" y="330.756"/>
      <point x="305.295" y="343.483"/>
      <point x="305.922" y="342.795" type="curve"/>
      <point x="306.042" y="333.345" type="line"/>
      <point x="448.699" y="239.718"/>
      <point x="633.527" y="335.961"/>
      <point x="627.311" y="508.409" type="curve" smooth="yes"/>
      <point x="623.876" y="617.645"/>
      <point x="549.698" y="700"/>
      <point x="378.61" y="700" type="curve" smooth="yes"/>
    </contour>
  </outline>
</glyph>
<glyph name="q" format="1">
  <advance width="894"/>
  <unicode hex="0071"/>
  <outline>
    <contour>
      <point x="1351.25" y="-72" type="line"/>
      <point x="1240.27" y="-162"/>
      <point x="1068.05" y="-167"/>
      <point x="887.619" y="-98" type="curve" smooth="yes"/>
      <point x="757.135" y="-47"/>
      <point x="676.193" y="-16"/>
      <point x="585.222" y="2.7265" type="curve"/>
      <point x="750.37" y="45.988"/>
      <point x="850.436" y="170.841"/>
      <point x="850.436" y="349.992" type="curve" smooth="yes"/>
      <point x="850.436" y="574.711"/>
      <point x="693.006" y="714"/>
      <point x="447.182" y="714" type="curve" smooth="yes"/>
      <point x="201.359" y="714"/>
      <point x="43.929" y="574.711"/>
      <point x="43.929" y="349.992" type="curve" smooth="yes"/>
      <point x="43.929" y="128.938"/>
      <point x="196.279" y="-9"/>
      <point x="435.257" y="-14" type="curve"/>
      <point x="561.627" y="-26"/>
      <point x="678.073" y="-137"/>
      <point x="825.652" y="-212" type="curve" smooth="yes"/>
      <point x="1123.67" y="-362"/>
      <point x="1347.85" y="-232"/>
      <point x="1356.89" y="-76" type="curve"/>
    </contour>
    <contour>
      <point x="208.313" y="548.605"/>
      <point x="300.558" y="671.932"/>
      <point x="447.182" y="671.932" type="curve" smooth="yes"/>
      <point x="593.806" y="671.932"/>
      <point x="686.052" y="548.605"/>
      <point x="686.052" y="349.992" type="curve" smooth="yes"/>
      <point x="686.052" y="151.389"/>
      <point x="593.806" y="28.0681"/>
      <point x="447.182" y="28.0681" type="curve" smooth="yes"/>
      <point x="300.558" y="28.0681"/>
      <point x="208.313" y="151.389"/>
      <point x="208.313" y="349.992" type="curve" smooth="yes"/>
    </contour>
  </outline>
</glyph>
<glyph name="r" format="1">
  <advance width="746"/>
  <unicode hex="0072"/>
  <outline>
    <contour>
      <point x="44.8214" y="700.06" type="line"/>
      <point x="44.9834" y="690.06" type="line"/>
      <point x="57.7476" y="690.031" type="line" smooth="yes"/>
      <point x="92.6344" y="690.08"/>
      <point x="121.031" y="662.03"/>
      <point x="121.687" y="627.196" type="curve" smooth="yes"/>
      <point x="121.716" y="72.383" type="line" smooth="yes"/>
      <point x="120.81" y="37.7712"/>
      <point x="92.5141" y="9.97901"/>
      <point x="57.6734" y="9.97901" type="curve" smooth="yes"/>
      <point x="45.0234" y="10" type="line"/>
      <point x="44.8624" y="0" type="line"/>
      <point x="348.927" y="0" type="line"/>
      <point x="348.766" y="10" type="line"/>
      <point x="336.306" y="9.99181" type="line" smooth="yes"/>
      <point x="301.114" y="9.97901"/>
      <point x="272.717" y="38.029"/>
      <point x="272.062" y="72.864" type="curve" smooth="yes"/>
      <point x="272.041" y="656.231" type="line"/>
      <point x="284.599" y="655.926"/>
      <point x="321.39" y="657.036"/>
      <point x="347.906" y="655.892" type="curve" smooth="yes"/>
      <point x="413.583" y="654.288"/>
      <point x="461.853" y="611.495"/>
      <point x="465.856" y="515.858" type="curve" smooth="yes"/>
      <point x="466.698" y="495.713"/>
      <point x="464.483" y="479.625"/>
      <point x="462.142" y="467.442" type="curve" smooth="yes"/>
      <point x="444.316" y="379.846"/>
      <point x="389.633" y="352.402"/>
      <point x="335.864" y="351.847" type="curve" smooth="yes"/>
      <point x="305.329" y="351.717" type="line"/>
      <point x="305.329" y="342.34" type="line"/>
      <point x="331.275" y="337.884"/>
      <point x="354.273" y="316.989"/>
      <point x="373.04" y="274.946" type="curve"/>
      <point x="383.952" y="245.046"/>
      <point x="430.044" y="146.025"/>
      <point x="456.366" y="103.658" type="curve" smooth="yes"/>
      <point x="505.754" y="25.7664"/>
      <point x="581.85" y="0"/>
      <point x="691.241" y="0" type="curve" smooth="yes"/>
      <point x="788.603" y="0" type="line"/>
      <point x="788.603" y="10.0279" type="line"/>
      <point x="736.485" y="10.8035"/>
      <point x="707.979" y="30.9566"/>
      <point x="664.852" y="85.8604" type="curve" smooth="yes"/>
      <point x="627.178" y="132.827"/>
      <point x="567.201" y="227.939"/>
      <point x="564.166" y="232.796" type="curve" smooth="yes"/>
      <point x="541.979" y="267.833"/>
      <point x="504.403" y="307.55"/>
      <point x="462.163" y="321.391" type="curve"/>
      <point x="575.651" y="332.689"/>
      <point x="625.856" y="427.243"/>
      <point x="625.856" y="511.418" type="curve" smooth="yes"/>
      <point x="625.856" y="650.694"/>
      <point x="509.249" y="700"/>
      <point x="388.01" y="700" type="curve" smooth="yes"/>
    </contour>
    <contour>
      <point x="360.494" y="764" type="move" name="top"/>
    </contour>
    <contour>
      <point x="440.458" y="-64" type="move" name="bottom"/>
    </contour>
  </outline>
</glyph>
<glyph name="s" format="1">
  <advance width="578"/>
  <unicode hex="0073"/>
  <outline>
    <contour>
      <point x="251.089" y="482.711" type="line"/>
      <point x="208.526" y="507.821"/>
      <point x="178.981" y="536.296"/>
      <point x="181.409" y="575.679" type="curve" smooth="yes"/>
      <point x="183.838" y="629.367"/>
      <point x="233.569" y="671.857"/>
      <point x="312.302" y="671.857" type="curve" smooth="yes"/>
      <point x="396.89" y="671.857"/>
      <point x="453.133" y="626.179"/>
      <point x="453.287" y="556.748" type="curve"/>
      <point x="462.916" y="556.748" type="line"/>
      <point x="476.013" y="703.74" type="line"/>
      <point x="413.206" y="703.74" type="line"/>
      <point x="367.541" y="709.528"/>
      <point x="309.203" y="714"/>
      <point x="277.026" y="714" type="curve" smooth="yes"/>
      <point x="150.883" y="714"/>
      <point x="75.0165" y="642.47"/>
      <point x="66.5165" y="538.929" type="curve" smooth="yes"/>
      <point x="59.2308" y="466.042"/>
      <point x="90.7405" y="399.714"/>
      <point x="162.226" y="359.475" type="curve"/>
      <point x="336.475" y="243.854" type="line"/>
      <point x="392.669" y="213.321"/>
      <point x="416.481" y="181.14"/>
      <point x="416.418" y="140.575" type="curve" smooth="yes"/>
      <point x="416.481" y="77.9254"/>
      <point x="365.194" y="29.7358"/>
      <point x="278.231" y="28.1428" type="curve" smooth="yes"/>
      <point x="158.265" y="26.2001"/>
      <point x="81.6334" y="112.214"/>
      <point x="89.6518" y="216.476" type="curve"/>
      <point x="80.8598" y="216.476" type="line"/>
      <point x="54.6982" y="172.853"/>
      <point x="40.5968" y="88.5099"/>
      <point x="57.157" y="46.7103" type="curve"/>
      <point x="93.6333" y="9.10701"/>
      <point x="177.669" y="-14"/>
      <point x="267.348" y="-14" type="curve" smooth="yes"/>
      <point x="427.276" y="-14"/>
      <point x="525.481" y="62.7614"/>
      <point x="531.552" y="193.035" type="curve" smooth="yes"/>
      <point x="535.802" y="267.796"/>
      <point x="502.633" y="323.57"/>
      <point x="441.763" y="358.846" type="curve"/>
    </contour>
    <contour>
      <point x="291.449" y="764" type="move" name="top"/>
    </contour>
    <contour>
      <point x="285.617" y="-69.4643" type="move" name="bottom"/>
    </contour>
  </outline>
</glyph>
<glyph name="u" format="1">
  <advance width="821"/>
  <unicode hex="0075"/>
  <outline>
    <contour>
      <point x="580.539" y="700" type="line"/>
      <point x="580.539" y="690" type="line"/>
      <point x="596.834" y="690.017" type="line" smooth="yes"/>
      <point x="625.258" y="690.017"/>
      <point x="649.657" y="669.918"/>
      <point x="649.657" y="641.881" type="curve" smooth="yes"/>
      <point x="649.657" y="247.399" type="line" smooth="yes"/>
      <point x="649.379" y="113.101"/>
      <point x="573.204" y="29.6379"/>
      <point x="451.066" y="29.6379" type="curve" smooth="yes"/>
      <point x="331.43" y="29.6379"/>
      <point x="256.945" y="118.035"/>
      <point x="256.945" y="260.292" type="curve" smooth="yes"/>
      <point x="256.945" y="641.999" type="line"/>
      <point x="258.169" y="669.974"/>
      <point x="281.29" y="690.017"/>
      <point x="309.671" y="690.017" type="curve" smooth="yes"/>
      <point x="325.967" y="690" type="line"/>
      <point x="325.967" y="700" type="line"/>
      <point x="37.857" y="700" type="line"/>
      <point x="37.857" y="690" type="line"/>
      <point x="54.152" y="690.017" type="line" smooth="yes"/>
      <point x="83.04" y="690.017"/>
      <point x="106.476" y="669.255"/>
      <point x="107.018" y="640.499" type="curve" smooth="yes"/>
      <point x="107.035" y="251.667" type="line" smooth="yes"/>
      <point x="106.933" y="88.471"/>
      <point x="218.696" y="-14"/>
      <point x="432.852" y="-14" type="curve" smooth="yes"/>
      <point x="612.772" y="-14"/>
      <point x="720.608" y="89.078"/>
      <point x="720.616" y="253.411" type="curve" smooth="yes"/>
      <point x="720.616" y="642.79" type="line" smooth="yes"/>
      <point x="720.616" y="670.351"/>
      <point x="745.307" y="690.017"/>
      <point x="773.42" y="690.017" type="curve" smooth="yes"/>
      <point x="789.716" y="690" type="line"/>
      <point x="789.716" y="700" type="line"/>
    </contour>
    <contour>
      <point x="424.959" y="-7.60714" type="move" name="ogonek"/>
    </contour>
    <contour>
      <point x="451.034" y="764" type="move" name="top"/>
    </contour>
  </outline>
</glyph>
<glyph name="v" format="1">
  <advance width="727"/>
  <unicode hex="0076"/>
  <outline>
    <contour>
      <point x="541.721" y="700.06" type="line"/>
      <point x="541.721" y="690.116" type="line"/>
      <point x="550.513" y="690.116" type="line" smooth="yes"/>
      <point x="576.33" y="690.116"/>
      <point x="605.176" y="667.479"/>
      <point x="588.752" y="627.462" type="curve" smooth="yes"/>
      <point x="412.549" y="214.131" type="line"/>
      <point x="243.23" y="627.461" type="line"/>
      <point x="229.073" y="667.479"/>
      <point x="255.852" y="690.115"/>
      <point x="281.668" y="690.115" type="curve" smooth="yes"/>
      <point x="290.46" y="690.115" type="line"/>
      <point x="290.46" y="700.06" type="line"/>
      <point x="-28" y="700.06" type="line"/>
      <point x="-28" y="690.023" type="line"/>
      <point x="-20" y="690.023" type="line" smooth="yes"/>
      <point x="9.47421" y="690.023"/>
      <point x="43.6067" y="673.212"/>
      <point x="65.2649" y="632.693" type="curve"/>
      <point x="368.297" y="-20" type="line"/>
      <point x="377.303" y="-20" type="line"/>
      <point x="379.731" y="9.03729"/>
      <point x="419.35" y="95.7258"/>
      <point x="426.484" y="110.938" type="curve" smooth="yes"/>
      <point x="663.257" y="634.309" type="line"/>
      <point x="684.522" y="673.659"/>
      <point x="718.864" y="690.023"/>
      <point x="747.438" y="690.023" type="curve" smooth="yes"/>
      <point x="756.356" y="690.023" type="line"/>
      <point x="756.356" y="700.06" type="line"/>
    </contour>
  </outline>
</glyph>
<glyph name="w" format="1">
  <advance width="971"/>
  <unicode hex="0077"/>
  <outline>
    <contour>
      <point x="789.339" y="700" type="line"/>
      <point x="789.339" y="690.093" type="line"/>
      <point x="798.131" y="690.093" type="line" smooth="yes"/>
      <point x="825.948" y="690.093"/>
      <point x="847.126" y="667.849"/>
      <point x="836.131" y="627.831" type="curve" smooth="yes"/>
      <point x="736.353" y="276.052" type="line"/>
      <point x="537.369" y="715.32" type="line"/>
      <point x="528.056" y="715.642" type="line"/>
      <point x="346.605" y="280.506" type="line"/>
      <point x="223.585" y="627.509" type="line" smooth="yes"/>
      <point x="210.508" y="667.527"/>
      <point x="236.443" y="690.085"/>
      <point x="262.259" y="690.085" type="curve" smooth="yes"/>
      <point x="271.051" y="690.085" type="line"/>
      <point x="271.051" y="699.999" type="line"/>
      <point x="-34" y="699.999" type="line"/>
      <point x="-34" y="689.999" type="line"/>
      <point x="-26" y="689.999" type="line" smooth="yes"/>
      <point x="3.62812" y="689.999"/>
      <point x="41.7067" y="673.302"/>
      <point x="60.0031" y="632.127" type="curve"/>
      <point x="299.319" y="-18" type="line"/>
      <point x="308.755" y="-18" type="line"/>
      <point x="309.794" y="34.7204"/>
      <point x="333.359" y="93.0846"/>
      <point x="333.359" y="93.0846" type="curve"/>
      <point x="491.225" y="464.843" type="line"/>
      <point x="709.39" y="-18" type="line"/>
      <point x="718.826" y="-18" type="line"/>
      <point x="716.107" y="30.7669"/>
      <point x="736.437" y="93.0846"/>
      <point x="736.437" y="93.0846" type="curve"/>
      <point x="904.429" y="631.619" type="line"/>
      <point x="920.245" y="673.159"/>
      <point x="961.223" y="690"/>
      <point x="990.906" y="690" type="curve" smooth="yes"/>
      <point x="999.697" y="690" type="line"/>
      <point x="999.697" y="700" type="line"/>
    </contour>
    <contour>
      <point x="529.103" y="767.929" type="move" name="top"/>
    </contour>
  </outline>
</glyph>
<glyph name="x" format="1">
  <advance width="729"/>
  <unicode hex="0078"/>
  <outline>
    <contour>
      <point x="756.066" y="10" type="line"/>
      <point x="742.434" y="10" type="line" smooth="yes"/>
      <point x="700.446" y="10"/>
      <point x="662.036" y="37.4411"/>
      <point x="641.036" y="68.3042" type="curve" smooth="yes"/>
      <point x="439.922" y="379.044" type="line"/>
      <point x="610.189" y="631.801" type="line" smooth="yes"/>
      <point x="631.798" y="662.441"/>
      <point x="668.219" y="689.993"/>
      <point x="709.953" y="689.993" type="curve" smooth="yes"/>
      <point x="723.953" y="689.993" type="line"/>
      <point x="723.846" y="700.017" type="line"/>
      <point x="478.286" y="700.017" type="line"/>
      <point x="478.393" y="689.993" type="line"/>
      <point x="490.993" y="689.993" type="line" smooth="yes"/>
      <point x="518.266" y="689.993"/>
      <point x="542.75" y="656.326"/>
      <point x="525.711" y="627.94" type="curve" smooth="yes"/>
      <point x="403.202" y="435.781" type="line"/>
      <point x="278.446" y="628.54" type="line"/>
      <point x="262.094" y="656.801"/>
      <point x="286.048" y="690.034"/>
      <point x="313.134" y="690.034" type="curve" smooth="yes"/>
      <point x="325.732" y="690.034" type="line"/>
      <point x="325.626" y="700" type="line"/>
      <point x="-14" y="700" type="line"/>
      <point x="-14" y="690.034" type="line"/>
      <point x="0.28181" y="690.034" type="line" smooth="yes"/>
      <point x="42.0754" y="690.034"/>
      <point x="80.3805" y="662.076"/>
      <point x="101.377" y="631.204" type="curve" smooth="yes"/>
      <point x="285.931" y="344.801" type="line"/>
      <point x="88.9536" y="66.4676" type="line"/>
      <point x="66.1077" y="36.5557"/>
      <point x="30.8535" y="10.0149"/>
      <point x="-10" y="10.0149" type="curve" smooth="yes"/>
      <point x="-24" y="10.0149" type="line"/>
      <point x="-24" y="0.0572864" type="line"/>
      <point x="223.018" y="0.0572864" type="line"/>
      <point x="222.912" y="10.0149" type="line"/>
      <point x="210.312" y="10.0149" type="line" smooth="yes"/>
      <point x="183.038" y="10.0149"/>
      <point x="156.58" y="43.749"/>
      <point x="175.226" y="72.135" type="curve" smooth="yes"/>
      <point x="322.085" y="288.691" type="line"/>
      <point x="462.108" y="71.3814" type="line"/>
      <point x="478.911" y="43.039"/>
      <point x="454.855" y="10"/>
      <point x="427.645" y="10" type="curve" smooth="yes"/>
      <point x="415.046" y="10" type="line"/>
      <point x="415.152" y="0" type="line"/>
      <point x="756.171" y="0" type="line"/>
    </contour>
  </outline>
</glyph>
<glyph name="y" format="1">
  <advance width="702"/>
  <unicode hex="0079"/>
  <outline>
    <contour>
      <point x="495.794" y="700.017" type="line"/>
      <point x="495.794" y="689.993" type="line"/>
      <point x="508.394" y="689.993" type="line" smooth="yes"/>
      <point x="535.622" y="689.993"/>
      <point x="559.436" y="656.439"/>
      <point x="543.472" y="628.083" type="curve" smooth="yes"/>
      <point x="394.671" y="368.148" type="line"/>
      <point x="252.195" y="628.212" type="line" smooth="yes"/>
      <point x="237.721" y="656.543"/>
      <point x="258.142" y="690.034"/>
      <point x="287.326" y="690.034" type="curve" smooth="yes"/>
      <point x="299.925" y="690.034" type="line"/>
      <point x="299.925" y="700" type="line"/>
      <point x="-31" y="700" type="line"/>
      <point x="-31" y="690.034" type="line"/>
      <point x="-17" y="690.034" type="line" smooth="yes"/>
      <point x="23.7402" y="690.034"/>
      <point x="62.6773" y="662.933"/>
      <point x="82.2687" y="632.632" type="curve" smooth="yes"/>
      <point x="272.717" y="318.676" type="line"/>
      <point x="272.717" y="72.2768" type="line" smooth="yes"/>
      <point x="271.756" y="37.7144"/>
      <point x="243.482" y="9.97901"/>
      <point x="208.677" y="9.97901" type="curve" smooth="yes"/>
      <point x="196.027" y="10" type="line"/>
      <point x="195.866" y="0" type="line"/>
      <point x="499.614" y="0" type="line"/>
      <point x="499.453" y="10" type="line"/>
      <point x="486.803" y="9.97901" type="line" smooth="yes"/>
      <point x="451.801" y="9.97901"/>
      <point x="423.404" y="38.029"/>
      <point x="422.749" y="72.864" type="curve" smooth="yes"/>
      <point x="422.736" y="318.085" type="line"/>
      <point x="619.637" y="631.587" type="line" smooth="yes"/>
      <point x="640.363" y="662.313"/>
      <point x="678.354" y="689.993"/>
      <point x="720.185" y="689.993" type="curve" smooth="yes"/>
      <point x="734.185" y="689.993" type="line"/>
      <point x="734.185" y="700.017" type="line"/>
    </contour>
    <contour>
      <point x="399.049" y="764" type="move" name="top"/>
    </contour>
  </outline>
</glyph>
<glyph name="z" format="1">
  <advance width="660"/>
  <unicode hex="007A"/>
  <outline>
    <contour>
      <point x="623.238" y="201.254" type="line"/>
      <point x="596.894" y="104.479"/>
      <point x="531.072" y="41.9208"/>
      <point x="443.5" y="41.9208" type="curve" smooth="yes"/>
      <point x="233.501" y="41.877" type="line"/>
      <point x="604.487" y="705.328" type="line"/>
      <point x="604.487" y="714" type="line"/>
      <point x="592.684" y="707.817"/>
      <point x="538.736" y="701.098"/>
      <point x="498.52" y="701.098" type="curve" smooth="yes"/>
      <point x="180.435" y="701.098" type="line" smooth="yes"/>
      <point x="137.718" y="700.895"/>
      <point x="78.096" y="711.109"/>
      <point x="59.1467" y="719.095" type="curve"/>
      <point x="59.147" y="544.697" type="line"/>
      <point x="69.2333" y="544.847" type="line"/>
      <point x="69.2143" y="556.599" type="line" smooth="yes"/>
      <point x="69.0968" y="617.743"/>
      <point x="108.142" y="657.96"/>
      <point x="169.783" y="658.713" type="curve" smooth="yes"/>
      <point x="411.64" y="658.713" type="line"/>
      <point x="45.005" y="9.32206" type="line"/>
      <point x="44.821" y="0" type="line"/>
      <point x="596.966" y="0" type="line"/>
      <point x="633.238" y="201.254" type="line"/>
    </contour>
    <contour>
      <point x="330.679" y="764" type="move" name="top"/>
    </contour>
  </outline>
</glyph>
<glyph name="braceleft" format="1">
  <advance width="439"/>
  <unicode hex="007B"/>
  <outline>
    <contour>
      <point x="7.9" y="445.702" type="line"/>
      <point x="20.3411" y="380.821"/>
      <point x="69.8054" y="349.536"/>
      <point x="116.127" y="371.143" type="curve" smooth="yes"/>
      <point x="177.627" y="399.75"/>
      <point x="158.77" y="492.464"/>
      <point x="156.984" y="564" type="curve" smooth="yes"/>
      <point x="151.413" y="806.429"/>
      <point x="343.555" y="844.607"/>
      <point x="457.192" y="768.15" type="curve"/>
      <point x="452.219" y="760.688" type="line"/>
      <point x="302.591" y="799.607"/>
      <point x="309.305" y="689.536"/>
      <point x="305.805" y="571" type="curve" smooth="yes"/>
      <point x="299.484" y="433.821"/>
      <point x="255.948" y="365.429"/>
      <point x="157.198" y="342" type="curve" smooth="yes"/>
      <point x="103.198" y="328.321"/>
      <point x="18.3054" y="327.821"/>
      <point x="0.132993" y="442.688" type="curve"/>
    </contour>
    <contour>
      <point x="457.185" y="-134" type="line"/>
      <point x="340.02" y="-212"/>
      <point x="151.413" y="-169"/>
      <point x="156.984" y="69.72" type="curve" smooth="yes"/>
      <point x="158.77" y="140.863"/>
      <point x="177.627" y="233.97"/>
      <point x="116.127" y="262.577" type="curve" smooth="yes"/>
      <point x="70.1982" y="284.184"/>
      <point x="20.3411" y="253.291"/>
      <point x="7.723" y="188.103" type="curve"/>
      <point x="0.0806999" y="191.106" type="line"/>
      <point x="18.3054" y="305.505"/>
      <point x="102.413" y="305.791"/>
      <point x="157.198" y="291.72" type="curve" smooth="yes"/>
      <point x="259.091" y="266.72"/>
      <point x="298.698" y="195.577"/>
      <point x="305.413" y="62.72" type="curve" smooth="yes"/>
      <point x="308.913" y="-60"/>
      <point x="306.913" y="-165"/>
      <point x="452.218" y="-127" type="curve"/>
    </contour>
  </outline>
</glyph>
<glyph name="bar" format="1">
  <advance width="257"/>
  <unicode hex="007C"/>
  <outline>
    <contour>
      <point x="100" y="-180" type="line"/>
      <point x="157.143" y="-180" type="line"/>
      <point x="157.143" y="700" type="line"/>
      <point x="100" y="700" type="line"/>
    </contour>
  </outline>
</glyph>
<glyph name="braceright" format="1">
  <advance width="439"/>
  <unicode hex="007D"/>
  <outline>
    <contour>
      <point x="-17" y="768.15" type="line"/>
      <point x="97.03" y="844.607"/>
      <point x="289.173" y="806.429"/>
      <point x="283.601" y="564" type="curve" smooth="yes"/>
      <point x="281.816" y="492.464"/>
      <point x="262.958" y="399.75"/>
      <point x="324.458" y="371.143" type="curve" smooth="yes"/>
      <point x="370.78" y="349.536"/>
      <point x="420.244" y="380.821"/>
      <point x="432.519" y="445.702" type="curve"/>
      <point x="440.378" y="442.688" type="line"/>
      <point x="422.28" y="327.821"/>
      <point x="337.387" y="328.321"/>
      <point x="283.387" y="342" type="curve" smooth="yes"/>
      <point x="184.637" y="365.429"/>
      <point x="141.101" y="433.821"/>
      <point x="134.78" y="571" type="curve" smooth="yes"/>
      <point x="131.28" y="689.536"/>
      <point x="137.994" y="799.607"/>
      <point x="-12" y="760.688" type="curve"/>
    </contour>
    <contour>
      <point x="432.912" y="188.103" type="line"/>
      <point x="420.244" y="253.291"/>
      <point x="370.387" y="284.184"/>
      <point x="324.458" y="262.577" type="curve" smooth="yes"/>
      <point x="262.958" y="233.97"/>
      <point x="281.816" y="140.863"/>
      <point x="283.601" y="69.7197" type="curve" smooth="yes"/>
      <point x="289.173" y="-169"/>
      <point x="100.565" y="-212"/>
      <point x="-17" y="-134" type="curve"/>
      <point x="-12" y="-127" type="line"/>
      <point x="133.673" y="-165"/>
      <point x="131.673" y="-60"/>
      <point x="135.173" y="62.7197" type="curve" smooth="yes"/>
      <point x="141.887" y="195.577"/>
      <point x="181.494" y="266.72"/>
      <point x="283.387" y="291.72" type="curve" smooth="yes"/>
      <point x="338.173" y="305.791"/>
      <point x="422.28" y="305.505"/>
      <point x="440.378" y="191.106" type="curve"/>
    </contour>
  </outline>
</glyph>
<glyph name="asciitilde" format="1">
  <advance width="493"/>
  <unicode hex="007E"/>
  <outline>
    <contour>
      <point x="399.149" y="358.723" type="line"/>
      <point x="423.867" y="297.807"/>
      <point x="386.406" y="263.52"/>
      <point x="345.864" y="264.774" type="curve" smooth="yes"/>
      <point x="296.771" y="266.293"/>
      <point x="213.236" y="365.105"/>
      <point x="140.183" y="363.722" type="curve" smooth="yes"/>
      <point x="74.8292" y="362.485"/>
      <point x="14.317" y="312.661"/>
      <point x="35.0338" y="212.635" type="curve"/>
      <point x="92.4251" y="212.635" type="line"/>
      <point x="77.9704" y="282.05"/>
      <point x="104.999" y="308.233"/>
      <point x="140.013" y="306.587" type="curve" smooth="yes"/>
      <point x="196.671" y="303.925"/>
      <point x="273.533" y="207.635"/>
      <point x="345.676" y="207.635" type="curve" smooth="yes"/>
      <point x="415.118" y="207.635"/>
      <point x="485.082" y="254.903"/>
      <point x="457.752" y="358.723" type="curve"/>
    </contour>
  </outline>
</glyph>
<glyph name="cent" format="1">
  <advance width="587"/>
  <unicode hex="00A2"/>
  <outline>
    <contour>
      <point x="545.349" y="304.312" type="line"/>
      <point x="538.814" y="304.302" type="line"/>
      <point x="517.853" y="166.259"/>
      <point x="466.674" y="116.753"/>
      <point x="350.766" y="114.743" type="curve"/>
      <point x="388.759" y="576.825" type="line"/>
      <point x="452.144" y="568.157"/>
      <point x="502.663" y="532.407"/>
      <point x="527.377" y="440.561" type="curve"/>
      <point x="533.913" y="440.552" type="line"/>
      <point x="533.913" y="577.791" type="line"/>
      <point x="500.481" y="595.004"/>
      <point x="449.809" y="609.554"/>
      <point x="391.888" y="614.882" type="curve"/>
      <point x="398.86" y="699.677" type="line"/>
      <point x="358.015" y="700.726" type="line"/>
      <point x="351.291" y="617.011" type="line"/>
      <point x="149.738" y="617.097"/>
      <point x="28.75" y="518.45"/>
      <point x="28.75" y="347.215" type="curve" smooth="yes"/>
      <point x="28.75" y="189.045"/>
      <point x="136.482" y="90.8095"/>
      <point x="308.007" y="78.098" type="curve"/>
      <point x="301.252" y="-6" type="line"/>
      <point x="340.592" y="-9" type="line"/>
      <point x="347.64" y="76.7138" type="line"/>
      <point x="456.131" y="77.6314"/>
      <point x="523.634" y="119.871"/>
      <point x="555.978" y="174.028" type="curve"/>
    </contour>
    <contour>
      <point x="311.233" y="118.264" type="line"/>
      <point x="219.743" y="136.163"/>
      <point x="171.172" y="218.387"/>
      <point x="171.429" y="349.33" type="curve"/>
      <point x="171.147" y="492.38"/>
      <point x="228.534" y="576.812"/>
      <point x="348.238" y="578.999" type="curve"/>
    </contour>
    <contour>
      <point x="247.351" y="-5.36309" type="move" name="bottom"/>
    </contour>
  </outline>
</glyph>
<glyph name="sterling" format="1">
  <advance width="603"/>
  <unicode hex="00A3"/>
  <outline>
    <contour>
      <point x="579.155" y="195.831" type="line"/>
      <point x="523.473" y="84.071"/>
      <point x="422.83" y="51.9282"/>
      <point x="328.866" y="60.1425" type="curve" smooth="yes"/>
      <point x="256.351" y="66.2612"/>
      <point x="201.366" y="83.7496"/>
      <point x="148.307" y="65.8335" type="curve"/>
      <point x="221.172" y="96.6308"/>
      <point x="281.97" y="143.514"/>
      <point x="283.486" y="322.681" type="curve"/>
      <point x="446.584" y="322.681" type="line"/>
      <point x="464.309" y="370.685" type="line"/>
      <point x="282.586" y="370.685" type="line"/>
      <point x="282.294" y="377" type="line" smooth="yes"/>
      <point x="274.027" y="550.703"/>
      <point x="286.616" y="665.321"/>
      <point x="399.2" y="671.857" type="curve" smooth="yes"/>
      <point x="470.184" y="675.49"/>
      <point x="508.132" y="632.914"/>
      <point x="506.323" y="535.145" type="curve"/>
      <point x="516.323" y="535.145" type="line"/>
      <point x="555.815" y="656.702" type="line"/>
      <point x="527.687" y="692.607"/>
      <point x="464.937" y="720"/>
      <point x="376.866" y="714" type="curve" smooth="yes"/>
      <point x="179.685" y="700.231"/>
      <point x="124.338" y="551.952"/>
      <point x="130.307" y="370.685" type="curve"/>
      <point x="53.338" y="370.685" type="line"/>
      <point x="38.0412" y="322.681" type="line"/>
      <point x="130.69" y="322.681" type="line"/>
      <point x="127.515" y="152.224"/>
      <point x="75.7498" y="49.3347"/>
      <point x="40.8806" y="3.9201" type="curve"/>
      <point x="40.8806" y="-6" type="line"/>
      <point x="50.8806" y="-6" type="line"/>
      <point x="61.0442" y="4.7141"/>
      <point x="107.759" y="22.6069"/>
      <point x="125.866" y="23.9998" type="curve" smooth="yes"/>
      <point x="188.866" y="30.3212"/>
      <point x="237.866" y="3.9998"/>
      <point x="326.866" y="-8" type="curve" smooth="yes"/>
      <point x="379.866" y="-15"/>
      <point x="478.151" y="-6"/>
      <point x="543.723" y="23.9998" type="curve"/>
      <point x="589.155" y="195.831" type="line"/>
    </contour>
  </outline>
</glyph>
<glyph name="yen" format="1">
  <advance width="702"/>
  <unicode hex="00A5"/>
  <outline>
    <contour>
      <point x="495.795" y="700.017" type="line"/>
      <point x="495.795" y="689.993" type="line"/>
      <point x="508.395" y="689.993" type="line" smooth="yes"/>
      <point x="535.623" y="689.993"/>
      <point x="559.437" y="656.44"/>
      <point x="543.473" y="628.085" type="curve" smooth="yes"/>
      <point x="394.672" y="368.148" type="line"/>
      <point x="252.208" y="628.188" type="line" smooth="yes"/>
      <point x="237.711" y="656.524"/>
      <point x="258.135" y="690.034"/>
      <point x="287.327" y="690.034" type="curve" smooth="yes"/>
      <point x="299.926" y="690.034" type="line"/>
      <point x="299.926" y="700" type="line"/>
      <point x="-31" y="700" type="line"/>
      <point x="-31" y="690.034" type="line"/>
      <point x="-17" y="690.034" type="line" smooth="yes"/>
      <point x="23.7316" y="690.034"/>
      <point x="62.66" y="662.945"/>
      <point x="82.2559" y="632.653" type="curve" smooth="yes"/>
      <point x="210.659" y="420.98" type="line"/>
      <point x="100.234" y="420.98" type="line"/>
      <point x="100.234" y="378.838" type="line"/>
      <point x="236.223" y="378.838" type="line"/>
      <point x="272.732" y="318.653" type="line"/>
      <point x="272.732" y="307.052" type="line"/>
      <point x="100.234" y="307.052" type="line"/>
      <point x="100.234" y="264.909" type="line"/>
      <point x="272.732" y="264.909" type="line"/>
      <point x="272.732" y="72.8639" type="line" smooth="yes"/>
      <point x="272.077" y="38.0289"/>
      <point x="243.68" y="9.97892"/>
      <point x="208.678" y="9.97892" type="curve" smooth="yes"/>
      <point x="196.028" y="9.99992" type="line"/>
      <point x="195.867" y="0" type="line"/>
      <point x="499.615" y="0" type="line"/>
      <point x="499.454" y="9.99992" type="line"/>
      <point x="486.804" y="9.97892" type="line" smooth="yes"/>
      <point x="451.802" y="9.97892"/>
      <point x="423.405" y="38.0289"/>
      <point x="422.75" y="72.8639" type="curve"/>
      <point x="422.75" y="264.909" type="line"/>
      <point x="594.068" y="264.909" type="line"/>
      <point x="594.068" y="307.052" type="line"/>
      <point x="422.75" y="307.052" type="line"/>
      <point x="422.75" y="318.106" type="line"/>
      <point x="460.894" y="378.838" type="line"/>
      <point x="594.068" y="378.838" type="line"/>
      <point x="594.068" y="420.98" type="line"/>
      <point x="487.362" y="420.98" type="line"/>
      <point x="619.638" y="631.587" type="line" smooth="yes"/>
      <point x="640.364" y="662.313"/>
      <point x="678.355" y="689.993"/>
      <point x="720.186" y="689.993" type="curve" smooth="yes"/>
      <point x="734.186" y="689.993" type="line"/>
      <point x="734.186" y="700.017" type="line"/>
    </contour>
  </outline>
</glyph>
<glyph name="section" format="1">
  <advance width="526"/>
  <unicode hex="00A7"/>
  <outline>
    <contour>
      <point x="90.212" y="702.676"/>
      <point x="-84" y="397.848"/>
      <point x="158.343" y="159.964" type="curve" smooth="yes"/>
      <point x="292.933" y="28.442"/>
      <point x="359.281" y="-48"/>
      <point x="303.343" y="-91" type="curve" smooth="yes"/>
      <point x="224.175" y="-151"/>
      <point x="136.79" y="43.826"/>
      <point x="77.3434" y="-41" type="curve"/>
      <point x="35.3338" y="-95"/>
      <point x="111.984" y="-164"/>
      <point x="229.68" y="-156" type="curve" smooth="yes"/>
      <point x="473.828" y="-145"/>
      <point x="591.603" y="156.617"/>
      <point x="365.736" y="403.429" type="curve" smooth="yes"/>
      <point x="266.412" y="507.839"/>
      <point x="172.01" y="605.002"/>
      <point x="233.843" y="650.536" type="curve" smooth="yes"/>
      <point x="312.846" y="708.666"/>
      <point x="388.298" y="520.188"/>
      <point x="448.093" y="600.464" type="curve"/>
      <point x="488.426" y="649.877"/>
      <point x="426.318" y="720.807"/>
      <point x="310.086" y="712.857" type="curve" smooth="yes"/>
    </contour>
    <contour>
      <point x="139.408" y="474.688"/>
      <point x="172.071" y="426.393"/>
      <point x="285.343" y="310.321" type="curve" smooth="yes"/>
      <point x="398.86" y="194.908"/>
      <point x="444.893" y="92.988"/>
      <point x="385.424" y="-19" type="curve"/>
      <point x="403.269" y="72.5041"/>
      <point x="335.902" y="158.227"/>
      <point x="237.343" y="253.464" type="curve" smooth="yes"/>
      <point x="122.035" y="364.376"/>
      <point x="83.9501" y="458.989"/>
      <point x="142.966" y="582.916" type="curve"/>
    </contour>
  </outline>
</glyph>
<glyph name="copyright" format="1">
  <advance width="848"/>
  <unicode hex="00A9"/>
  <outline>
    <contour>
      <point x="222.966" y="714"/>
      <point x="60" y="551.034"/>
      <point x="60" y="350" type="curve" smooth="yes"/>
      <point x="60" y="148.966"/>
      <point x="222.966" y="-14"/>
      <point x="424" y="-14" type="curve" smooth="yes"/>
      <point x="625.034" y="-14"/>
      <point x="788" y="148.966"/>
      <point x="788" y="350" type="curve" smooth="yes"/>
      <point x="788" y="551.034"/>
      <point x="625.034" y="714"/>
      <point x="424" y="714" type="curve" smooth="yes"/>
    </contour>
    <contour>
      <point x="599.469" y="668.057"/>
      <point x="742.057" y="525.469"/>
      <point x="741.953" y="350" type="curve" smooth="yes"/>
      <point x="742.057" y="174.531"/>
      <point x="599.469" y="31.943"/>
      <point x="424" y="32.0476" type="curve" smooth="yes"/>
      <point x="248.531" y="31.943"/>
      <point x="105.943" y="174.531"/>
      <point x="106.047" y="350" type="curve"/>
      <point x="105.943" y="525.469"/>
      <point x="248.531" y="668.057"/>
      <point x="424" y="667.953" type="curve" smooth="yes"/>
    </contour>
    <contour>
      <point x="612.434" y="321.852" type="line"/>
      <point x="599.661" y="214.311"/>
      <point x="532.657" y="162.878"/>
      <point x="439.093" y="162.76" type="curve" smooth="yes"/>
      <point x="355.185" y="163.54"/>
      <point x="299.854" y="237.5"/>
      <point x="299.964" y="349.982" type="curve"/>
      <point x="299.854" y="463.54"/>
      <point x="354.45" y="537.713"/>
      <point x="437.114" y="537.779" type="curve" smooth="yes"/>
      <point x="518.969" y="537.848"/>
      <point x="574.786" y="493.045"/>
      <point x="601.906" y="417.641" type="curve"/>
      <point x="607.821" y="417.618" type="line"/>
      <point x="605.625" y="530.135" type="line"/>
      <point x="559.587" y="557.531"/>
      <point x="491.063" y="573.06"/>
      <point x="433.645" y="573.154" type="curve" smooth="yes"/>
      <point x="294.195" y="573.06"/>
      <point x="191.289" y="477.81"/>
      <point x="191.295" y="350.259" type="curve" smooth="yes"/>
      <point x="191.289" y="223.67"/>
      <point x="293.588" y="127.812"/>
      <point x="432.394" y="126.846" type="curve" smooth="yes"/>
      <point x="517.897" y="126.846"/>
      <point x="586.927" y="161.667"/>
      <point x="630.032" y="218.48" type="curve"/>
      <point x="618.348" y="321.877" type="line"/>
    </contour>
  </outline>
</glyph>
<glyph name="ordfeminine" format="1">
  <advance width="381"/>
  <unicode hex="00AA"/>
  <outline>
    <contour>
      <point x="188.076" y="711.298" type="line"/>
      <point x="183.448" y="711.298" type="line"/>
      <point x="181.681" y="695.502"/>
      <point x="161.367" y="652.461"/>
      <point x="157.029" y="642.773" type="curve" smooth="yes"/>
      <point x="42.7701" y="409.223" type="line"/>
      <point x="31.7125" y="390.17"/>
      <point x="15.6092" y="382.188"/>
      <point x="1.1077" y="382.188" type="curve" smooth="yes"/>
      <point x="-3" y="382.188" type="line"/>
      <point x="-3" y="377.267" type="line"/>
      <point x="110.248" y="377.267" type="line"/>
      <point x="110.248" y="382.143" type="line"/>
      <point x="105.906" y="382.143" type="line" smooth="yes"/>
      <point x="93.1547" y="382.143"/>
      <point x="77.9956" y="393.341"/>
      <point x="87.0721" y="413.033" type="curve" smooth="yes"/>
      <point x="107.423" y="457.397" type="line"/>
      <point x="215.717" y="457.397" type="line"/>
      <point x="235.802" y="411.283" type="line"/>
      <point x="242.67" y="392.679"/>
      <point x="228.615" y="382.144"/>
      <point x="216.246" y="382.144" type="curve" smooth="yes"/>
      <point x="211.904" y="382.144" type="line"/>
      <point x="211.904" y="377.267" type="line"/>
      <point x="384.513" y="377.267" type="line"/>
      <point x="384.513" y="382.188" type="line"/>
      <point x="380.382" y="382.188" type="line" smooth="yes"/>
      <point x="365.869" y="382.188"/>
      <point x="350.155" y="390.541"/>
      <point x="338.467" y="410.551" type="curve"/>
    </contour>
    <contour>
      <point x="119.034" y="482.589" type="line"/>
      <point x="163.103" y="578.196" type="line"/>
      <point x="204.744" y="482.589" type="line"/>
    </contour>
  </outline>
</glyph>
<glyph name="guillemotleft" format="1">
  <advance width="501"/>
  <unicode hex="00AB"/>
  <outline>
    <contour>
      <point x="259.231" y="484.715" type="line"/>
      <point x="225.916" y="416.467"/>
      <point x="194.743" y="364.29"/>
      <point x="159.643" y="291.757" type="curve"/>
      <point x="195.077" y="217.862"/>
      <point x="226.582" y="164.325"/>
      <point x="260.231" y="94.715" type="curve"/>
      <point x="251.231" y="88.5007" type="line"/>
      <point x="184.809" y="174.681"/>
      <point x="112.315" y="240.076"/>
      <point x="40" y="291.757" type="curve"/>
      <point x="112.315" y="341.672"/>
      <point x="184.416" y="396.086"/>
      <point x="251.231" y="489.715" type="curve"/>
    </contour>
    <contour>
      <point x="449.159" y="484.715" type="line"/>
      <point x="415.844" y="416.467"/>
      <point x="384.672" y="364.29"/>
      <point x="349.571" y="291.757" type="curve"/>
      <point x="385.005" y="217.862"/>
      <point x="416.511" y="164.325"/>
      <point x="450.159" y="94.715" type="curve"/>
      <point x="441.159" y="88.5007" type="line"/>
      <point x="374.737" y="174.681"/>
      <point x="302.243" y="240.076"/>
      <point x="229.929" y="291.757" type="curve"/>
      <point x="302.243" y="341.672"/>
      <point x="374.344" y="396.086"/>
      <point x="441.159" y="489.715" type="curve"/>
    </contour>
  </outline>
</glyph>
<glyph name="registered" format="1">
  <advance width="245"/>
  <unicode hex="00AE"/>
  <outline>
    <contour>
      <point x="60.5308" y="700.865"/>
      <point x="10" y="650.334"/>
      <point x="10" y="588" type="curve" smooth="yes"/>
      <point x="10" y="525.666"/>
      <point x="60.5308" y="475.135"/>
      <point x="122.865" y="475.135" type="curve" smooth="yes"/>
      <point x="185.199" y="475.135"/>
      <point x="235.73" y="525.666"/>
      <point x="235.73" y="588" type="curve" smooth="yes"/>
      <point x="235.73" y="650.334"/>
      <point x="185.199" y="700.865"/>
      <point x="122.865" y="700.865" type="curve" smooth="yes"/>
    </contour>
    <contour>
      <point x="71.5829" y="497.335"/>
      <point x="32.2" y="536.718"/>
      <point x="32.2" y="588" type="curve" smooth="yes"/>
      <point x="32.2" y="639.282"/>
      <point x="71.5829" y="678.665"/>
      <point x="122.865" y="678.665" type="curve" smooth="yes"/>
      <point x="174.147" y="678.665"/>
      <point x="213.53" y="639.282"/>
      <point x="213.53" y="588" type="curve" smooth="yes"/>
      <point x="213.53" y="536.718"/>
      <point x="174.147" y="497.335"/>
      <point x="122.865" y="497.335" type="curve" smooth="yes"/>
    </contour>
    <contour>
      <point x="105.819" y="650.49" type="line"/>
      <point x="64.5232" y="650.49" type="line"/>
      <point x="64.5554" y="648.492" type="line"/>
      <point x="67.0841" y="648.496" type="line" smooth="yes"/>
      <point x="73.0702" y="648.496"/>
      <point x="77.5869" y="644.004"/>
      <point x="77.7633" y="638.067" type="curve" smooth="yes"/>
      <point x="77.7633" y="543.134" type="line"/>
      <point x="77.5248" y="537.254"/>
      <point x="73.0301" y="532.561"/>
      <point x="67.0874" y="532.561" type="curve" smooth="yes"/>
      <point x="64.5593" y="532.565" type="line"/>
      <point x="64.5272" y="530.567" type="line"/>
      <point x="119.063" y="530.567" type="line"/>
      <point x="119.031" y="532.565" type="line"/>
      <point x="116.502" y="532.561" type="line" smooth="yes"/>
      <point x="110.471" y="532.561"/>
      <point x="105.932" y="537.395"/>
      <point x="105.819" y="543.397" type="curve"/>
      <point x="105.819" y="641.308" type="line"/>
      <point x="116.623" y="641.112" type="line" smooth="yes"/>
      <point x="132.374" y="641.292"/>
      <point x="138.511" y="632.408"/>
      <point x="138.99" y="619.438" type="curve" smooth="yes"/>
      <point x="139.127" y="615.665"/>
      <point x="138.436" y="610.246"/>
      <point x="137.76" y="607.394" type="curve" smooth="yes"/>
      <point x="134.371" y="593.821"/>
      <point x="125.95" y="591.195"/>
      <point x="122.02" y="590.913" type="curve" smooth="yes"/>
      <point x="111.458" y="590.847" type="line"/>
      <point x="111.458" y="588.997" type="line"/>
      <point x="115.152" y="588.997"/>
      <point x="118.048" y="582.274"/>
      <point x="121.465" y="575.51" type="curve" smooth="yes"/>
      <point x="131.629" y="555.305"/>
      <point x="138.684" y="530.567"/>
      <point x="172.527" y="530.567" type="curve" smooth="yes"/>
      <point x="189.462" y="530.567" type="line"/>
      <point x="189.462" y="532.571" type="line"/>
      <point x="177.573" y="536.499"/>
      <point x="171.496" y="547.375"/>
      <point x="168.695" y="551.662" type="curve" smooth="yes"/>
      <point x="160.957" y="563.519"/>
      <point x="148.174" y="583.231"/>
      <point x="139.352" y="585.21" type="curve"/>
      <point x="156.374" y="587.009"/>
      <point x="169.094" y="598.137"/>
      <point x="169.094" y="618.124" type="curve" smooth="yes"/>
      <point x="169.094" y="638.315"/>
      <point x="150.015" y="650.49"/>
      <point x="126.413" y="650.49" type="curve" smooth="yes"/>
    </contour>
  </outline>
</glyph>
<glyph name="macron" format="1">
  <advance width="600"/>
  <unicode hex="00AF"/>
  <outline>
    <contour>
      <point x="158.087" y="702.943" type="line"/>
      <point x="432.373" y="702.943" type="line"/>
      <point x="432.373" y="768.3" type="line"/>
      <point x="158.087" y="768.3" type="line"/>
    </contour>
    <contour>
      <point x="292.41" y="671.582" type="move" name="_top"/>
    </contour>
  </outline>
</glyph>
<glyph name="degree" format="1">
  <advance width="244"/>
  <unicode hex="00B0"/>
  <outline>
    <contour>
      <point x="68.0436" y="664.351"/>
      <point x="23.9286" y="620.236"/>
      <point x="23.9286" y="565.817" type="curve" smooth="yes"/>
      <point x="23.9286" y="511.396"/>
      <point x="68.0436" y="467.281"/>
      <point x="122.464" y="467.281" type="curve" smooth="yes"/>
      <point x="176.884" y="467.281"/>
      <point x="220.999" y="511.396"/>
      <point x="220.999" y="565.817" type="curve" smooth="yes"/>
      <point x="220.999" y="620.236"/>
      <point x="176.884" y="664.351"/>
      <point x="122.464" y="664.351" type="curve" smooth="yes"/>
    </contour>
    <contour>
      <point x="149.112" y="613.403"/>
      <point x="170.051" y="592.465"/>
      <point x="170.051" y="565.817" type="curve" smooth="yes"/>
      <point x="170.051" y="539.168"/>
      <point x="149.112" y="518.229"/>
      <point x="122.464" y="518.229" type="curve" smooth="yes"/>
      <point x="95.8145" y="518.229"/>
      <point x="74.8764" y="539.168"/>
      <point x="74.8764" y="565.817" type="curve" smooth="yes"/>
      <point x="74.8764" y="592.465"/>
      <point x="95.8145" y="613.403"/>
      <point x="122.464" y="613.403" type="curve" smooth="yes"/>
    </contour>
  </outline>
</glyph>
<glyph name="plusminus" format="1">
  <advance width="481"/>
  <unicode hex="00B1"/>
  <outline>
    <contour>
      <point x="269.433" y="408.324" type="line"/>
      <point x="269.433" y="580.614" type="line"/>
      <point x="212.291" y="580.614" type="line"/>
      <point x="212.291" y="408.324" type="line"/>
      <point x="40" y="408.324" type="line"/>
      <point x="40" y="351.182" type="line"/>
      <point x="212.291" y="351.182" type="line"/>
      <point x="212.291" y="178.891" type="line"/>
      <point x="269.433" y="178.891" type="line"/>
      <point x="269.433" y="351.182" type="line"/>
      <point x="441.723" y="351.182" type="line"/>
      <point x="441.723" y="408.324" type="line"/>
    </contour>
    <contour>
      <point x="40" y="53.9286" type="line"/>
      <point x="441.723" y="53.9286" type="line"/>
      <point x="441.723" y="111.071" type="line"/>
      <point x="40" y="111.071" type="line"/>
    </contour>
  </outline>
</glyph>
<glyph name="twosuperior" format="1">
  <advance width="401"/>
  <unicode hex="00B2"/>
  <outline>
    <contour>
      <point x="74.0613" y="573.301" type="line"/>
      <point x="73.571" y="644.645"/>
      <point x="102.583" y="684.267"/>
      <point x="149.55" y="687.712" type="curve" smooth="yes"/>
      <point x="195.274" y="690.958"/>
      <point x="226.142" y="660.582"/>
      <point x="226.142" y="610.806" type="curve" smooth="yes"/>
      <point x="226.142" y="514.176"/>
      <point x="116.093" y="410.89"/>
      <point x="35.018" y="313.824" type="curve"/>
      <point x="35.018" y="307.927" type="line"/>
      <point x="330.368" y="307.927" type="line"/>
      <point x="368.19" y="460.509" type="line"/>
      <point x="362.293" y="460.509" type="line"/>
      <point x="341.545" y="418.671"/>
      <point x="318.588" y="400.827"/>
      <point x="283.539" y="400.827" type="curve" smooth="yes"/>
      <point x="173.46" y="400.827" type="line"/>
      <point x="231.848" y="434.499"/>
      <point x="339.983" y="505.05"/>
      <point x="339.983" y="601.063" type="curve" smooth="yes"/>
      <point x="339.983" y="673.092"/>
      <point x="267.49" y="717.302"/>
      <point x="177.349" y="717.302" type="curve" smooth="yes"/>
      <point x="123.647" y="717.302"/>
      <point x="66.203" y="701.348"/>
      <point x="33.7262" y="672.498" type="curve"/>
      <point x="68.1639" y="573.301" type="line"/>
    </contour>
  </outline>
</glyph>
<glyph name="acute" format="1">
  <advance width="536"/>
  <unicode hex="00B4"/>
  <outline>
    <contour>
      <point x="209.492" y="744.15" type="line"/>
      <point x="275.061" y="759.986"/>
      <point x="354.595" y="796.251"/>
      <point x="414.092" y="834.087" type="curve"/>
      <point x="401.791" y="869.834"/>
      <point x="381.847" y="896.902"/>
      <point x="346.331" y="915.291" type="curve"/>
      <point x="302.838" y="876.328"/>
      <point x="236.272" y="809.078"/>
      <point x="202.492" y="751.15" type="curve"/>
    </contour>
    <contour>
      <point x="219.841" y="745.982" type="move" name="_top"/>
    </contour>
  </outline>
</glyph>
<glyph name="periodcentered" format="1">
  <advance width="218"/>
  <unicode hex="00B7"/>
  <outline>
    <contour>
      <point x="67.4447" y="393.321"/>
      <point x="23.5927" y="362.327"/>
      <point x="6.9643" y="321" type="curve"/>
      <point x="23.5927" y="279.673"/>
      <point x="67.4447" y="248.679"/>
      <point x="109.286" y="248.679" type="curve" smooth="yes"/>
      <point x="151.127" y="248.679"/>
      <point x="194.979" y="279.673"/>
      <point x="211.607" y="321" type="curve"/>
      <point x="194.979" y="362.327"/>
      <point x="151.127" y="393.321"/>
      <point x="109.286" y="393.321" type="curve" smooth="yes"/>
    </contour>
    <contour>
      <point x="132.795" y="361.673"/>
      <point x="159.54" y="344.242"/>
      <point x="168.892" y="321" type="curve"/>
      <point x="159.54" y="297.758"/>
      <point x="132.795" y="280.327"/>
      <point x="109.286" y="280.327" type="curve" smooth="yes"/>
      <point x="85.7763" y="280.327"/>
      <point x="59.0314" y="297.758"/>
      <point x="49.6794" y="321" type="curve"/>
      <point x="59.0314" y="344.242"/>
      <point x="85.7763" y="361.673"/>
      <point x="109.286" y="361.673" type="curve" smooth="yes"/>
    </contour>
  </outline>
</glyph>
<glyph name="ordmasculine" format="1">
  <advance width="404"/>
  <unicode hex="00BA"/>
  <outline>
    <contour>
      <point x="93.098" y="711.447"/>
      <point x="23.9285" y="645.516"/>
      <point x="23.9285" y="542.505" type="curve" smooth="yes"/>
      <point x="23.9285" y="439.909"/>
      <point x="93.098" y="374.1"/>
      <point x="202.29" y="374.1" type="curve" smooth="yes"/>
      <point x="311.912" y="374.1"/>
      <point x="381.082" y="439.909"/>
      <point x="381.082" y="542.505" type="curve" smooth="yes"/>
      <point x="381.082" y="645.516"/>
      <point x="311.912" y="711.447"/>
      <point x="202.29" y="711.447" type="curve" smooth="yes"/>
    </contour>
    <contour>
      <point x="148.363" y="397.842"/>
      <point x="118.512" y="454.22"/>
      <point x="118.512" y="542.505" type="curve" smooth="yes"/>
      <point x="118.512" y="631.204"/>
      <point x="148.363" y="687.584"/>
      <point x="202.29" y="687.584" type="curve" smooth="yes"/>
      <point x="256.647" y="687.584"/>
      <point x="286.068" y="631.204"/>
      <point x="286.068" y="542.505" type="curve" smooth="yes"/>
      <point x="286.068" y="454.22"/>
      <point x="256.647" y="397.842"/>
      <point x="202.29" y="397.842" type="curve" smooth="yes"/>
    </contour>
  </outline>
</glyph>
<glyph name="onequarter" format="1">
  <advance width="747"/>
  <unicode hex="00BC"/>
  <outline>
    <contour>
      <point x="223.996" y="314.039" type="line" smooth="yes"/>
      <point x="206.347" y="314.021"/>
      <point x="191.441" y="328.058"/>
      <point x="191.441" y="345.574" type="curve" smooth="yes"/>
      <point x="191.441" y="714.494" type="line"/>
      <point x="185.544" y="714.494" type="line"/>
      <point x="147.062" y="689.094"/>
      <point x="67.8386" y="678.954"/>
      <point x="35.7142" y="676.749" type="curve"/>
      <point x="35.7142" y="670.851" type="line"/>
      <point x="48.2849" y="670.851" type="line" smooth="yes"/>
      <point x="70.8968" y="670.851"/>
      <point x="85.1066" y="660.943"/>
      <point x="85.1066" y="632.271" type="curve" smooth="yes"/>
      <point x="85.1066" y="345.959" type="line" smooth="yes"/>
      <point x="85.1066" y="328.269"/>
      <point x="70.3199" y="314.021"/>
      <point x="52.542" y="314.039" type="curve" smooth="yes"/>
      <point x="40.2127" y="314.051" type="line"/>
      <point x="40.131" y="308.154" type="line"/>
      <point x="236.407" y="308.154" type="line"/>
      <point x="236.325" y="314.051" type="line"/>
    </contour>
    <contour>
      <point x="701.88" y="107.006" type="line"/>
      <point x="719.801" y="186.185" type="line"/>
      <point x="713.539" y="186.185" type="line"/>
      <point x="706.025" y="172.048"/>
      <point x="697.619" y="164.12"/>
      <point x="674.551" y="164.12" type="curve" smooth="yes"/>
      <point x="647.307" y="164.12" type="line"/>
      <point x="647.307" y="407.135" type="line"/>
      <point x="641.443" y="407.135" type="line"/>
      <point x="352.986" y="113.268" type="line"/>
      <point x="352.986" y="107.006" type="line"/>
      <point x="542.458" y="107.006" type="line"/>
      <point x="542.458" y="38.3909" type="line"/>
      <point x="541.743" y="19.6716"/>
      <point x="526.338" y="5.9396"/>
      <point x="507.907" y="5.9396" type="curve" smooth="yes"/>
      <point x="501.079" y="5.9396" type="line"/>
      <point x="500.992" y="0" type="line"/>
      <point x="688.786" y="0" type="line"/>
      <point x="688.699" y="5.9396" type="line"/>
      <point x="681.87" y="5.9396" type="line" smooth="yes"/>
      <point x="663.233" y="5.9396"/>
      <point x="647.476" y="20.8069"/>
      <point x="647.307" y="39.4508" type="curve"/>
      <point x="647.307" y="107.006" type="line"/>
    </contour>
    <contour>
      <point x="446.33" y="164.12" type="line"/>
      <point x="542.458" y="260.68" type="line"/>
      <point x="542.458" y="164.12" type="line"/>
    </contour>
    <contour>
      <point x="589.885" y="719.464" type="line"/>
      <point x="627.992" y="693.511" type="line"/>
      <point x="150.008" y="-18" type="line"/>
      <point x="111.536" y="7.54813" type="line"/>
    </contour>
  </outline>
</glyph>
<glyph name="onehalf" format="1">
  <advance width="832"/>
  <unicode hex="00BD"/>
  <outline>
    <contour>
      <point x="40.131" y="308.154" type="line"/>
      <point x="40.2127" y="314.051" type="line"/>
      <point x="52.542" y="314.039" type="line" smooth="yes"/>
      <point x="70.3199" y="314.021"/>
      <point x="85.1066" y="328.269"/>
      <point x="85.1066" y="345.959" type="curve" smooth="yes"/>
      <point x="85.1066" y="632.271" type="line" smooth="yes"/>
      <point x="85.1066" y="660.943"/>
      <point x="70.8968" y="670.851"/>
      <point x="48.2849" y="670.851" type="curve" smooth="yes"/>
      <point x="35.7142" y="670.851" type="line"/>
      <point x="35.7142" y="676.749" type="line"/>
      <point x="67.8386" y="678.954"/>
      <point x="147.062" y="689.094"/>
      <point x="185.544" y="714.494" type="curve"/>
      <point x="191.441" y="714.494" type="line"/>
      <point x="191.441" y="345.574" type="line" smooth="yes"/>
      <point x="191.441" y="328.058"/>
      <point x="206.347" y="314.021"/>
      <point x="223.996" y="314.039" type="curve" smooth="yes"/>
      <point x="236.325" y="314.051" type="line"/>
      <point x="236.407" y="308.154" type="line"/>
    </contour>
    <contour>
      <point x="498.597" y="265.375" type="line"/>
      <point x="498.107" y="336.718"/>
      <point x="527.119" y="376.341"/>
      <point x="574.086" y="379.786" type="curve" smooth="yes"/>
      <point x="619.81" y="383.032"/>
      <point x="650.677" y="352.656"/>
      <point x="650.677" y="302.88" type="curve" smooth="yes"/>
      <point x="650.677" y="206.249"/>
      <point x="540.629" y="102.963"/>
      <point x="459.554" y="5.89769" type="curve"/>
      <point x="459.554" y="0" type="line"/>
      <point x="754.904" y="0" type="line"/>
      <point x="792.726" y="152.583" type="line"/>
      <point x="786.828" y="152.583" type="line"/>
      <point x="766.08" y="110.745"/>
      <point x="743.124" y="92.9005"/>
      <point x="708.074" y="92.9005" type="curve" smooth="yes"/>
      <point x="597.996" y="92.9005" type="line"/>
      <point x="656.384" y="126.572"/>
      <point x="764.519" y="197.124"/>
      <point x="764.519" y="293.136" type="curve" smooth="yes"/>
      <point x="764.519" y="365.166"/>
      <point x="692.025" y="409.376"/>
      <point x="601.884" y="409.376" type="curve" smooth="yes"/>
      <point x="548.183" y="409.376"/>
      <point x="490.739" y="393.421"/>
      <point x="458.262" y="364.572" type="curve"/>
      <point x="492.7" y="265.375" type="line"/>
    </contour>
    <contour>
      <point x="576.135" y="719.464" type="line"/>
      <point x="614.242" y="693.511" type="line"/>
      <point x="136.258" y="-18" type="line"/>
      <point x="97.7857" y="7.54813" type="line"/>
    </contour>
  </outline>
</glyph>
<glyph name="threequarters" format="1">
  <advance width="789"/>
  <unicode hex="00BE"/>
  <outline>
    <contour>
      <point x="59.2941" y="583.675" type="line"/>
      <point x="65.1919" y="583.675" type="line"/>
      <point x="63.4387" y="653.002"/>
      <point x="82.3566" y="681.471"/>
      <point x="128.012" y="685.141" type="curve" smooth="yes"/>
      <point x="160.783" y="687.485"/>
      <point x="192.672" y="672.337"/>
      <point x="195.891" y="630.362" type="curve" smooth="yes"/>
      <point x="199.7" y="576.95"/>
      <point x="155.063" y="536.17"/>
      <point x="99.6048" y="537.678" type="curve"/>
      <point x="98.5294" y="531.781" type="line"/>
      <point x="153.582" y="531.198"/>
      <point x="207.807" y="508.36"/>
      <point x="207.807" y="442.682" type="curve" smooth="yes"/>
      <point x="207.807" y="356.213"/>
      <point x="128.198" y="312.034"/>
      <point x="32.1855" y="314.296" type="curve"/>
      <point x="31.006" y="308.641" type="line"/>
      <point x="159.095" y="256.879"/>
      <point x="317.748" y="302.094"/>
      <point x="317.748" y="436.789" type="curve" smooth="yes"/>
      <point x="317.748" y="501.226"/>
      <point x="268.597" y="530.761"/>
      <point x="224.589" y="538.519" type="curve"/>
      <point x="263.153" y="542.5"/>
      <point x="301.498" y="571.267"/>
      <point x="301.498" y="618.463" type="curve" smooth="yes"/>
      <point x="301.498" y="678.36"/>
      <point x="246.946" y="712.979"/>
      <point x="162.012" y="713.391" type="curve" smooth="yes"/>
      <point x="104.3" y="713.683"/>
      <point x="56.9239" y="698.908"/>
      <point x="30.5581" y="675.649" type="curve"/>
    </contour>
    <contour>
      <point x="752.416" y="107.006" type="line"/>
      <point x="770.337" y="186.185" type="line"/>
      <point x="764.075" y="186.185" type="line"/>
      <point x="756.56" y="172.048"/>
      <point x="748.155" y="164.12"/>
      <point x="725.087" y="164.12" type="curve" smooth="yes"/>
      <point x="697.843" y="164.12" type="line"/>
      <point x="697.843" y="407.135" type="line"/>
      <point x="691.979" y="407.135" type="line"/>
      <point x="403.522" y="113.268" type="line"/>
      <point x="403.522" y="107.006" type="line"/>
      <point x="592.994" y="107.006" type="line"/>
      <point x="592.994" y="38.4196" type="line"/>
      <point x="592.293" y="19.6856"/>
      <point x="576.884" y="5.93969"/>
      <point x="558.443" y="5.93969" type="curve" smooth="yes"/>
      <point x="551.614" y="5.93969" type="line"/>
      <point x="551.528" y="0" type="line"/>
      <point x="739.322" y="0" type="line"/>
      <point x="739.235" y="5.93969" type="line"/>
      <point x="732.406" y="5.93969" type="line" smooth="yes"/>
      <point x="713.815" y="5.93969"/>
      <point x="698.09" y="20.7319"/>
      <point x="697.843" y="39.3097" type="curve"/>
      <point x="697.843" y="107.006" type="line"/>
    </contour>
    <contour>
      <point x="496.866" y="164.12" type="line"/>
      <point x="592.994" y="260.68" type="line"/>
      <point x="592.994" y="164.12" type="line"/>
    </contour>
    <contour>
      <point x="648.67" y="719.464" type="line"/>
      <point x="686.777" y="693.511" type="line"/>
      <point x="208.793" y="-18" type="line"/>
      <point x="170.321" y="7.54813" type="line"/>
    </contour>
  </outline>
</glyph>
<glyph name="questiondown" format="1">
  <advance width="487"/>
  <unicode hex="00BF"/>
  <outline>
    <contour>
      <point x="214.119" y="710.071"/>
      <point x="181.919" y="677.871"/>
      <point x="181.782" y="637.75" type="curve" smooth="yes"/>
      <point x="181.919" y="597.629"/>
      <point x="214.119" y="565.429"/>
      <point x="253.633" y="565.429" type="curve" smooth="yes"/>
      <point x="293.754" y="565.429"/>
      <point x="326.561" y="597.629"/>
      <point x="326.424" y="637.75" type="curve"/>
      <point x="326.561" y="677.871"/>
      <point x="293.754" y="710.071"/>
      <point x="253.633" y="710.071" type="curve" smooth="yes"/>
    </contour>
    <contour>
      <point x="419.557" y="181.913" type="line"/>
      <point x="409.557" y="181.913" type="line"/>
      <point x="410.342" y="79.348"/>
      <point x="368.649" y="28.1428"/>
      <point x="300.532" y="28.1428" type="curve" smooth="yes"/>
      <point x="235.914" y="28.1428"/>
      <point x="198.464" y="74.211"/>
      <point x="197.857" y="154.665" type="curve" smooth="yes"/>
      <point x="196.643" y="280.445"/>
      <point x="304.326" y="302.203"/>
      <point x="309.79" y="389.852" type="curve" smooth="yes"/>
      <point x="314.04" y="443.044"/>
      <point x="280.468" y="481.058"/>
      <point x="231.43" y="502.705" type="curve"/>
      <point x="223.599" y="497.115" type="line"/>
      <point x="251.596" y="449.138"/>
      <point x="225.026" y="421.348"/>
      <point x="196.598" y="390.397" type="curve" smooth="yes"/>
      <point x="125.17" y="309.062"/>
      <point x="37.8571" y="263.224"/>
      <point x="37.8571" y="160.13" type="curve" smooth="yes"/>
      <point x="37.8571" y="50.5109"/>
      <point x="118.682" y="-14"/>
      <point x="261.675" y="-14" type="curve" smooth="yes"/>
      <point x="353.671" y="-14"/>
      <point x="423.707" y="21.4713"/>
      <point x="453.842" y="75.046" type="curve"/>
    </contour>
  </outline>
</glyph>
<glyph name="Agrave" format="1">
  <advance width="705"/>
  <unicode hex="00C0"/>
  <outline>
    <contour>
      <point x="362.769" y="787.014" type="line"/>
      <point x="328.989" y="845.335"/>
      <point x="262.424" y="912.192"/>
      <point x="218.93" y="951.155" type="curve"/>
      <point x="183.414" y="933.159"/>
      <point x="163.47" y="906.091"/>
      <point x="151.169" y="869.951" type="curve"/>
      <point x="210.666" y="832.115"/>
      <point x="290.2" y="795.457"/>
      <point x="355.769" y="780.014" type="curve"/>
    </contour>
    <contour>
      <point x="963.622" y="-173" type="line"/>
      <point x="781.801" y="-218"/>
      <point x="676.876" y="-6"/>
      <point x="611.882" y="155.212" type="curve" smooth="yes"/>
      <point x="466.572" y="513.397" type="line" smooth="yes"/>
      <point x="392.052" y="694.311"/>
      <point x="274.794" y="829.022"/>
      <point x="68.5379" y="721.692" type="curve"/>
      <point x="70.7901" y="711.588" type="line"/>
      <point x="181.836" y="752.071"/>
      <point x="244.142" y="669.607"/>
      <point x="287.418" y="572.804" type="curve"/>
      <point x="64.1235" y="64.4866" type="line"/>
      <point x="42.812" y="26.0947"/>
      <point x="8.97114" y="9.99967"/>
      <point x="-19" y="9.99967" type="curve" smooth="yes"/>
      <point x="-28" y="9.99967" type="line"/>
      <point x="-28" y="0" type="line"/>
      <point x="186.422" y="0" type="line"/>
      <point x="186.422" y="9.90767" type="line"/>
      <point x="177.63" y="9.90767" type="line" smooth="yes"/>
      <point x="151.813" y="9.90767"/>
      <point x="122.967" y="32.6635"/>
      <point x="139.391" y="72.6809" type="curve" smooth="yes"/>
      <point x="191.61" y="199.393" type="line"/>
      <point x="428.4" y="199.393" type="line"/>
      <point x="460.377" y="114.099" type="line" smooth="yes"/>
      <point x="573.237" y="-182"/>
      <point x="790.439" y="-271"/>
      <point x="965.083" y="-183" type="curve"/>
    </contour>
    <contour>
      <point x="209.141" y="241.536" type="line"/>
      <point x="316.567" y="499.765" type="line"/>
      <point x="326.041" y="473.934"/>
      <point x="334.691" y="448.993"/>
      <point x="343.077" y="426.978" type="curve" smooth="yes"/>
      <point x="412.6" y="241.536" type="line"/>
    </contour>
  </outline>
</glyph>
<glyph name="Aacute" format="1">
  <advance width="705"/>
  <unicode hex="00C1"/>
  <outline>
    <contour>
      <point x="333.334" y="778.239" type="line"/>
      <point x="398.903" y="794.075"/>
      <point x="478.437" y="830.34"/>
      <point x="537.934" y="868.176" type="curve"/>
      <point x="525.633" y="903.923"/>
      <point x="505.689" y="930.991"/>
      <point x="470.173" y="949.38" type="curve"/>
      <point x="426.68" y="910.417"/>
      <point x="360.114" y="843.167"/>
      <point x="326.334" y="785.239" type="curve"/>
    </contour>
    <contour>
      <point x="963.622" y="-173" type="line"/>
      <point x="781.801" y="-218"/>
      <point x="676.876" y="-6"/>
      <point x="611.882" y="155.212" type="curve" smooth="yes"/>
      <point x="466.572" y="513.397" type="line" smooth="yes"/>
      <point x="392.052" y="694.311"/>
      <point x="274.794" y="829.022"/>
      <point x="68.5378" y="721.692" type="curve"/>
      <point x="70.79" y="711.588" type="line"/>
      <point x="181.836" y="752.071"/>
      <point x="244.142" y="669.607"/>
      <point x="287.417" y="572.804" type="curve"/>
      <point x="64.1235" y="64.4866" type="line"/>
      <point x="42.812" y="26.0947"/>
      <point x="8.97108" y="9.99966"/>
      <point x="-19" y="9.99966" type="curve" smooth="yes"/>
      <point x="-28" y="9.99966" type="line"/>
      <point x="-28" y="0" type="line"/>
      <point x="186.422" y="0" type="line"/>
      <point x="186.422" y="9.90766" type="line"/>
      <point x="177.63" y="9.90766" type="line" smooth="yes"/>
      <point x="151.813" y="9.90766"/>
      <point x="122.967" y="32.6635"/>
      <point x="139.391" y="72.6809" type="curve" smooth="yes"/>
      <point x="191.61" y="199.393" type="line"/>
      <point x="428.4" y="199.393" type="line"/>
      <point x="460.377" y="114.099" type="line" smooth="yes"/>
      <point x="573.237" y="-182"/>
      <point x="790.439" y="-271"/>
      <point x="965.083" y="-183" type="curve"/>
    </contour>
    <contour>
      <point x="209.141" y="241.536" type="line"/>
      <point x="316.567" y="499.765" type="line"/>
      <point x="326.041" y="473.935"/>
      <point x="334.691" y="448.994"/>
      <point x="343.077" y="426.978" type="curve" smooth="yes"/>
      <point x="412.6" y="241.536" type="line"/>
    </contour>
  </outline>
</glyph>
<glyph name="Acircumflex" format="1">
  <advance width="705"/>
  <unicode hex="00C2"/>
  <outline>
    <contour>
      <point x="337.238" y="931.321" type="line"/>
      <point x="348.393" y="931.321" type="line"/>
      <point x="501.588" y="778.065" type="line"/>
      <point x="494.896" y="770.065" type="line"/>
      <point x="342.291" y="835.149" type="line"/>
      <point x="199.709" y="770.161" type="line"/>
      <point x="193.017" y="778.161" type="line"/>
    </contour>
    <contour>
      <point x="963.622" y="-173" type="line"/>
      <point x="781.801" y="-218"/>
      <point x="676.876" y="-6"/>
      <point x="611.882" y="155.212" type="curve" smooth="yes"/>
      <point x="466.572" y="513.397" type="line" smooth="yes"/>
      <point x="392.052" y="694.311"/>
      <point x="274.794" y="829.022"/>
      <point x="68.5379" y="721.692" type="curve"/>
      <point x="70.7901" y="711.588" type="line"/>
      <point x="181.836" y="752.071"/>
      <point x="244.142" y="669.607"/>
      <point x="287.418" y="572.804" type="curve"/>
      <point x="64.1236" y="64.4865" type="line"/>
      <point x="42.8121" y="26.0946"/>
      <point x="8.97119" y="9.99964"/>
      <point x="-19" y="9.99964" type="curve" smooth="yes"/>
      <point x="-28" y="9.99964" type="line"/>
      <point x="-28" y="0" type="line"/>
      <point x="186.422" y="0" type="line"/>
      <point x="186.422" y="9.90764" type="line"/>
      <point x="177.63" y="9.90764" type="line" smooth="yes"/>
      <point x="151.813" y="9.90764"/>
      <point x="122.967" y="32.6634"/>
      <point x="139.391" y="72.6808" type="curve" smooth="yes"/>
      <point x="191.61" y="199.393" type="line"/>
      <point x="428.4" y="199.393" type="line"/>
      <point x="460.377" y="114.099" type="line" smooth="yes"/>
      <point x="573.237" y="-182"/>
      <point x="790.439" y="-271"/>
      <point x="965.083" y="-183" type="curve"/>
    </contour>
    <contour>
      <point x="209.141" y="241.536" type="line"/>
      <point x="316.567" y="499.765" type="line"/>
      <point x="326.041" y="473.934"/>
      <point x="334.692" y="448.993"/>
      <point x="343.077" y="426.978" type="curve" smooth="yes"/>
      <point x="412.6" y="241.536" type="line"/>
    </contour>
  </outline>
</glyph>
<glyph name="Atilde" format="1">
  <advance width="705"/>
  <unicode hex="00C3"/>
  <outline>
    <contour>
      <point x="522.886" y="905.197" type="line"/>
      <point x="534.007" y="856.599"/>
      <point x="501.172" y="779.903"/>
      <point x="426.35" y="780.123" type="curve" smooth="yes"/>
      <point x="371.617" y="780.26"/>
      <point x="333.223" y="823.824"/>
      <point x="281.098" y="830.167" type="curve" smooth="yes"/>
      <point x="244.008" y="834.505"/>
      <point x="213.778" y="807.169"/>
      <point x="203.956" y="783.133" type="curve"/>
      <point x="192.527" y="783.133" type="line"/>
      <point x="186.54" y="836.354"/>
      <point x="216.766" y="914.574"/>
      <point x="288.892" y="914.643" type="curve" smooth="yes"/>
      <point x="341.97" y="914.684"/>
      <point x="376.852" y="871.653"/>
      <point x="434.585" y="865.6" type="curve" smooth="yes"/>
      <point x="472.816" y="861.888"/>
      <point x="503.712" y="886.197"/>
      <point x="511.457" y="905.197" type="curve"/>
    </contour>
    <contour>
      <point x="963.622" y="-173" type="line"/>
      <point x="781.801" y="-218"/>
      <point x="676.876" y="-6"/>
      <point x="611.882" y="155.212" type="curve" smooth="yes"/>
      <point x="466.572" y="513.397" type="line" smooth="yes"/>
      <point x="392.052" y="694.311"/>
      <point x="274.794" y="829.022"/>
      <point x="68.5379" y="721.692" type="curve"/>
      <point x="70.7901" y="711.588" type="line"/>
      <point x="181.836" y="752.071"/>
      <point x="244.142" y="669.607"/>
      <point x="287.418" y="572.803" type="curve"/>
      <point x="64.1236" y="64.4865" type="line"/>
      <point x="42.8121" y="26.0946"/>
      <point x="8.97122" y="9.99961"/>
      <point x="-19" y="9.99961" type="curve" smooth="yes"/>
      <point x="-28" y="9.99961" type="line"/>
      <point x="-28" y="0" type="line"/>
      <point x="186.422" y="0" type="line"/>
      <point x="186.422" y="9.90761" type="line"/>
      <point x="177.63" y="9.90761" type="line" smooth="yes"/>
      <point x="151.813" y="9.90761"/>
      <point x="122.967" y="32.6634"/>
      <point x="139.391" y="72.6808" type="curve" smooth="yes"/>
      <point x="191.61" y="199.393" type="line"/>
      <point x="428.4" y="199.393" type="line"/>
      <point x="460.377" y="114.099" type="line" smooth="yes"/>
      <point x="573.237" y="-182"/>
      <point x="790.439" y="-271"/>
      <point x="965.083" y="-183" type="curve"/>
    </contour>
    <contour>
      <point x="209.141" y="241.536" type="line"/>
      <point x="316.567" y="499.765" type="line"/>
      <point x="326.041" y="473.934"/>
      <point x="334.692" y="448.993"/>
      <point x="343.077" y="426.978" type="curve" smooth="yes"/>
      <point x="412.6" y="241.536" type="line"/>
    </contour>
  </outline>
</glyph>
<glyph name="Adieresis" format="1">
  <advance width="705"/>
  <unicode hex="00C4"/>
  <outline>
    <contour>
      <point x="257.995" y="774.94"/>
      <point x="284.898" y="801.842"/>
      <point x="284.898" y="835.031" type="curve" smooth="yes"/>
      <point x="284.898" y="868.22"/>
      <point x="257.995" y="895.123"/>
      <point x="224.807" y="895.123" type="curve" smooth="yes"/>
      <point x="191.619" y="895.123"/>
      <point x="164.716" y="868.22"/>
      <point x="164.716" y="835.031" type="curve" smooth="yes"/>
      <point x="164.716" y="801.842"/>
      <point x="191.619" y="774.94"/>
      <point x="224.807" y="774.94" type="curve" smooth="yes"/>
    </contour>
    <contour>
      <point x="491.434" y="774.94"/>
      <point x="518.336" y="801.842"/>
      <point x="518.336" y="835.031" type="curve" smooth="yes"/>
      <point x="518.336" y="868.22"/>
      <point x="491.434" y="895.123"/>
      <point x="458.245" y="895.123" type="curve" smooth="yes"/>
      <point x="425.057" y="895.123"/>
      <point x="398.154" y="868.22"/>
      <point x="398.154" y="835.031" type="curve" smooth="yes"/>
      <point x="398.154" y="801.842"/>
      <point x="425.057" y="774.94"/>
      <point x="458.245" y="774.94" type="curve" smooth="yes"/>
    </contour>
    <contour>
      <point x="963.622" y="-173" type="line"/>
      <point x="781.801" y="-218"/>
      <point x="676.876" y="-6"/>
      <point x="611.882" y="155.212" type="curve" smooth="yes"/>
      <point x="466.572" y="513.397" type="line" smooth="yes"/>
      <point x="392.052" y="694.311"/>
      <point x="274.794" y="829.022"/>
      <point x="68.5379" y="721.692" type="curve"/>
      <point x="70.7901" y="711.588" type="line"/>
      <point x="181.836" y="752.071"/>
      <point x="244.142" y="669.607"/>
      <point x="287.418" y="572.803" type="curve"/>
      <point x="64.1236" y="64.4865" type="line"/>
      <point x="42.8121" y="26.0946"/>
      <point x="8.97119" y="9.9996"/>
      <point x="-19" y="9.9996" type="curve" smooth="yes"/>
      <point x="-28" y="9.9996" type="line"/>
      <point x="-28" y="0" type="line"/>
      <point x="186.422" y="0" type="line"/>
      <point x="186.422" y="9.9076" type="line"/>
      <point x="177.63" y="9.9076" type="line" smooth="yes"/>
      <point x="151.813" y="9.9076"/>
      <point x="122.967" y="32.6634"/>
      <point x="139.391" y="72.6808" type="curve" smooth="yes"/>
      <point x="191.61" y="199.393" type="line"/>
      <point x="428.4" y="199.393" type="line"/>
      <point x="460.377" y="114.099" type="line" smooth="yes"/>
      <point x="573.237" y="-182"/>
      <point x="790.439" y="-271"/>
      <point x="965.083" y="-183" type="curve"/>
    </contour>
    <contour>
      <point x="209.141" y="241.536" type="line"/>
      <point x="316.567" y="499.765" type="line"/>
      <point x="326.041" y="473.934"/>
      <point x="334.692" y="448.993"/>
      <point x="343.077" y="426.978" type="curve" smooth="yes"/>
      <point x="412.6" y="241.536" type="line"/>
    </contour>
  </outline>
</glyph>
<glyph name="Aring" format="1">
  <advance width="705"/>
  <unicode hex="00C5"/>
  <outline>
    <contour>
      <point x="281.394" y="946.958"/>
      <point x="234.528" y="911.499"/>
      <point x="234.525" y="863.289" type="curve" smooth="yes"/>
      <point x="234.522" y="815.076"/>
      <point x="281.101" y="779.618"/>
      <point x="343" y="779.62" type="curve" smooth="yes"/>
      <point x="404.886" y="779.623"/>
      <point x="451.464" y="815.656"/>
      <point x="451.474" y="864.628" type="curve" smooth="yes"/>
      <point x="451.484" y="913.375"/>
      <point x="405.192" y="946.96"/>
      <point x="343.669" y="946.959" type="curve" smooth="yes"/>
    </contour>
    <contour>
      <point x="371.842" y="922.154"/>
      <point x="393.715" y="898.57"/>
      <point x="393.712" y="863.289" type="curve" smooth="yes"/>
      <point x="393.71" y="828.404"/>
      <point x="371.837" y="805.107"/>
      <point x="343" y="805.103" type="curve" smooth="yes"/>
      <point x="314.539" y="805.098"/>
      <point x="292.954" y="828.394"/>
      <point x="292.956" y="863.289" type="curve" smooth="yes"/>
      <point x="292.959" y="898.554"/>
      <point x="314.545" y="922.138"/>
      <point x="343" y="922.146" type="curve" smooth="yes"/>
    </contour>
    <contour>
      <point x="963.622" y="-173" type="line"/>
      <point x="781.801" y="-218"/>
      <point x="676.876" y="-6"/>
      <point x="611.882" y="155.212" type="curve" smooth="yes"/>
      <point x="466.572" y="513.397" type="line" smooth="yes"/>
      <point x="392.052" y="694.311"/>
      <point x="274.794" y="829.022"/>
      <point x="68.5379" y="721.692" type="curve"/>
      <point x="70.7901" y="711.588" type="line"/>
      <point x="181.836" y="752.071"/>
      <point x="244.142" y="669.607"/>
      <point x="287.418" y="572.804" type="curve"/>
      <point x="64.1236" y="64.4866" type="line"/>
      <point x="42.8121" y="26.0947"/>
      <point x="8.97121" y="9.99965"/>
      <point x="-19" y="9.99965" type="curve" smooth="yes"/>
      <point x="-28" y="9.99965" type="line"/>
      <point x="-28" y="0" type="line"/>
      <point x="186.422" y="0" type="line"/>
      <point x="186.422" y="9.90765" type="line"/>
      <point x="177.63" y="9.90765" type="line" smooth="yes"/>
      <point x="151.813" y="9.90765"/>
      <point x="122.967" y="32.6635"/>
      <point x="139.391" y="72.6809" type="curve" smooth="yes"/>
      <point x="191.61" y="199.393" type="line"/>
      <point x="428.4" y="199.393" type="line"/>
      <point x="460.377" y="114.099" type="line" smooth="yes"/>
      <point x="573.237" y="-182"/>
      <point x="790.439" y="-271"/>
      <point x="965.083" y="-183" type="curve"/>
    </contour>
    <contour>
      <point x="209.141" y="241.536" type="line"/>
      <point x="316.567" y="499.765" type="line"/>
      <point x="326.041" y="473.934"/>
      <point x="334.692" y="448.993"/>
      <point x="343.077" y="426.978" type="curve" smooth="yes"/>
      <point x="412.6" y="241.536" type="line"/>
    </contour>
  </outline>
</glyph>
<glyph name="AE" format="1">
  <advance width="913"/>
  <unicode hex="00C6"/>
  <outline>
    <contour>
      <point x="902.453" y="195.108" type="line"/>
      <point x="873.369" y="101.509"/>
      <point x="805.959" y="43.2846"/>
      <point x="716.848" y="42.7329" type="curve" smooth="yes"/>
      <point x="513.088" y="42.7329" type="line"/>
      <point x="513.088" y="318.397" type="line"/>
      <point x="677.116" y="318.397" type="line"/>
      <point x="724.382" y="315.872"/>
      <point x="758.553" y="280.371"/>
      <point x="758.428" y="232.822" type="curve" smooth="yes"/>
      <point x="758.412" y="224.16" type="line"/>
      <point x="768.274" y="224.036" type="line"/>
      <point x="768.274" y="454.969" type="line"/>
      <point x="758.412" y="454.844" type="line"/>
      <point x="758.429" y="446.181" type="line" smooth="yes"/>
      <point x="758.564" y="398.114"/>
      <point x="723.673" y="362.361"/>
      <point x="675.559" y="360.539" type="curve"/>
      <point x="513.088" y="360.539" type="line"/>
      <point x="513.088" y="657.308" type="line"/>
      <point x="582.13" y="657.308" type="line" smooth="yes"/>
      <point x="641.528" y="655.978"/>
      <point x="678.773" y="618.17"/>
      <point x="678.657" y="559.265" type="curve" smooth="yes"/>
      <point x="678.639" y="548.727" type="line"/>
      <point x="688.704" y="548.587" type="line"/>
      <point x="688.704" y="718.187" type="line"/>
      <point x="669.755" y="710.201"/>
      <point x="610.107" y="699.987"/>
      <point x="566.747" y="699.987" type="curve"/>
      <point x="567.873" y="699.884" type="line"/>
      <point x="333.768" y="699.832" type="line"/>
      <point x="333.768" y="688.754" type="line"/>
      <point x="338.131" y="688.754" type="line" smooth="yes"/>
      <point x="358.587" y="688.754"/>
      <point x="370.436" y="669.902"/>
      <point x="361.827" y="651.051" type="curve"/>
      <point x="-18" y="78.5939" type="line" smooth="yes"/>
      <point x="-110" y="-59"/>
      <point x="-189" y="-83"/>
      <point x="-284" y="-81" type="curve"/>
      <point x="-285" y="-91" type="line"/>
      <point x="-178" y="-129"/>
      <point x="-39" y="-110"/>
      <point x="59.8588" y="54.5009" type="curve" smooth="yes"/>
      <point x="217.601" y="318.397" type="line"/>
      <point x="363.671" y="318.397" type="line"/>
      <point x="363.671" y="58.3569" type="line"/>
      <point x="362.546" y="31.5609"/>
      <point x="340.702" y="9.98393"/>
      <point x="313.778" y="9.98393" type="curve" smooth="yes"/>
      <point x="304.047" y="9.99993" type="line"/>
      <point x="303.923" y="0" type="line"/>
      <point x="867.326" y="0" type="line"/>
      <point x="912.453" y="195.108" type="line"/>
    </contour>
    <contour>
      <point x="242.791" y="360.539" type="line"/>
      <point x="364.145" y="563.559" type="line"/>
      <point x="364.145" y="360.539" type="line"/>
    </contour>
    <contour>
      <point x="320.071" y="700" type="move" name="top"/>
    </contour>
  </outline>
</glyph>
<glyph name="Ccedilla" format="1">
  <advance width="826"/>
  <unicode hex="00C7"/>
  <outline>
    <contour>
      <point x="798.819" y="391.243" type="line"/>
      <point x="804.089" y="157.349"/>
      <point x="668.024" y="28.1"/>
      <point x="478.435" y="28.1" type="curve" smooth="yes"/>
      <point x="293.5" y="31.7859"/>
      <point x="186.786" y="167.036"/>
      <point x="186.786" y="356.036" type="curve" smooth="yes"/>
      <point x="186.786" y="544.429"/>
      <point x="293.286" y="671.857"/>
      <point x="462.179" y="671.857" type="curve" smooth="yes"/>
      <point x="567.036" y="671.857"/>
      <point x="672.679" y="622"/>
      <point x="709.128" y="488.264" type="curve"/>
      <point x="717.451" y="488.232" type="line"/>
      <point x="715.489" y="659.825" type="line"/>
      <point x="657.607" y="690.036"/>
      <point x="563.107" y="714"/>
      <point x="458.75" y="714" type="curve" smooth="yes"/>
      <point x="197.464" y="714"/>
      <point x="23.75" y="565.893"/>
      <point x="23.75" y="347.964" type="curve" smooth="yes"/>
      <point x="23.75" y="147.39"/>
      <point x="171.151" y="0.602648"/>
      <point x="425.257" y="-13" type="curve"/>
      <point x="380.192" y="-71" type="line"/>
      <point x="385.245" y="-81" type="line"/>
      <point x="421.246" y="-66"/>
      <point x="479.823" y="-75"/>
      <point x="477.286" y="-117" type="curve" smooth="yes"/>
      <point x="473.902" y="-169"/>
      <point x="420.354" y="-188"/>
      <point x="378.904" y="-188" type="curve"/>
      <point x="378.171" y="-198" type="line"/>
      <point x="454.949" y="-224"/>
      <point x="544.824" y="-185"/>
      <point x="547.929" y="-118" type="curve" smooth="yes"/>
      <point x="550.93" y="-49"/>
      <point x="469.939" y="-45"/>
      <point x="434.588" y="-57" type="curve"/>
      <point x="472.083" y="-14" type="line"/>
      <point x="686.54" y="-11"/>
      <point x="833.824" y="130.207"/>
      <point x="807.8" y="391.279" type="curve"/>
    </contour>
  </outline>
</glyph>
<glyph name="Edieresis" format="1">
  <advance width="670"/>
  <unicode hex="00CB"/>
  <outline>
    <contour>
      <point x="181.28" y="758.869"/>
      <point x="208.183" y="785.771"/>
      <point x="208.183" y="818.96" type="curve" smooth="yes"/>
      <point x="208.183" y="852.149"/>
      <point x="181.28" y="879.052"/>
      <point x="148.092" y="879.052" type="curve" smooth="yes"/>
      <point x="114.904" y="879.052"/>
      <point x="88.0014" y="852.149"/>
      <point x="88.0014" y="818.96" type="curve" smooth="yes"/>
      <point x="88.0014" y="785.771"/>
      <point x="114.904" y="758.869"/>
      <point x="148.092" y="758.869" type="curve" smooth="yes"/>
    </contour>
    <contour>
      <point x="414.719" y="758.869"/>
      <point x="441.621" y="785.771"/>
      <point x="441.621" y="818.96" type="curve" smooth="yes"/>
      <point x="441.621" y="852.149"/>
      <point x="414.719" y="879.052"/>
      <point x="381.53" y="879.052" type="curve" smooth="yes"/>
      <point x="348.342" y="879.052"/>
      <point x="321.439" y="852.149"/>
      <point x="321.439" y="818.96" type="curve" smooth="yes"/>
      <point x="321.439" y="785.771"/>
      <point x="348.342" y="758.869"/>
      <point x="381.53" y="758.869" type="curve" smooth="yes"/>
    </contour>
    <contour>
      <point x="659.631" y="204.043" type="line"/>
      <point x="628.626" y="104.806"/>
      <point x="563.783" y="42.7351"/>
      <point x="463.891" y="42.7351" type="curve" smooth="yes"/>
      <point x="268.687" y="42.7351" type="line"/>
      <point x="268.687" y="324.147" type="line"/>
      <point x="428.962" y="324.147" type="line" smooth="yes"/>
      <point x="477.391" y="322.646"/>
      <point x="512.653" y="286.778"/>
      <point x="512.525" y="238.477" type="curve" smooth="yes"/>
      <point x="512.509" y="229.814" type="line"/>
      <point x="522.282" y="229.69" type="line"/>
      <point x="522.282" y="460.804" type="line"/>
      <point x="512.509" y="460.679" type="line"/>
      <point x="512.526" y="452.016" type="line" smooth="yes"/>
      <point x="512.663" y="403.309"/>
      <point x="476.834" y="367.245"/>
      <point x="427.725" y="366.319" type="curve" smooth="yes"/>
      <point x="268.687" y="366.319" type="line"/>
      <point x="268.687" y="657.266" type="line"/>
      <point x="334.781" y="657.266" type="line"/>
      <point x="394.761" y="654.764"/>
      <point x="432.595" y="615.437"/>
      <point x="432.479" y="555.248" type="curve" smooth="yes"/>
      <point x="432.46" y="543.496" type="line"/>
      <point x="442.56" y="543.346" type="line"/>
      <point x="442.56" y="718.187" type="line"/>
      <point x="423.967" y="710.365"/>
      <point x="366.395" y="700.407"/>
      <point x="323.296" y="700" type="curve" smooth="yes"/>
      <point x="41.9285" y="700" type="line"/>
      <point x="42.0905" y="690.06" type="line"/>
      <point x="54.7405" y="690.08" type="line" smooth="yes"/>
      <point x="88.664" y="690.08"/>
      <point x="116.384" y="663.73"/>
      <point x="118.656" y="630.393" type="curve"/>
      <point x="118.656" y="72.8643" type="line" smooth="yes"/>
      <point x="117.997" y="38.0293"/>
      <point x="89.5994" y="9.97928"/>
      <point x="54.5974" y="9.97928" type="curve" smooth="yes"/>
      <point x="41.9474" y="10" type="line"/>
      <point x="41.7864" y="0" type="line"/>
      <point x="623.486" y="0" type="line"/>
      <point x="669.631" y="204.043" type="line"/>
    </contour>
  </outline>
</glyph>
<glyph name="Igrave" format="1">
  <advance width="456"/>
  <unicode hex="00CC"/>
  <outline>
    <contour>
      <point x="282.326" y="770.943" type="line"/>
      <point x="248.546" y="829.264"/>
      <point x="181.981" y="896.121"/>
      <point x="138.487" y="935.084" type="curve"/>
      <point x="102.971" y="917.088"/>
      <point x="83.0276" y="890.02"/>
      <point x="70.7263" y="853.88" type="curve"/>
      <point x="130.223" y="816.044"/>
      <point x="209.757" y="779.386"/>
      <point x="275.326" y="763.943" type="curve"/>
    </contour>
    <contour>
      <point x="338.963" y="616.146" type="line" smooth="yes"/>
      <point x="339.994" y="670.702"/>
      <point x="358.452" y="700.704"/>
      <point x="417.618" y="710.06" type="curve"/>
      <point x="415.78" y="720.06" type="line"/>
      <point x="321.041" y="702"/>
      <point x="162.288" y="700.37"/>
      <point x="97.2913" y="696" type="curve" smooth="yes"/>
      <point x="-6" y="689.036"/>
      <point x="-42" y="644.279"/>
      <point x="-44" y="594.929" type="curve" smooth="yes"/>
      <point x="-47" y="529.871"/>
      <point x="17.5175" y="489.214"/>
      <point x="76.1427" y="515.327" type="curve"/>
      <point x="76.1101" y="521.134" type="line"/>
      <point x="24.1131" y="518.679"/>
      <point x="-3" y="550.593"/>
      <point x="0" y="591.286" type="curve" smooth="yes"/>
      <point x="3.4461" y="634.071"/>
      <point x="36.6131" y="652.154"/>
      <point x="94.0832" y="654.722" type="curve" smooth="yes"/>
      <point x="188.914" y="658.642" type="line"/>
      <point x="188.914" y="72.8641" type="line" smooth="yes"/>
      <point x="188.251" y="38.0291"/>
      <point x="159.854" y="9.9791"/>
      <point x="124.852" y="9.9791" type="curve" smooth="yes"/>
      <point x="112.202" y="10" type="line"/>
      <point x="112.041" y="0" type="line"/>
      <point x="415.828" y="0" type="line"/>
      <point x="415.667" y="10" type="line"/>
      <point x="403.017" y="9.9791" type="line" smooth="yes"/>
      <point x="368.015" y="9.9791"/>
      <point x="339.618" y="38.0291"/>
      <point x="338.963" y="72.864" type="curve"/>
    </contour>
  </outline>
</glyph>
<glyph name="Iacute" format="1">
  <advance width="456"/>
  <unicode hex="00CD"/>
  <outline>
    <contour>
      <point x="252.891" y="762.168" type="line"/>
      <point x="318.46" y="778.004"/>
      <point x="397.994" y="814.269"/>
      <point x="457.491" y="852.105" type="curve"/>
      <point x="445.19" y="887.852"/>
      <point x="425.246" y="914.92"/>
      <point x="389.73" y="933.309" type="curve"/>
      <point x="346.237" y="894.346"/>
      <point x="279.671" y="827.096"/>
      <point x="245.891" y="769.168" type="curve"/>
    </contour>
    <contour>
      <point x="338.963" y="616.146" type="line" smooth="yes"/>
      <point x="339.994" y="670.702"/>
      <point x="358.452" y="700.703"/>
      <point x="417.618" y="710.06" type="curve"/>
      <point x="415.78" y="720.06" type="line"/>
      <point x="321.041" y="702"/>
      <point x="162.288" y="700.37"/>
      <point x="97.2913" y="696" type="curve" smooth="yes"/>
      <point x="-6" y="689.036"/>
      <point x="-42" y="644.279"/>
      <point x="-44" y="594.929" type="curve" smooth="yes"/>
      <point x="-47" y="529.871"/>
      <point x="17.5175" y="489.214"/>
      <point x="76.1427" y="515.327" type="curve"/>
      <point x="76.1101" y="521.134" type="line"/>
      <point x="24.1131" y="518.679"/>
      <point x="-3" y="550.593"/>
      <point x="0" y="591.286" type="curve" smooth="yes"/>
      <point x="3.44609" y="634.071"/>
      <point x="36.6131" y="652.154"/>
      <point x="94.0832" y="654.722" type="curve" smooth="yes"/>
      <point x="188.914" y="658.642" type="line"/>
      <point x="188.914" y="72.8641" type="line" smooth="yes"/>
      <point x="188.251" y="38.0291"/>
      <point x="159.854" y="9.97908"/>
      <point x="124.852" y="9.97908" type="curve" smooth="yes"/>
      <point x="112.202" y="10" type="line"/>
      <point x="112.041" y="0" type="line"/>
      <point x="415.828" y="0" type="line"/>
      <point x="415.667" y="10" type="line"/>
      <point x="403.017" y="9.97908" type="line" smooth="yes"/>
      <point x="368.015" y="9.97908"/>
      <point x="339.618" y="38.0291"/>
      <point x="338.963" y="72.864" type="curve"/>
    </contour>
  </outline>
</glyph>
<glyph name="Icircumflex" format="1">
  <advance width="456"/>
  <unicode hex="00CE"/>
  <outline>
    <contour>
      <point x="256.795" y="915.25" type="line"/>
      <point x="267.95" y="915.25" type="line"/>
      <point x="421.145" y="761.994" type="line"/>
      <point x="414.453" y="753.994" type="line"/>
      <point x="261.848" y="819.078" type="line"/>
      <point x="119.266" y="754.09" type="line"/>
      <point x="112.574" y="762.09" type="line"/>
    </contour>
    <contour>
      <point x="338.963" y="616.146" type="line" smooth="yes"/>
      <point x="339.994" y="670.702"/>
      <point x="358.452" y="700.704"/>
      <point x="417.618" y="710.06" type="curve"/>
      <point x="415.78" y="720.06" type="line"/>
      <point x="321.041" y="702"/>
      <point x="162.288" y="700.37"/>
      <point x="97.2913" y="696" type="curve" smooth="yes"/>
      <point x="-6" y="689.036"/>
      <point x="-42" y="644.279"/>
      <point x="-44" y="594.929" type="curve" smooth="yes"/>
      <point x="-47" y="529.871"/>
      <point x="17.5175" y="489.214"/>
      <point x="76.1427" y="515.327" type="curve"/>
      <point x="76.1101" y="521.134" type="line"/>
      <point x="24.1131" y="518.679"/>
      <point x="-3" y="550.593"/>
      <point x="0" y="591.286" type="curve" smooth="yes"/>
      <point x="3.44613" y="634.071"/>
      <point x="36.6131" y="652.154"/>
      <point x="94.0832" y="654.722" type="curve" smooth="yes"/>
      <point x="188.914" y="658.642" type="line"/>
      <point x="188.914" y="72.8641" type="line" smooth="yes"/>
      <point x="188.251" y="38.0291"/>
      <point x="159.854" y="9.97911"/>
      <point x="124.852" y="9.97911" type="curve" smooth="yes"/>
      <point x="112.202" y="10" type="line"/>
      <point x="112.041" y="0" type="line"/>
      <point x="415.828" y="0" type="line"/>
      <point x="415.667" y="10" type="line"/>
      <point x="403.017" y="9.97911" type="line" smooth="yes"/>
      <point x="368.015" y="9.97911"/>
      <point x="339.618" y="38.0291"/>
      <point x="338.963" y="72.864" type="curve"/>
    </contour>
  </outline>
</glyph>
<glyph name="Idieresis" format="1">
  <advance width="456"/>
  <unicode hex="00CF"/>
  <outline>
    <contour>
      <point x="177.552" y="758.869"/>
      <point x="204.455" y="785.771"/>
      <point x="204.455" y="818.96" type="curve" smooth="yes"/>
      <point x="204.455" y="852.149"/>
      <point x="177.552" y="879.052"/>
      <point x="144.364" y="879.052" type="curve" smooth="yes"/>
      <point x="111.176" y="879.052"/>
      <point x="84.273" y="852.149"/>
      <point x="84.273" y="818.96" type="curve" smooth="yes"/>
      <point x="84.273" y="785.771"/>
      <point x="111.176" y="758.869"/>
      <point x="144.364" y="758.869" type="curve" smooth="yes"/>
    </contour>
    <contour>
      <point x="410.991" y="758.869"/>
      <point x="437.893" y="785.771"/>
      <point x="437.893" y="818.96" type="curve" smooth="yes"/>
      <point x="437.893" y="852.149"/>
      <point x="410.991" y="879.052"/>
      <point x="377.802" y="879.052" type="curve" smooth="yes"/>
      <point x="344.614" y="879.052"/>
      <point x="317.711" y="852.149"/>
      <point x="317.711" y="818.96" type="curve" smooth="yes"/>
      <point x="317.711" y="785.771"/>
      <point x="344.614" y="758.869"/>
      <point x="377.802" y="758.869" type="curve" smooth="yes"/>
    </contour>
    <contour>
      <point x="338.963" y="616.146" type="line" smooth="yes"/>
      <point x="339.994" y="670.702"/>
      <point x="358.452" y="700.703"/>
      <point x="417.618" y="710.06" type="curve"/>
      <point x="415.78" y="720.06" type="line"/>
      <point x="321.041" y="702"/>
      <point x="162.288" y="700.37"/>
      <point x="97.2913" y="696" type="curve" smooth="yes"/>
      <point x="-6" y="689.036"/>
      <point x="-42" y="644.279"/>
      <point x="-44" y="594.929" type="curve" smooth="yes"/>
      <point x="-47" y="529.871"/>
      <point x="17.5175" y="489.214"/>
      <point x="76.1427" y="515.327" type="curve"/>
      <point x="76.1101" y="521.134" type="line"/>
      <point x="24.1131" y="518.679"/>
      <point x="-3" y="550.593"/>
      <point x="0" y="591.286" type="curve" smooth="yes"/>
      <point x="3.4461" y="634.071"/>
      <point x="36.6131" y="652.154"/>
      <point x="94.0832" y="654.722" type="curve" smooth="yes"/>
      <point x="188.914" y="658.642" type="line"/>
      <point x="188.914" y="72.8641" type="line" smooth="yes"/>
      <point x="188.251" y="38.0291"/>
      <point x="159.854" y="9.97907"/>
      <point x="124.852" y="9.97907" type="curve" smooth="yes"/>
      <point x="112.202" y="10" type="line"/>
      <point x="112.041" y="0" type="line"/>
      <point x="415.828" y="0" type="line"/>
      <point x="415.667" y="10" type="line"/>
      <point x="403.017" y="9.97907" type="line" smooth="yes"/>
      <point x="368.015" y="9.97907"/>
      <point x="339.618" y="38.0291"/>
      <point x="338.963" y="72.864" type="curve"/>
    </contour>
  </outline>
</glyph>
